<?xml version="1.0" encoding="UTF-8"?>
<svg version="1.1" xmlns="http://www.w3.org/2000/svg" width="256" height="96">
<path d="M0 0 C9.9 0 19.8 0 30 0 C30 2.97 30 5.94 30 9 C24.39 9 18.78 9 13 9 C13 11.97 13 14.94 13 18 C17.29 18 21.58 18 26 18 C26.33 19.98 26.66 21.96 27 24 C27.50789063 23.51789062 28.01578125 23.03578125 28.5390625 22.5390625 C35.50937083 16.14308669 40.57323162 14.5472876 50.03515625 14.7578125 C57.20029844 15.34310738 61.75095957 17.88957643 66.58984375 23.19140625 C70.83041712 28.63014717 70.73340471 35.38995499 70 42 C68.1841731 48.70017142 63.84300587 52.53258995 58 56 C51.29741641 58.23419453 40.87127767 58.37457121 34.375 55.5 C29.42138554 52.43556888 25.82344706 47.47034118 24 42 C23.90622311 40.16859259 23.87007043 38.33380013 23.875 36.5 C23.87242188 35.5409375 23.86984375 34.581875 23.8671875 33.59375 C24 31 24 31 25 28 C21.04 27.67 17.08 27.34 13 27 C13 34.92 13 42.84 13 51 C3 56 3 56 0 56 C0 37.52 0 19.04 0 0 Z M38.9375 25.875 C35.96200014 30.67419332 35.26699868 35.54717801 36.4453125 41.09765625 C37.50751014 43.97291538 38.90441942 45.91004181 41.125 48 C45.26996298 49.44172625 48.80980704 49.2923025 53 48 C57.14636981 44.16460793 57.84806885 41.05107058 58.25 35.625 C57.97493185 31.63651183 57.11457955 29.36766372 55 26 C49.90629533 22.60419689 44.1433433 22.687749 38.9375 25.875 Z " fill="#0BA754" transform="translate(83,38)"/>
<path d="M0 0 C0 3.3 0 6.6 0 10 C0.7520874 9.99476318 1.5041748 9.98952637 2.27905273 9.98413086 C5.66519342 9.96342773 9.05132084 9.95036123 12.4375 9.9375 C13.62150391 9.92912109 14.80550781 9.92074219 16.02539062 9.91210938 C17.15009766 9.90888672 18.27480469 9.90566406 19.43359375 9.90234375 C20.47572021 9.89710693 21.51784668 9.89187012 22.59155273 9.88647461 C25 10 25 10 26 11 C26.08851529 13.59359322 26.11525945 16.16039691 26.09765625 18.75390625 C26.0962413 19.52935287 26.09482635 20.3047995 26.09336853 21.10374451 C26.08775345 23.59003494 26.07519846 26.0762366 26.0625 28.5625 C26.05748694 30.24413933 26.0529237 31.92578006 26.04882812 33.60742188 C26.03777913 37.73831566 26.02050445 41.86914276 26 46 C24.37750059 46.83819158 22.75191503 47.6704116 21.125 48.5 C20.22007812 48.9640625 19.31515625 49.428125 18.3828125 49.90625 C16 51 16 51 14 51 C14 40.44 14 29.88 14 19 C9.38 19 4.76 19 0 19 C0 28.24 0 37.48 0 47 C-5.94 49.475 -5.94 49.475 -12 52 C-12 41.11 -12 30.22 -12 19 C-22.66379443 20.6990306 -22.66379443 20.6990306 -26 26 C-26.88639389 28.65918166 -27.17989025 30.48064641 -27.31640625 33.23046875 C-27.35830078 34.03291016 -27.40019531 34.83535156 -27.44335938 35.66210938 C-27.50233398 36.91217773 -27.50233398 36.91217773 -27.5625 38.1875 C-27.60568359 39.03248047 -27.64886719 39.87746094 -27.69335938 40.74804688 C-27.79931518 42.83184433 -27.9001502 44.91590103 -28 47 C-29.43429001 47.67354499 -30.87257057 48.33859701 -32.3125 49 C-33.11300781 49.37125 -33.91351563 49.7425 -34.73828125 50.125 C-37 51 -37 51 -40 51 C-40 37.8 -40 24.6 -40 11 C-36.7 11 -33.4 11 -30 11 C-29.67 12.98 -29.34 14.96 -29 17 C-28.2575 16.21625 -27.515 15.4325 -26.75 14.625 C-22.95668772 11.00411101 -20.93491779 9.902337 -15.75 9.875 C-13.89375 9.936875 -13.89375 9.936875 -12 10 C-12 7.69 -12 5.38 -12 3 C-10.56445975 2.49440092 -9.1264798 1.9957251 -7.6875 1.5 C-6.88699219 1.2215625 -6.08648437 0.943125 -5.26171875 0.65625 C-3 0 -3 0 0 0 Z " fill="#0BA754" transform="translate(195,43)"/>
<path d="M0 0 C1.0803261 3.44831362 1.03754941 6.48221344 0.87890625 10.078125 C0.83056641 11.23828125 0.78222656 12.3984375 0.73242188 13.59375 C0.67634766 14.8003125 0.62027344 16.006875 0.5625 17.25 C0.51029297 18.47203125 0.45808594 19.6940625 0.40429688 20.953125 C0.27470786 23.96901481 0.13974424 26.98456646 0 30 C1.98 30 3.96 30 6 30 C6.45805864 34.10640161 6.90305768 38.21396033 7.33666992 42.32299805 C7.48554246 43.71692783 7.63780793 45.11050003 7.79370117 46.50366211 C8.82459277 55.74190935 9.27639993 63.89440029 7 73 C-0.26 73 -7.52 73 -15 73 C-13.34057786 68.85144464 -12.12045088 66.83167164 -9.51953125 63.45703125 C-7.51949143 60.17832725 -6.81948556 58.82141484 -7.65380859 55.02490234 C-9.15480082 51.77473045 -10.83673702 48.75181569 -12.6875 45.6875 C-13.89058278 43.59390632 -15.08251909 41.49385682 -16.26171875 39.38671875 C-16.80787842 38.47108154 -17.35403809 37.55544434 -17.91674805 36.61206055 C-19.21219263 33.48833694 -19.06639171 32.17160985 -18 29 C-16.98779297 26.95458984 -16.98779297 26.95458984 -15.7421875 24.9609375 C-15.28432861 24.22020996 -14.82646973 23.47948242 -14.35473633 22.71630859 C-13.62226685 21.55736084 -13.62226685 21.55736084 -12.875 20.375 C-12.38088623 19.5804541 -11.88677246 18.7859082 -11.37768555 17.96728516 C-9.92686423 15.63944838 -8.46553621 13.31859422 -7 11 C-6.40421143 10.05447266 -6.40421143 10.05447266 -5.79638672 9.08984375 C-3.87927119 6.05015538 -1.9487214 3.01952053 0 0 Z " fill="#0BA854" transform="translate(20,22)"/>
<path d="M0 0 C2.99984043 2.79868613 5.10966487 5.55283233 7.1640625 9.09765625 C8.01097656 10.54688477 8.01097656 10.54688477 8.875 12.02539062 C9.4525 13.02763672 10.03 14.02988281 10.625 15.0625 C11.78325714 17.05373281 12.94208612 19.04463314 14.1015625 21.03515625 C14.61025879 21.9156665 15.11895508 22.79617676 15.64306641 23.70336914 C16.70635464 25.50300073 17.84052323 27.26078485 19 29 C18.69406951 33.33229938 17.50440312 36.3080734 15.25 39.9765625 C9.34602045 48.99352299 9.34602045 48.99352299 7.15429688 59.14501953 C8.5273056 63.11693763 11.16896377 65.98790913 14 69 C14.33 69.99 14.66 70.98 15 72 C8.07 72 1.14 72 -6 72 C-8.63493095 65.41267264 -9.17089696 60.69709462 -8.4765625 53.66796875 C-8.41093109 52.99075272 -8.34529968 52.31353668 -8.27767944 51.61579895 C-8.13840292 50.19604954 -7.99533138 48.77666773 -7.84863281 47.35766602 C-7.62396229 45.17742993 -7.41265799 42.99619086 -7.203125 40.81445312 C-6.14363283 30.14363283 -6.14363283 30.14363283 -5 29 C-3.00041636 28.95919217 -0.99954746 28.95745644 1 29 C0.83628906 27.73285156 0.67257813 26.46570313 0.50390625 25.16015625 C-0.07978908 19.90689827 -0.11285949 14.71749915 -0.0625 9.4375 C-0.05798828 8.52419922 -0.05347656 7.61089844 -0.04882812 6.66992188 C-0.0371874 4.44654262 -0.02083851 2.22330879 0 0 Z " fill="#0BA853" transform="translate(46,23)"/>
<path d="M0 0 C0 2.64 0 5.28 0 8 C-4.95 8 -9.9 8 -15 8 C-15.33 9.65 -15.66 11.3 -16 13 C-15.19175781 13.24234375 -14.38351563 13.4846875 -13.55078125 13.734375 C-2.74841316 17.12233122 -2.74841316 17.12233122 1 21 C2.85495056 24.70990112 2.44709128 28.95063037 2 33 C-0.47288734 37.64902819 -4.0945578 39.48585552 -9 41 C-11.74653039 41.35038593 -14.4234721 41.3330506 -17.1875 41.25 C-18.23454102 41.24226563 -18.23454102 41.24226563 -19.30273438 41.234375 C-22.75337133 41.1818439 -25.62935252 40.84266187 -29 40 C-29 37.03 -29 34.06 -29 31 C-28.2575 31.165 -27.515 31.33 -26.75 31.5 C-21.49590599 32.20054587 -16.29248251 32.07707499 -11 32 C-11 30.35 -11 28.7 -11 27 C-11.87011719 26.61908203 -11.87011719 26.61908203 -12.7578125 26.23046875 C-27.08951284 19.91600672 -27.08951284 19.91600672 -29 17 C-30.01134415 12.59342905 -30.31309417 10.08539314 -29.0625 5.75 C-22.62252997 -2.83662671 -9.66019242 -3.00051431 0 0 Z " fill="#0BA854" transform="translate(253,53)"/>
<path d="M0 0 C2.4375 1.5625 2.4375 1.5625 4 4 C4.72468526 8.42863214 4.49454049 10.28066838 1.9375 14 C-1 16 -1 16 -4.625 16.0625 C-8 15 -8 15 -9.9375 13.375 C-11.43699866 10.02317947 -11.45377473 7.63019782 -11 4 C-8.11188513 -0.5054592 -5.11821063 -0.73117295 0 0 Z " fill="#E72F34" transform="translate(37,1)"/>
<path d="M0 0 C3.96 0 7.92 0 12 0 C12 3.3 12 6.6 12 10 C8.04 10 4.08 10 0 10 C0 6.7 0 3.4 0 0 Z " fill="#0CA854" transform="translate(209,37)"/>
</svg>
