<?xml version="1.0" encoding="UTF-8"?>
<svg version="1.1" xmlns="http://www.w3.org/2000/svg" width="2063" height="210">
<path d="M0 0 C2.95868528 2.58884962 4.69816548 4.40802324 5.44140625 8.328125 C5.796308 15.79251014 3.72098016 20.66211745 -0.9296875 26.3671875 C-22.61009982 49.79955234 -61.38065236 61.50999759 -92.34936523 63.12231445 C-106.00781579 63.57985389 -120.05749793 63.51935315 -132 56 C-136.10518634 51.57903009 -137.50488178 48.50946789 -137.390625 42.55859375 C-135.91595343 32.89949495 -127.46688288 25.52832397 -120 20 C-92.5203457 0.85899942 -31.25875874 -22.06943689 0 0 Z " fill="#007A9F" transform="translate(263,138)"/>
<path d="M0 0 C14.19 0 28.38 0 43 0 C43 4.29 43 8.58 43 13 C34.75 13 26.5 13 18 13 C18 17.29 18 21.58 18 26 C24.27 26 30.54 26 37 26 C37.495 29.96 37.495 29.96 38 34 C38.78375 32.948125 39.5675 31.89625 40.375 30.8125 C44.79081207 25.62917774 51.27132414 22.16709776 58 21 C70.73951575 20.31776023 80.75095969 20.53837764 90.984375 28.96484375 C97.90759765 35.95515189 99.30434653 43.63830068 99.31469727 53.14257812 C99.15338033 61.04615338 97.12097007 67.04927961 91.75 72.875 C83.49628768 80.32261728 73.90904861 82.36010954 63 81.875 C52.7618871 80.92805811 45.18681877 77.78493574 38.375 70 C32.69843916 61.57497774 32.35574092 51.72853287 34 42 C34.33 41.01 34.66 40.02 35 39 C29.39 39 23.78 39 18 39 C18 50.22 18 61.44 18 73 C3 80 3 80 0 80 C0 53.6 0 27.2 0 0 Z M54.6875 38.3125 C50.5439842 44.91143257 50.64739064 50.49916628 52 58 C53.95002847 63.36257829 56.89269064 66.44634532 62 69 C67.57335568 69.37155705 71.23651851 69.24782829 76 66 C81.43412181 58.95032846 81.72157731 52.66938538 81 44 C80.00272379 40.30944281 78.32789583 37.92592319 75.12890625 35.6953125 C67.69542441 31.62024684 60.98787438 32.01212562 54.6875 38.3125 Z " fill="#00993F" transform="translate(1811,54)"/>
<path d="M0 0 C0 5.28 0 10.56 0 16 C11.55 16 23.1 16 35 16 C35 32.83 35 49.66 35 67 C21 74 21 74 18 74 C18 58.82 18 43.64 18 28 C12.06 28 6.12 28 0 28 C0 40.87 0 53.74 0 67 C-15 74 -15 74 -17 74 C-17.33 59.15 -17.66 44.3 -18 29 C-30.34299019 29.79284342 -30.34299019 29.79284342 -36 35 C-39.92837935 42.43586092 -40.15821318 50.2125828 -40.5625 58.4375 C-40.60568359 59.26443359 -40.64886719 60.09136719 -40.69335938 60.94335938 C-40.79838033 62.96209549 -40.89958559 64.98102951 -41 67 C-43.26727333 68.17407021 -45.53834624 69.33939739 -47.8125 70.5 C-48.45509766 70.83386719 -49.09769531 71.16773438 -49.75976562 71.51171875 C-52.69547699 73.00239084 -54.66126517 74 -58 74 C-58 54.86 -58 35.72 -58 16 C-52.72 16 -47.44 16 -42 16 C-41.67 18.31 -41.34 20.62 -41 23 C-40.55269531 22.59007813 -40.10539062 22.18015625 -39.64453125 21.7578125 C-39.03996094 21.21898438 -38.43539063 20.68015625 -37.8125 20.125 C-37.22082031 19.59132813 -36.62914062 19.05765625 -36.01953125 18.5078125 C-31.70174562 15.28408861 -28.00276085 14.75818108 -22.6875 14.875 C-21.61886719 14.89304687 -20.55023437 14.91109375 -19.44921875 14.9296875 C-18.64097656 14.95289062 -17.83273437 14.97609375 -17 15 C-17 11.37 -17 7.74 -17 4 C-14.91891315 3.32635339 -12.8350329 2.66133202 -10.75 2 C-9.58984375 1.62875 -8.4296875 1.2575 -7.234375 0.875 C-4 0 -4 0 0 0 Z " fill="#00993F" transform="translate(1970,60)"/>
<path d="M0 0 C3.00165901 2.4628997 3.32828787 3.23551506 3.875 7.0625 C3.15180051 13.57129538 -0.05037809 17.72406049 -4.84765625 22.0703125 C-16.57714449 31.09299576 -30.39146312 37.02849922 -44.5625 41 C-45.69429687 41.3196875 -46.82609375 41.639375 -47.9921875 41.96875 C-55.97390509 43.88862862 -63.75051848 44.32973558 -71.9375 44.4375 C-73.45331665 44.47097534 -73.45331665 44.47097534 -74.99975586 44.50512695 C-81.49834266 44.48530275 -87.0374599 43.62777668 -92.5625 40 C-95.06118071 36.25197893 -95.40444635 33.33446453 -94.5625 29 C-88.00940838 14.89419261 -69.29507269 7.54736703 -55.5859375 2.49609375 C-40.01503649 -2.89810429 -14.99814736 -9.57024641 0 0 Z " fill="#007A9F" transform="translate(112.5625,144)"/>
<path d="M0 0 C6.27 0 12.54 0 19 0 C19.02755817 3.18756151 19.04710084 6.37487351 19.0625 9.5625 C19.07087891 10.43841797 19.07925781 11.31433594 19.08789062 12.21679688 C19.11661543 20.23101869 18.53755504 27.93667442 18 36 C32.85 36 47.7 36 63 36 C62.855625 32.143125 62.71125 28.28625 62.5625 24.3125 C62.51939697 23.10505127 62.47629395 21.89760254 62.43188477 20.65356445 C62.3747229 19.21049927 62.3747229 19.21049927 62.31640625 17.73828125 C62.26141968 16.26935425 62.26141968 16.26935425 62.20532227 14.77075195 C62.00590322 12.07966186 61.71330506 9.60363493 61 7 C59.03241727 5.63979849 59.03241727 5.63979849 57 5 C57 3.35 57 1.7 57 0 C63.27 0 69.54 0 76 0 C76.33 26.4 76.66 52.8 77 80 C78.98 80.99 78.98 80.99 81 82 C81 83.32 81 84.64 81 86 C74.73 86 68.46 86 62 86 C61.9479414 76.71404767 62.13943824 67.46584474 62.5 58.1875 C62.665 53.835625 62.83 49.48375 63 45 C48.15 45 33.3 45 18 45 C18.495 62.82 18.495 62.82 19 81 C20.65 81.33 22.3 81.66 24 82 C24 83.32 24 84.64 24 86 C17.4 86 10.8 86 4 86 C4.33 59.6 4.66 33.2 5 6 C3.35 5.67 1.7 5.34 0 5 C0 3.35 0 1.7 0 0 Z " fill="#007A9F" transform="translate(1077,48)"/>
<path d="M0 0 C0.90363281 -0.02900391 1.80726563 -0.05800781 2.73828125 -0.08789062 C10.04280835 -0.15620635 16.08130108 1.39912145 21.875 6 C23.37471695 9.96353766 22.97220344 13.29668869 21.75 17.3125 C15.41979209 29.8648918 -0.69296939 36.86945141 -13.25 41.3125 C-26.56276942 45.66903272 -45.0232441 49.97207859 -58.1484375 43.35546875 C-60.44463757 41.9163011 -62.02485356 40.76279289 -63.25 38.3125 C-64.06396138 33.34630527 -63.8115492 29.42734463 -60.875 25.25 C-49.14779901 11.57277945 -32.44742114 5.06119894 -15.25 1.3125 C-14.45787109 1.1381543 -13.66574219 0.96380859 -12.84960938 0.78417969 C-8.5790257 0.0093142 -4.33039726 0.04555116 0 0 Z " fill="#007A9F" transform="translate(328.25,75.6875)"/>
<path d="M0 0 C1.98 0 3.96 0 6 0 C5.67 3.3 5.34 6.6 5 10 C2.69 10.66 0.38 11.32 -2 12 C-1.525625 12.7425 -1.05125 13.485 -0.5625 14.25 C2.30550367 19.29768645 2.88835896 24.32065501 1.50390625 30.0546875 C-0.55495303 36.21963338 -3.93081573 39.97848217 -9.5625 43.25 C-15.66530781 46.12190956 -22.54200788 46.11894813 -29.1796875 45.890625 C-32.20907286 45.76235309 -32.20907286 45.76235309 -35 48 C-34.65213292 49.97536745 -34.65213292 49.97536745 -34 52 C-31.75976183 53.12011908 -30.23510277 53.23752423 -27.74609375 53.4296875 C-26.89080078 53.50316406 -26.03550781 53.57664063 -25.15429688 53.65234375 C-23.37088769 53.79850381 -21.5870296 53.9393054 -19.80273438 54.07421875 C-11.86302487 54.77286582 -3.76661724 56.06377637 2 62 C5.57978982 67.36968472 6.81907167 73.8607628 5.5625 80.2109375 C3.04169025 87.68743004 -1.49490631 92.4095801 -8.42578125 95.9609375 C-18.38376989 99.98039877 -30.3136191 100.10078319 -40.5 96.75 C-45.3288768 94.3355616 -48.03470567 91.44794149 -51 87 C-51.87994248 82.22052292 -51.56320409 78.19050604 -48.8125 74.125 C-46.4774877 71.3216844 -44.45949723 69.33662393 -41 68 C-37.98115606 67.77600483 -35.02010969 67.82234649 -32 68 C-32.42152344 68.4125 -32.84304688 68.825 -33.27734375 69.25 C-36.17015404 72.29936237 -38.36964046 74.84710642 -39.125 79.0625 C-38.97285075 83.85520148 -38.34964057 85.57060608 -35 89 C-28.85436893 92.4225669 -22.74742943 92.4803034 -16 91 C-12.07002762 89.64237318 -10.50117979 88.7183577 -8.125 85.3125 C-6.41703411 80.28348934 -6.10283005 76.17209568 -8.1875 71.125 C-11.4039765 67.35395858 -15.07827852 66.90033629 -19.8359375 66.5078125 C-22.61116411 66.30503806 -25.38601178 66.12436767 -28.1640625 65.96484375 C-34.17019277 65.51009389 -38.0677062 64.52678528 -43 61 C-45.47051718 57.29422423 -45.55512836 54.2980393 -45 50 C-43.48202348 46.74719316 -41.65384499 44.40109785 -39 42 C-39.928125 41.319375 -40.85625 40.63875 -41.8125 39.9375 C-45.75272729 36.61205995 -47.6095199 33.00995079 -48.28125 27.83203125 C-48.56406563 20.98553612 -47.05368958 15.49773057 -42.6875 10.1875 C-36.29261656 4.98236232 -30.44325464 3.86555591 -22.38671875 3.90234375 C-21.13955078 3.90556641 -19.89238281 3.90878906 -18.60742188 3.91210938 C-17.31384766 3.92048828 -16.02027344 3.92886719 -14.6875 3.9375 C-12.71813477 3.94426758 -12.71813477 3.94426758 -10.70898438 3.95117188 C-7.4726099 3.96294051 -4.23632822 3.9793824 -1 4 C-0.67 2.68 -0.34 1.36 0 0 Z M-31 12 C-34.81620223 17.13213404 -35.42107615 21.68385769 -35 28 C-34.00614501 32.18671196 -32.65774257 35.2482942 -29.8125 38.5 C-26.07799789 40.49173446 -23.14544942 40.82237661 -19 40 C-15.72531119 38.14908893 -14.36401156 36.72802312 -12.6875 33.375 C-11.1716933 25.93376712 -11.30540433 19.70500696 -15 13 C-16.87261333 10.19108 -17.96168635 10.01012059 -21.3125 9.125 C-25.58974007 8.98000881 -27.48327546 9.60223327 -31 12 Z " fill="#007A9F" transform="translate(873,69)"/>
<path d="M0 0 C0.82669189 0.00418945 1.65338379 0.00837891 2.50512695 0.01269531 C12.50517745 0.19609298 20.95459803 2.44222774 29.6875 7.3125 C29.6875 12.5925 29.6875 17.8725 29.6875 23.3125 C28.0375 23.3125 26.3875 23.3125 24.6875 23.3125 C24.378125 22.28125 24.06875 21.25 23.75 20.1875 C21.15470313 14.1236073 15.29434749 11.43702245 9.5 8.9375 C-1.14516288 7.19239133 -10.45407467 7.29201203 -19.5 13.5 C-27.38247888 21.38247888 -30.63361829 31.04538488 -30.78076172 42.10083008 C-30.77061035 42.97505615 -30.76045898 43.84928223 -30.75 44.75 C-30.74242676 45.66869873 -30.73485352 46.58739746 -30.72705078 47.53393555 C-30.47152672 58.05798311 -27.67075708 66.585452 -20.3125 74.3125 C-13.23395114 80.57613691 -6.193926 81.74728159 3.1171875 81.6484375 C8.12564973 81.17718175 12.24446889 79.60567735 16.6875 77.3125 C17.51961276 72.27395894 17.7953534 67.4999338 17.75 62.375 C17.74548828 61.69115234 17.74097656 61.00730469 17.73632812 60.30273438 C17.7246956 58.63928396 17.70676694 56.9758795 17.6875 55.3125 C16.0375 54.9825 14.3875 54.6525 12.6875 54.3125 C12.6875 52.9925 12.6875 51.6725 12.6875 50.3125 C18.9575 50.3125 25.2275 50.3125 31.6875 50.3125 C31.6875 60.8725 31.6875 71.4325 31.6875 82.3125 C14.87117126 89.78642388 -5.5575055 93.0211398 -23.3125 86.3125 C-33.3923612 81.97895337 -39.48288746 75.4506032 -44.0859375 65.54296875 C-48.95879763 52.70903457 -48.36722328 37.82094448 -43.60546875 25.03125 C-38.50016202 14.29622436 -29.32010105 6.52039181 -18.3125 2.3125 C-12.20250418 0.56006688 -6.33927322 -0.04432602 0 0 Z " fill="#007A9F" transform="translate(490.3125,46.6875)"/>
<path d="M0 0 C7.37191035 4.54862553 11.24480506 8.93615564 13.625 17.19921875 C16.17068314 28.46033099 15.55731153 39.70694402 10.25 50.125 C4.46349097 56.84986184 -0.51335339 61.28148811 -9.6640625 62.0234375 C-15.86652396 62.24556422 -20.46623453 61.51069942 -26.0625 58.8125 C-27.0525 57.8225 -28.0425 56.8325 -29.0625 55.8125 C-29.0625 66.3725 -29.0625 76.9325 -29.0625 87.8125 C-27.4125 88.1425 -25.7625 88.4725 -24.0625 88.8125 C-24.0625 90.4625 -24.0625 92.1125 -24.0625 93.8125 C-30.0025 93.8125 -35.9425 93.8125 -42.0625 93.8125 C-42.3925 64.7725 -42.7225 35.7325 -43.0625 5.8125 C-44.7125 5.4825 -46.3625 5.1525 -48.0625 4.8125 C-48.0625 3.4925 -48.0625 2.1725 -48.0625 0.8125 C-42.1225 0.8125 -36.1825 0.8125 -30.0625 0.8125 C-29.7325 2.1325 -29.4025 3.4525 -29.0625 4.8125 C-28.51464844 4.379375 -27.96679688 3.94625 -27.40234375 3.5 C-19.34452028 -2.16012966 -9.39867292 -3.59238165 0 0 Z M-24.0625 9.8125 C-30.74973808 18.1715476 -30.7598906 27.54476459 -30.0625 37.8125 C-28.88241255 44.4709496 -26.88865833 49.94288125 -21.3125 54.125 C-16.25696905 55.66974557 -12.44929624 55.50589812 -7.8125 53.1875 C-1.47752382 47.71638421 0.5505392 41.67296213 1.1953125 33.57421875 C1.46618162 25.31271066 1.10842443 16.58991089 -4.59375 10.05859375 C-7.74852094 7.34456287 -10.19227461 5.89617552 -14.3125 5.5 C-18.80705244 5.87454604 -20.63681545 6.91969971 -24.0625 9.8125 Z " fill="#007A9F" transform="translate(1336.0625,74.1875)"/>
<path d="M0 0 C0.33 0 0.66 0 1 0 C1.14962742 8.51213756 0.89959532 16.99521951 0.5625 25.5 C0.52326416 26.55058594 0.48402832 27.60117187 0.44360352 28.68359375 C0.40162842 29.68519531 0.35965332 30.68679687 0.31640625 31.71875 C0.27974854 32.61529297 0.24309082 33.51183594 0.20532227 34.43554688 C-0.00174548 37.02180091 -0.43981553 39.46877499 -1 42 C1.97 42 4.94 42 8 42 C8.48105039 46.27062331 8.95948991 50.54153541 9.4375 54.8125 C9.57220703 56.00810547 9.70691406 57.20371094 9.84570312 58.43554688 C12.13924646 78.96555677 12.13924646 78.96555677 12.1875 87.0625 C12.20167969 88.14660156 12.21585938 89.23070313 12.23046875 90.34765625 C11.94007753 94.94961884 10.90431416 99.47842918 10 104 C-0.56 104 -11.12 104 -22 104 C-19.93951795 98.84879488 -17.22429872 94.71601913 -14.01367188 90.25976562 C-12.12484543 87.47671217 -10.96139881 85.66221307 -11.16040039 82.24829102 C-12.15838443 78.38723325 -13.77702159 75.0557734 -15.6328125 71.5546875 C-16.36345869 70.13420584 -17.09392206 68.71363013 -17.82421875 67.29296875 C-18.97703243 65.07457868 -20.13374247 62.85832178 -21.29443359 60.64404297 C-22.41746174 58.4943819 -23.52575839 56.33760726 -24.6328125 54.1796875 C-25.16081955 53.1889473 -25.16081955 53.1889473 -25.69949341 52.17819214 C-28.03348938 47.60854002 -28.03348938 47.60854002 -27.8815918 44.84838867 C-26.78905047 42.55771286 -25.59127845 40.40983707 -24.26171875 38.24609375 C-23.69412842 37.31748535 -23.12653809 36.38887695 -22.54174805 35.43212891 C-21.92984619 34.44390137 -21.31794434 33.45567383 -20.6875 32.4375 C-20.06464111 31.42349121 -19.44178223 30.40948242 -18.80004883 29.36474609 C-13.66468467 21.02441972 -8.47392246 12.71811617 -3.23046875 4.4453125 C-2.82207764 3.80094238 -2.41368652 3.15657227 -1.99291992 2.49267578 C-1 1 -1 1 0 0 Z " fill="#00993F" transform="translate(1722,31)"/>
<path d="M0 0 C0.66 0 1.32 0 2 0 C3.52124023 2.19287109 3.52124023 2.19287109 5.30859375 5.2734375 C5.96931885 6.39943359 6.63004395 7.52542969 7.31079102 8.68554688 C8.38048104 10.5358416 9.44538883 12.3887748 10.50753784 14.2434082 C11.58229223 16.12002261 12.6607029 17.99444382 13.7421875 19.8671875 C14.0997261 20.48676331 14.45726471 21.10633911 14.82563782 21.74468994 C16.95908823 25.38667764 19.2374247 28.78502932 21.8203125 32.1328125 C29.36298804 42.08623525 29.36298804 42.08623525 28.71240234 47.30859375 C27.11208535 52.50989087 24.39345527 57.02115952 21.49560547 61.59472656 C19.0270075 65.56479304 16.93173636 69.71154449 14.8125 73.875 C14.40290039 74.61814453 13.99330078 75.36128906 13.57128906 76.12695312 C11.39744343 80.10628271 11.39744343 80.10628271 11.44140625 84.4921875 C12.21291016 85.73355469 12.21291016 85.73355469 13 87 C13.36875244 87.61536621 13.73750488 88.23073242 14.11743164 88.86474609 C15.42060901 91.0155042 16.76630043 93.13393008 18.125 95.25 C19.04621832 96.69146558 19.96559557 98.13411001 20.8828125 99.578125 C21.28902832 100.21137695 21.69524414 100.84462891 22.11376953 101.49707031 C23 103 23 103 23 104 C12.44 104 1.88 104 -9 104 C-12.4497926 87.90096787 -12.4497926 87.90096787 -11.453125 78.640625 C-11.36246765 77.64415955 -11.2718103 76.64769409 -11.17840576 75.62103271 C-10.88872295 72.49510019 -10.56946503 69.37301265 -10.25 66.25 C-10.05022628 64.11475626 -9.85229553 61.97933926 -9.65625 59.84375 C-9.29087558 55.97059776 -8.9247409 52.09764738 -8.52832031 48.22753906 C-8.45043274 47.45702209 -8.37254517 46.68650513 -8.29229736 45.89263916 C-8 44 -8 44 -7 42 C-4.36 42 -1.72 42 1 42 C0.505 21.21 0.505 21.21 0 0 Z " fill="#00993F" transform="translate(1758,31)"/>
<path d="M0 0 C2.35620437 3.53430656 2.48991613 4.83571287 2 9 C-3.76217114 20.77487146 -17.74063038 25.84517554 -29.29296875 30.2578125 C-41.6950314 34.41751053 -57.02338936 37.46465674 -69.5625 32.625 C-72 31 -72 31 -74 28 C-74 22.71775596 -72.63675348 19.55655699 -69.1015625 15.8203125 C-53.56195808 2.36035774 -19.62888173 -10.91491593 0 0 Z " fill="#0DA4AC" transform="translate(74,101)"/>
<path d="M0 0 C0.69673828 0.00386719 1.39347656 0.00773437 2.11132812 0.01171875 C7.38494388 0.10002115 12.0693031 0.80551517 17.125 2.25 C16.795 6.21 16.465 10.17 16.125 14.25 C15.031875 14.085 13.93875 13.92 12.8125 13.75 C2.63172185 12.35815721 2.63172185 12.35815721 -6.875 15.25 C-6.875 16.9 -6.875 18.55 -6.875 20.25 C-6.32561768 20.44110352 -5.77623535 20.63220703 -5.21020508 20.82910156 C-2.69891888 21.70917698 -0.19329659 22.60441989 2.3125 23.5 C3.17681641 23.80035156 4.04113281 24.10070312 4.93164062 24.41015625 C10.26221854 26.32998125 15.05408331 28.10933827 18.3046875 33.0390625 C20.38847757 38.54120482 20.88996744 43.56788545 19.125 49.25 C15.65159371 55.01624472 11.47651027 58.25045047 5.125 60.25 C-4.72704411 62.62923514 -15.10572163 61.48297791 -24.875 59.25 C-25.97870043 55.9388987 -25.80173641 54.00251051 -25.4375 50.5625 C-25.33566406 49.56863281 -25.23382812 48.57476562 -25.12890625 47.55078125 C-25.04511719 46.79152344 -24.96132812 46.03226563 -24.875 45.25 C-24.1015625 45.4665625 -23.328125 45.683125 -22.53125 45.90625 C-11.10489405 49.04571463 -11.10489405 49.04571463 0.125 46.25 C0.455 43.94 0.785 41.63 1.125 39.25 C0.60292969 39.07984375 0.08085938 38.9096875 -0.45703125 38.734375 C-2.93403886 37.91882784 -5.40459004 37.08531848 -7.875 36.25 C-8.82246094 35.93675781 -9.76992187 35.62351563 -10.74609375 35.30078125 C-21.90328582 31.47070039 -21.90328582 31.47070039 -24.97265625 26.45703125 C-26.90935687 21.72007951 -26.70912861 15.97715102 -25.22265625 11.1171875 C-22.24579031 5.21456062 -17.58022348 3.16044312 -11.63671875 1.16015625 C-7.69081703 0.20543652 -4.03107195 -0.05442141 0 0 Z " fill="#00993F" transform="translate(2034.875,72.75)"/>
<path d="M0 0 C7.20933872 5.76747098 11.26278811 12.07515707 12.8125 21.25 C13.59878709 31.09370951 12.23600684 40.43762682 5.8125 48.25 C-1.1279847 55.5690566 -7.51843562 58.30713306 -17.5625 58.6875 C-26.21560289 58.4549984 -34.28037825 56.13123011 -40.6875 50.09375 C-48.02444832 41.0754177 -48.87904199 31.47520836 -48.1875 20.25 C-46.40911331 11.18807369 -41.54598722 4.65688844 -34.1875 -0.75 C-23.20752931 -7.118383 -10.85124773 -5.95754777 0 0 Z M-27.8828125 4.703125 C-33.85932497 11.11271808 -34.53370936 18.1841767 -34.5 26.625 C-34.51611328 27.42421875 -34.53222656 28.2234375 -34.54882812 29.046875 C-34.55415082 35.62572787 -33.67389872 42.13069979 -29.46875 47.40625 C-28.58703125 48.07140625 -28.58703125 48.07140625 -27.6875 48.75 C-27.0996875 49.2140625 -26.511875 49.678125 -25.90625 50.15625 C-22.08421934 52.58845133 -18.59813988 52.54902643 -14.1875 52.25 C-8.79567496 50.24128087 -5.87403219 47.57963436 -3.27734375 42.453125 C0.44393707 33.24511852 0.18948312 21.69995311 -3.15625 12.40625 C-5.30659005 7.91008444 -7.6590827 4.35992454 -12.33203125 2.30859375 C-17.97347002 0.78050386 -23.20838478 0.69647267 -27.8828125 4.703125 Z " fill="#007A9F" transform="translate(1217.1875,77.75)"/>
<path d="M0 0 C5.46392744 3.23074548 7.87122178 7.26287523 9.5 13.3125 C9.81757128 16.49601212 9.87140295 19.66950662 9.9140625 22.8671875 C9.93342865 23.76873566 9.9527948 24.67028381 9.9727478 25.59915161 C10.03224296 28.46183996 10.07880817 31.32456918 10.125 34.1875 C10.16320747 36.13543363 10.2022608 38.08335086 10.2421875 40.03125 C10.33791965 44.79153258 10.42206116 49.5518942 10.5 54.3125 C12.15 54.6425 13.8 54.9725 15.5 55.3125 C15.5 56.6325 15.5 57.9525 15.5 59.3125 C9.56 59.3125 3.62 59.3125 -2.5 59.3125 C-2.51458252 58.01103027 -2.52916504 56.70956055 -2.54418945 55.36865234 C-2.60228934 50.52658008 -2.67952191 45.68496715 -2.76245117 40.84326172 C-2.79564549 38.75023876 -2.82369445 36.65712747 -2.84643555 34.56396484 C-2.88008231 31.55007388 -2.93240393 28.53698837 -2.98828125 25.5234375 C-2.99467117 24.59195892 -3.0010611 23.66048035 -3.00764465 22.70077515 C-3.12430629 17.51157309 -3.59266238 13.7960242 -6.5 9.3125 C-10.05121202 6.74894613 -13.14328751 7.11573777 -17.31640625 7.71875 C-20.87797422 8.68719066 -22.36395351 10.35972985 -24.5 13.3125 C-28.51790234 21.12562575 -27.83668184 29.26316062 -27.6875 37.8125 C-27.6724286 39.31769497 -27.65874453 40.82290451 -27.64648438 42.328125 C-27.61366687 45.98988941 -27.56201989 49.65110021 -27.5 53.3125 C-25.85 53.9725 -24.2 54.6325 -22.5 55.3125 C-22.5 56.6325 -22.5 57.9525 -22.5 59.3125 C-28.77 59.3125 -35.04 59.3125 -41.5 59.3125 C-41.5 41.4925 -41.5 23.6725 -41.5 5.3125 C-43.15 4.9825 -44.8 4.6525 -46.5 4.3125 C-46.5 2.9925 -46.5 1.6725 -46.5 0.3125 C-40.89 0.3125 -35.28 0.3125 -29.5 0.3125 C-28.84 2.2925 -28.18 4.2725 -27.5 6.3125 C-26.95730469 5.81878906 -26.41460938 5.32507813 -25.85546875 4.81640625 C-25.14003906 4.17574219 -24.42460938 3.53507812 -23.6875 2.875 C-22.97980469 2.23691406 -22.27210938 1.59882812 -21.54296875 0.94140625 C-15.92646533 -3.53676187 -6.27163305 -2.92912429 0 0 Z " fill="#007A9F" transform="translate(676.5,74.6875)"/>
<path d="M0 0 C5.86148654 5.35179206 6.93604035 11.76387942 7.31884766 19.41821289 C7.35960071 20.93614543 7.3910729 22.45435078 7.4140625 23.97265625 C7.43342865 24.78117538 7.4527948 25.58969452 7.4727478 26.42271423 C7.5318499 28.96920697 7.57864711 31.51574664 7.625 34.0625 C7.66324387 35.80405463 7.70229917 37.54559164 7.7421875 39.28710938 C7.83749287 43.52459406 7.92177482 47.762167 8 52 C9.32 52.66 10.64 53.32 12 54 C12 55.32 12 56.64 12 58 C6.72 58 1.44 58 -4 58 C-4.66 56.68 -5.32 55.36 -6 54 C-6.825 54.61875 -7.65 55.2375 -8.5 55.875 C-14.55581768 59.85089899 -20.56750572 60.46972232 -27.6015625 59.5390625 C-32.31174169 58.48042288 -35.68894768 56.52956104 -38.875 52.8125 C-41.5035869 46.24103275 -41.34497414 40.72129666 -39.1796875 34.04296875 C-35.75782412 28.11702653 -29.87468672 26.7343737 -23.71484375 24.94921875 C-17.5253551 23.36767749 -11.28384672 22.14725832 -5 21 C-5.42551896 19.08063787 -5.86591938 17.16457126 -6.3125 15.25 C-6.55613281 14.18265625 -6.79976562 13.1153125 -7.05078125 12.015625 C-7.98977731 9.03247701 -8.86277836 7.25859472 -11 5 C-15.80348668 3.39883777 -19.48295428 3.30215897 -24.125 5.4375 C-27.87619929 8.78096024 -29.83437727 12.51543613 -32 17 C-33.65 17 -35.3 17 -37 17 C-37 12.71 -37 8.42 -37 4 C-25.70135896 -1.83556186 -12.14974281 -7.44206984 0 0 Z M-24.125 34.625 C-26.87366974 38.10664834 -27.41782739 40.46127648 -27.3359375 44.95703125 C-27.09390469 47.30584862 -27.09390469 47.30584862 -25 50 C-21.88351053 52.07765965 -19.822329 52.73751234 -16.0625 52.48828125 C-12.41203167 51.62406053 -9.52100371 49.75947704 -7 47 C-4.79676038 42.88342071 -4.78873646 39.30259961 -4.875 34.6875 C-4.89304687 33.43324219 -4.91109375 32.17898437 -4.9296875 30.88671875 C-4.95289063 29.93410156 -4.97609375 28.98148438 -5 28 C-11.70586081 27.67199594 -19.25084832 29.82210784 -24.125 34.625 Z " fill="#007A9F" transform="translate(1474,76)"/>
<path d="M0 0 C4.32793884 3.75235618 6.63455415 8.37399706 7.20928955 14.07659912 C7.32580063 16.49749806 7.38089364 18.91247067 7.4140625 21.3359375 C7.43342865 22.21528961 7.4527948 23.09464172 7.4727478 24.00064087 C7.53222815 26.79199718 7.5788021 29.58339543 7.625 32.375 C7.66320885 34.27475694 7.70226226 36.1744971 7.7421875 38.07421875 C7.83790357 42.7160085 7.9220504 47.35787929 8 52 C9.32 52.66 10.64 53.32 12 54 C12 55.32 12 56.64 12 58 C6.72 58 1.44 58 -4 58 C-4.66 56.68 -5.32 55.36 -6 54 C-6.44988281 54.34933594 -6.89976562 54.69867188 -7.36328125 55.05859375 C-13.70410056 59.54418336 -19.83094839 60.83887236 -27.52734375 59.58984375 C-33.09327793 58.04323642 -35.77271775 55.7400708 -39 51 C-41.09182531 46.81634937 -40.42935408 41.55592381 -40 37 C-37.82018215 32.47889632 -35.16879264 29.73740269 -31 27 C-26.99832908 25.65231982 -22.92425401 24.69979822 -18.8125 23.75 C-17.70712891 23.481875 -16.60175781 23.21375 -15.46289062 22.9375 C-7.38173629 21 -7.38173629 21 -5 21 C-6.02086926 12.13865031 -6.02086926 12.13865031 -11 5 C-14.06429776 3.46785112 -16.6165642 3.77061452 -20 4 C-25.07126703 6.24079241 -28.01775448 9.78994759 -30.25 14.8125 C-30.4975 15.534375 -30.745 16.25625 -31 17 C-32.65 17 -34.3 17 -36 17 C-37.20852163 5.53582957 -37.20852163 5.53582957 -34.5 2.09375 C-32.37622575 0.73320712 -30.3803816 -0.17097055 -28 -1 C-26.7625 -1.433125 -25.525 -1.86625 -24.25 -2.3125 C-16.34388612 -3.9310745 -7.08124479 -4.38675721 0 0 Z M-24.125 34.1875 C-26.68523304 38.02784955 -27.30759984 41.4109429 -27 46 C-25.66498121 49.05147152 -24.97626566 50.51186717 -22 52 C-16.64665482 52.64609338 -13.94384293 52.36956206 -9.5625 49.125 C-7.49162728 47.44722836 -6.19327895 46.38655791 -5 44 C-4.92818179 41.28239892 -4.90700494 38.59140612 -4.9375 35.875 C-4.94201172 35.12089844 -4.94652344 34.36679688 -4.95117188 33.58984375 C-4.96296501 31.72652873 -4.98090058 29.86325445 -5 28 C-12.01856035 27.65670085 -18.42474698 30.19732289 -24.125 34.1875 Z " fill="#007A9F" transform="translate(804,76)"/>
<path d="M0 0 C7.16936323 7.50282199 7.6875 14.63533842 7.6875 24.8125 C-5.8425 24.8125 -19.3725 24.8125 -33.3125 24.8125 C-31.96000079 37.78452391 -31.96000079 37.78452391 -24.453125 47.18359375 C-20.07392831 49.63628337 -16.35799781 50.5332854 -11.3125 49.8125 C-7.4959269 48.3248012 -4.22098391 46.72098391 -1.3125 43.8125 C-0.6699765 41.74375966 -0.6699765 41.74375966 -0.3125 39.8125 C1.3375 39.8125 2.9875 39.8125 4.6875 39.8125 C4.6875 43.7725 4.6875 47.7325 4.6875 51.8125 C-6.09047513 57.49278419 -6.09047513 57.49278419 -11.3125 57.8125 C-12.12332031 57.86277344 -12.93414063 57.91304687 -13.76953125 57.96484375 C-23.16473563 58.2933474 -31.17300727 56.58572133 -38.55859375 50.54296875 C-45.57652117 43.6188221 -47.36409683 35.56647453 -47.6875 26 C-47.51127276 16.30750167 -45.00094272 8.54658809 -38.2421875 1.46875 C-27.52490139 -7.72989233 -11.48671521 -7.58556665 0 0 Z M-30.6875 7.5625 C-32.83830956 11.41342521 -32.83830956 11.41342521 -33.3125 18.8125 C-24.0725 18.8125 -14.8325 18.8125 -5.3125 18.8125 C-6.51014163 8.53556046 -6.51014163 8.53556046 -12.3125 1.8125 C-20.08176705 -0.86957343 -25.53680824 1.59854111 -30.6875 7.5625 Z " fill="#007A9F" transform="translate(748.3125,78.1875)"/>
<path d="M0 0 C4.97564094 3.74625106 8.33696315 7.93480679 10 14 C10 18.29 10 22.58 10 27 C-3.53 27 -17.06 27 -31 27 C-28.63354479 40.1313792 -28.63354479 40.1313792 -21.875 49.3125 C-17.11944682 52.10380295 -12.08144097 52.63288855 -6.6796875 51.5234375 C-2.68530416 50.18215011 0.00417294 48.75685093 2 45 C2.33 44.01 2.66 43.02 3 42 C4.65 42 6.3 42 8 42 C8 45.96 8 49.92 8 54 C-1.96690592 59.33941389 -11.64003291 61.85900733 -22.93359375 59.34765625 C-31.03390191 56.72994224 -37.44035834 52.47844669 -41.4375 44.8125 C-45.3381083 36.22416512 -45.50471548 24.1757336 -43.0625 15.0625 C-40.3830089 8.54790788 -34.73277905 1.85190725 -28.25 -1.0625 C-18.96853897 -3.73984453 -8.8011883 -4.69950243 0 0 Z M-26.25 8.4375 C-29.60331647 13.3477134 -30 14.60280747 -30 21 C-21.09 21 -12.18 21 -3 21 C-3 14.26321787 -3.33833386 11.29569956 -7 6 C-9.75780026 3.67764189 -11.37681774 3.07955518 -14.9375 2.625 C-19.8230251 3.22322756 -22.91237444 4.82173898 -26.25 8.4375 Z " fill="#007A9F" transform="translate(611,76)"/>
<path d="M0 0 C5.05563147 3.78904015 7.75813056 8.65953979 9.02734375 14.81640625 C9.02734375 18.44640625 9.02734375 22.07640625 9.02734375 25.81640625 C-4.50265625 25.81640625 -18.03265625 25.81640625 -31.97265625 25.81640625 C-30.26603118 38.60743718 -30.26603118 38.60743718 -23.97265625 47.81640625 C-19.21149399 50.54966607 -15.42631563 51.4007269 -9.97265625 50.81640625 C-4.26081825 48.85465469 -4.26081825 48.85465469 0.02734375 44.81640625 C0.74182018 42.71307734 0.74182018 42.71307734 1.02734375 40.81640625 C2.67734375 40.81640625 4.32734375 40.81640625 6.02734375 40.81640625 C6.02734375 44.77640625 6.02734375 48.73640625 6.02734375 52.81640625 C-3.42821992 58.72613354 -12.62045124 60.04789925 -23.6484375 58.421875 C-31.6659301 56.48919793 -37.96593897 51.36192171 -42.41015625 44.44140625 C-46.68512645 34.52347538 -47.31931473 23.78330236 -43.84375 13.46484375 C-40.01432829 5.05472415 -35.23512944 0.29483327 -26.66015625 -3.05859375 C-17.54840444 -5.69331717 -8.16301533 -4.8978092 0 0 Z M-28.22265625 8.00390625 C-30.66467635 11.58212216 -30.66467635 11.58212216 -31.97265625 19.81640625 C-22.73265625 19.81640625 -13.49265625 19.81640625 -3.97265625 19.81640625 C-4.87102692 10.23965645 -4.87102692 10.23965645 -10.22265625 3.50390625 C-17.42201645 -0.91388296 -22.80126508 2.73310928 -28.22265625 8.00390625 Z " fill="#007A9F" transform="translate(967.97265625,77.18359375)"/>
<path d="M0 0 C2.48552982 3.72829473 2.62622996 6.68230919 2 11 C-1.86969064 19.61885643 -11.83287858 24.39479272 -20.16015625 27.93359375 C-30.69925875 31.89119345 -42.76726694 34.4478923 -53.75 30.6875 C-57 29 -57 29 -59 26 C-59.46037677 21.93333851 -59.30847561 19.6046122 -57.4375 15.9375 C-44.8450951 0.76203769 -18.62437338 -9.48788833 0 0 Z " fill="#0DA4AC" transform="translate(355,27)"/>
<path d="M0 0 C1 1 1 1 1.09765625 3.94140625 C1.08605469 5.13636719 1.07445312 6.33132812 1.0625 7.5625 C1.05347656 8.76003906 1.04445313 9.95757812 1.03515625 11.19140625 C1.02355469 12.11824219 1.01195312 13.04507813 1 14 C-0.65 14 -2.3 14 -4 14 C-4.37125 12.741875 -4.7425 11.48375 -5.125 10.1875 C-6.32587717 7.05187629 -6.89198931 6.08486554 -9.625 3.9375 C-14.01494483 2.71807088 -17.61451082 2.75314523 -22 4 C-24.93359166 6.31131464 -24.97029574 7.79207015 -25.5 11.5 C-25.35083438 15.0722381 -25.35083438 15.0722381 -22.90234375 17.0625 C-19.68879694 19.20774794 -16.73616668 20.31932102 -13.0625 21.5 C-7.10403947 23.41915595 -1.86303022 25.39175769 1.875 30.625 C3.87915326 36.63745979 4.01164493 42.44300574 1.4375 48.3125 C-1.56863803 53.55207157 -5.75600928 56.09377298 -11.25 58.3125 C-20.898706 60.08142943 -30.65395692 59.56402872 -39 54 C-39.29296875 50.7421875 -39.29296875 50.7421875 -39.1875 46.875 C-39.16042969 45.59367187 -39.13335938 44.31234375 -39.10546875 42.9921875 C-39.07066406 42.00476563 -39.03585937 41.01734375 -39 40 C-37.35 40 -35.7 40 -34 40 C-33.84144531 40.69867188 -33.68289063 41.39734375 -33.51953125 42.1171875 C-33.28621094 43.02726562 -33.05289063 43.93734375 -32.8125 44.875 C-32.59207031 45.77992187 -32.37164063 46.68484375 -32.14453125 47.6171875 C-31.19432075 50.17432445 -31.19432075 50.17432445 -28.73046875 51.29296875 C-24.10353656 52.49107279 -19.73307259 52.67412578 -15 52 C-11.64198841 50.22632043 -11.64198841 50.22632043 -10 47 C-9.34073856 43.97339064 -9.54406754 42.19152723 -10 39 C-13.22137006 34.58830458 -17.38344709 33.68539323 -22.375 32.1875 C-33.05406122 28.65927481 -33.05406122 28.65927481 -36.18359375 23.98046875 C-38.39052441 18.62681398 -38.68501205 13.2925239 -37 7.75 C-34.61822459 2.37741072 -30.40208192 -0.79895904 -25.25 -3.375 C-16.04447949 -5.14529241 -8.5004962 -3.90520951 0 0 Z " fill="#007A9F" transform="translate(1026,77)"/>
<path d="M0 0 C1 1 1 1 1.09765625 3.94140625 C1.08605469 5.13636719 1.07445312 6.33132812 1.0625 7.5625 C1.05347656 8.76003906 1.04445313 9.95757812 1.03515625 11.19140625 C1.02355469 12.11824219 1.01195312 13.04507813 1 14 C-0.65 14 -2.3 14 -4 14 C-4.2475 12.906875 -4.495 11.81375 -4.75 10.6875 C-5.71515611 7.11327388 -5.71515611 7.11327388 -7.5625 5.125 C-11.21355543 3.43989749 -14.98203798 2.85144859 -19 3 C-21.42780416 3.97457147 -22.70261603 4.61764918 -24.3125 6.6875 C-25.32922829 10.10740423 -24.87281149 12.57109774 -24 16 C-20.34137385 19.59585561 -15.46269266 20.57230606 -10.6640625 21.9296875 C-5.1270592 23.62651109 -1.04114998 26.07062625 2.35546875 30.9453125 C4.10734936 36.53009553 3.67212052 42.9462984 1.875 48.4375 C-2.60279955 54.55715938 -7.63909396 57.50698604 -15 59 C-23.07795714 59.86212116 -30.70367773 58.64816113 -38 55 C-38 50.05 -38 45.1 -38 40 C-36.35 40 -34.7 40 -33 40 C-32.731875 41.258125 -32.46375 42.51625 -32.1875 43.8125 C-31.39041592 46.98960977 -30.81455019 49.08610587 -28 51 C-23.65146283 52.44951239 -19.53986929 52.64441526 -15 52 C-11.83697576 49.74069697 -10.46414752 48.13135959 -9 44.5625 C-9 40.69679076 -9.62001668 39.10720045 -12 36 C-14.61640876 34.75620636 -17.25104222 33.87673639 -20.0078125 32.98828125 C-25.85496448 31.05704176 -31.13737528 28.77392831 -35.625 24.5 C-37.7730113 19.03233487 -37.73041243 13.79165411 -37 8 C-34.35175315 2.40925665 -30.56152405 -0.99548077 -24.8125 -3.25 C-15.62344355 -5.05768324 -8.54159159 -3.8599933 0 0 Z " fill="#007A9F" transform="translate(1277,77)"/>
<path d="M0 0 C1.375 3.1875 1.375 3.1875 1 7 C-4.59398355 17.13287412 -16.33153679 21.79080345 -26.875 24.875 C-36.25696022 27.54844541 -47.66055803 30.47724511 -57.125 26.6875 C-60 25 -60 25 -62 22 C-62.09268706 17.92176915 -60.95436028 15.53125714 -58.3125 12.5625 C-46.15512784 1.32501081 -14.91582591 -10.75326984 0 0 Z " fill="#60AEC3" transform="translate(111,51)"/>
<path d="M0 0 C5.94 0 11.88 0 18 0 C18 29.37 18 58.74 18 89 C19.65 89.33 21.3 89.66 23 90 C23 91.32 23 92.64 23 94 C17.06 94 11.12 94 5 94 C5.00523682 91.9382251 5.01047363 89.8764502 5.01586914 87.75219727 C5.03258332 80.87115537 5.04354172 73.99011247 5.05181217 67.10905552 C5.05698796 62.94500703 5.06398675 58.78097969 5.07543945 54.61694336 C5.08645998 50.58390539 5.09231654 46.5508875 5.09487724 42.51783562 C5.09669753 40.99399437 5.10025003 39.47015397 5.10573006 37.94632149 C5.14256245 27.26036853 4.73704522 16.66070017 4 6 C2.68 5.67 1.36 5.34 0 5 C0 3.35 0 1.7 0 0 Z " fill="#007A9F" transform="translate(1496,40)"/>
<path d="M0 0 C0 5.94 0 11.88 0 18 C4.95 18 9.9 18 15 18 C15 20.31 15 22.62 15 25 C10.05 25 5.1 25 0 25 C-0.04959331 30.30190684 -0.085811 35.60367737 -0.10986328 40.90576172 C-0.11989476 42.70786899 -0.13352315 44.5099601 -0.15087891 46.31201172 C-0.175253 48.90856935 -0.18651178 51.50491097 -0.1953125 54.1015625 C-0.20563507 54.9017984 -0.21595764 55.7020343 -0.22659302 56.52651978 C-0.22749887 61.08590521 0.26397184 64.70498223 2 69 C6.82708841 70.21292293 6.82708841 70.21292293 11.25 68.5625 C11.8275 68.046875 12.405 67.53125 13 67 C13.99 67 14.98 67 16 67 C18 70 18 70 18 71.9375 C16.23808974 75.57143991 12.78377078 77.28649169 9.125 78.75 C2.62470461 79.51474063 -3.31085404 79.53256787 -9 76 C-13.5889259 69.13684451 -13.51969145 63.08328159 -13.3125 55 C-13.29703125 53.80914795 -13.2815625 52.6182959 -13.265625 51.39135742 C-13.12207823 42.57579144 -12.75339065 33.78507309 -12 25 C-14.64 25 -17.28 25 -20 25 C-20 22.69 -20 20.38 -20 18 C-17.36 18 -14.72 18 -12 18 C-12 12.72 -12 7.44 -12 2 C-10.7625 1.67 -9.525 1.34 -8.25 1 C-7.55390625 0.814375 -6.8578125 0.62875 -6.140625 0.4375 C-4 0 -4 0 0 0 Z " fill="#007A9F" transform="translate(1411,57)"/>
<path d="M0 0 C5.94 0 11.88 0 18 0 C18 29.37 18 58.74 18 89 C19.65 89.33 21.3 89.66 23 90 C23 91.32 23 92.64 23 94 C17.06 94 11.12 94 5 94 C5.00523682 91.44080811 5.01047363 88.88161621 5.01586914 86.24487305 C5.03242235 77.79910794 5.04347819 69.35334213 5.05181217 60.90756512 C5.05703573 55.78578014 5.06412388 50.66401176 5.07543945 45.54223633 C5.08628697 40.60152332 5.09228081 35.6608263 5.09487724 30.72010231 C5.09672812 28.83301352 5.10034229 26.94592562 5.10573006 25.05884361 C5.11296518 22.42031321 5.11398989 19.78184924 5.11352539 17.14331055 C5.11712067 16.3592836 5.12071594 15.57525665 5.12442017 14.76747131 C5.11832022 11.5755228 5.01707621 9.05122864 4 6 C1.98491642 5.26676204 1.98491642 5.26676204 0 5 C0 3.35 0 1.7 0 0 Z " fill="#007A9F" transform="translate(534,40)"/>
<path d="M0 0 C5.94 0 11.88 0 18 0 C17.99476318 2.62501465 17.98952637 5.2500293 17.98413086 7.95458984 C17.967587 16.61190577 17.95652557 25.26922238 17.94818783 33.92654991 C17.94296144 39.17727873 17.93586819 44.42799141 17.92456055 49.67871094 C17.91372304 54.74261255 17.90772132 59.8064986 17.90512276 64.87041092 C17.90327007 66.80577464 17.89965244 68.74113748 17.89426994 70.6764946 C17.88704808 73.37988907 17.88600955 76.08321859 17.88647461 78.78662109 C17.88287933 79.59294479 17.87928406 80.39926849 17.87557983 81.23002625 C17.79051357 85.24518037 17.79051357 85.24518037 19 89 C20.485 89.495 20.485 89.495 22 90 C22 91.32 22 92.64 22 94 C16.39 94 10.78 94 5 94 C4.67 65.29 4.34 36.58 4 7 C2.68 6.34 1.36 5.68 0 5 C0 3.35 0 1.7 0 0 Z " fill="#007A9F" transform="translate(888,40)"/>
<path d="M0 0 C1.1875 2.8125 1.1875 2.8125 1 6 C-2.17219592 13.45466041 -9.98871736 17.37987124 -17.2109375 20.296875 C-24.2234783 22.68633335 -30.56784365 24.15389453 -38 24.25 C-39.19625 24.27578125 -40.3925 24.3015625 -41.625 24.328125 C-45.54845687 23.9466778 -48.19404093 22.80595907 -51 20 C-51.54322461 16.10689028 -51.2274532 14.36392513 -49.125 11 C-38.73315758 -0.11956248 -13.84442139 -9.02897047 0 0 Z " fill="#60AEC3" transform="translate(177,18)"/>
<path d="M0 0 C0.68964844 -0.01611328 1.37929688 -0.03222656 2.08984375 -0.04882812 C6.52876348 -0.05307183 9.36131129 0.56639677 12.875 3.3125 C13.9375 5.5625 13.9375 5.5625 13.875 8.3125 C11.1594101 15.64459272 5.66525799 18.86618816 -1.125 22.3125 C-10.45980109 26.38151586 -20.03918962 27.55091256 -30.125 26.3125 C-33.05078125 24.98828125 -33.05078125 24.98828125 -35.125 23.3125 C-35.84162199 19.92483242 -35.80418601 17.70160441 -34.26171875 14.546875 C-26.96741879 4.52003542 -11.86573225 -0.05607624 0 0 Z " fill="#0DA4AC" transform="translate(290.125,2.6875)"/>
<path d="M0 0 C5.61 0 11.22 0 17 0 C17.495 26.235 17.495 26.235 18 53 C19.32 53.66 20.64 54.32 22 55 C22 56.32 22 57.64 22 59 C16.39 59 10.78 59 5 59 C4.67 41.51 4.34 24.02 4 6 C2.68 5.34 1.36 4.68 0 4 C0 2.68 0 1.36 0 0 Z " fill="#007A9F" transform="translate(1361,75)"/>
<path d="M0 0 C0 3.61429716 -0.02699538 5.89431293 -2.4609375 8.66015625 C-10.9643162 15.44550537 -22.17955688 18.8088008 -33 18 C-35.9375 17.375 -35.9375 17.375 -38 16 C-39.125 13.1875 -39.125 13.1875 -39 10 C-30.56105311 -0.74047785 -12.3402806 -7.40416836 0 0 Z " fill="#60AEC3" transform="translate(238,3)"/>
<path d="M0 0 C2.64233769 2.19257809 4.46669809 3.93339618 6 7 C6.39771327 11.77255923 6.47453429 14.08482672 4.25 18.375 C1.65931308 21.39746807 -0.17682429 22.84344824 -4.18359375 23.1875 C-8.50821206 22.82773972 -10.57945882 22.33471645 -14.0625 19.5625 C-16.5185361 16.03194811 -16.6471329 12.54552502 -16.42578125 8.33984375 C-15.66341102 4.1503046 -13.47408779 2.15821183 -10.25 -0.375 C-6.70861808 -1.3587172 -3.46067987 -1.08489567 0 0 Z " fill="#E20613" transform="translate(1746,1)"/>
<path d="M0 0 C0.66 0 1.32 0 2 0 C2 66.33 2 132.66 2 201 C1.34 201 0.68 201 0 201 C0 134.67 0 68.34 0 0 Z " fill="#6D6E71" transform="translate(1606,0)"/>
<path d="M0 0 C2.29296875 -0.00390625 2.29296875 -0.00390625 5 1 C6.55541083 3.52432974 7.40284132 6.25191869 8.3125 9.0625 C8.57611328 9.82111328 8.83972656 10.57972656 9.11132812 11.36132812 C9.75931881 13.23461029 10.38210159 15.1165777 11 17 C12.79183478 14.31224782 13.58882005 13.08666589 14 10 C13.47952137 7.38136104 13.47952137 7.38136104 12.5625 4.75 C12.27503906 3.85796875 11.98757813 2.9659375 11.69140625 2.046875 C11.34916016 1.03367188 11.34916016 1.03367188 11 0 C12.32 0 13.64 0 15 0 C15.66 0.99 16.32 1.98 17 3 C17.66 2.01 18.32 1.02 19 0 C19.99 0 20.98 0 22 0 C21.67 1.03125 21.34 2.0625 21 3.125 C19.53727253 8.27048102 19.7788442 12.81008785 21 18 C21.66 18 22.32 18 23 18 C23.18175781 17.28714844 23.36351562 16.57429688 23.55078125 15.83984375 C24.99782778 10.32622542 26.58891366 5.16661358 29 0 C30.32 0.33 31.64 0.66 33 1 C30.03 9.25 27.06 17.5 24 26 C22.68 26 21.36 26 20 26 C19.01 23.36 18.02 20.72 17 18 C15.22293791 20.66559313 14.12451727 23.0280615 13 26 C11.14746094 25.81616211 11.14746094 25.81616211 9 25 C7.71972656 22.80688477 7.71972656 22.80688477 6.640625 19.94140625 C6.05087891 18.40323242 6.05087891 18.40323242 5.44921875 16.83398438 C5.05347656 15.75439453 4.65773438 14.67480469 4.25 13.5625 C3.83878906 12.48677734 3.42757813 11.41105469 3.00390625 10.30273438 C0 2.35385953 0 2.35385953 0 0 Z " fill="#707276" transform="translate(1763,174)"/>
<path d="M0 0 C3.70029283 2.11445305 5.38493686 4.1266451 7 8 C7.7164344 13.04836331 7.54701546 16.94369429 5.1875 21.5 C2.7796903 24.25178251 1.16408346 25.84502914 -2.5234375 26.3359375 C-10.22742475 26.44147157 -10.22742475 26.44147157 -14.0625 24.25 C-17.89611366 19.79806156 -18.43474814 16.2410951 -18.32421875 10.4765625 C-17.85052678 6.85824074 -16.37324418 4.71227906 -14 2 C-9.54422653 -0.97051564 -5.22557394 -0.62737491 0 0 Z M-13 7 C-14.31929949 11.31185687 -14.52357472 14.76959942 -12.75 18.9375 C-10.98631509 21.2081442 -10.98631509 21.2081442 -8 23 C-3.35551341 22.80825946 -3.35551341 22.80825946 0.6640625 20.72265625 C3.10317822 17.57748072 3.12264181 13.87684395 3 10 C1.43818681 6.329739 0.34089404 5.2272627 -3 3 C-7.61206308 2.27177951 -9.95057279 3.52704124 -13 7 Z " fill="#707276" transform="translate(1933,174)"/>
<path d="M0 0 C3.70029283 2.11445305 5.38493686 4.1266451 7 8 C7.7164344 13.04836331 7.54701546 16.94369429 5.1875 21.5 C2.7796903 24.25178251 1.16408346 25.84502914 -2.5234375 26.3359375 C-10.22742475 26.44147157 -10.22742475 26.44147157 -14.0625 24.25 C-17.89611366 19.79806156 -18.43474814 16.2410951 -18.32421875 10.4765625 C-17.85052678 6.85824074 -16.37324418 4.71227906 -14 2 C-9.54422653 -0.97051564 -5.22557394 -0.62737491 0 0 Z M-13 7 C-14.31929949 11.31185687 -14.52357472 14.76959942 -12.75 18.9375 C-10.98631509 21.2081442 -10.98631509 21.2081442 -8 23 C-3.35551341 22.80825946 -3.35551341 22.80825946 0.6640625 20.72265625 C3.10317822 17.57748072 3.12264181 13.87684395 3 10 C1.43818681 6.329739 0.34089404 5.2272627 -3 3 C-7.61206308 2.27177951 -9.95057279 3.52704124 -13 7 Z " fill="#707276" transform="translate(1816,174)"/>
<path d="M0 0 C3.70029283 2.11445305 5.38493686 4.1266451 7 8 C7.7164344 13.04836331 7.54701546 16.94369429 5.1875 21.5 C2.7796903 24.25178251 1.16408346 25.84502914 -2.5234375 26.3359375 C-10.22742475 26.44147157 -10.22742475 26.44147157 -14.0625 24.25 C-17.89611366 19.79806156 -18.43474814 16.2410951 -18.32421875 10.4765625 C-17.85052678 6.85824074 -16.37324418 4.71227906 -14 2 C-9.54422653 -0.97051564 -5.22557394 -0.62737491 0 0 Z M-13 7 C-14.31929949 11.31185687 -14.52357472 14.76959942 -12.75 18.9375 C-10.98631509 21.2081442 -10.98631509 21.2081442 -8 23 C-3.35551341 22.80825946 -3.35551341 22.80825946 0.6640625 20.72265625 C3.10317822 17.57748072 3.12264181 13.87684395 3 10 C1.43818681 6.329739 0.34089404 5.2272627 -3 3 C-7.61206308 2.27177951 -9.95057279 3.52704124 -13 7 Z " fill="#707276" transform="translate(511,174)"/>
<path d="M0 0 C5.61 0 11.22 0 17 0 C17 5.28 17 10.56 17 16 C11.39 16 5.78 16 0 16 C0 10.72 0 5.44 0 0 Z " fill="#00993F" transform="translate(1988,51)"/>
<path d="M0 0 C5 0 5 0 6.66918945 1.65234375 C7.14573975 2.40644531 7.62229004 3.16054687 8.11328125 3.9375 C8.63857422 4.74960938 9.16386719 5.56171875 9.70507812 6.3984375 C10.23552734 7.25695312 10.76597656 8.11546875 11.3125 9 C11.86228516 9.85851562 12.41207031 10.71703125 12.97851562 11.6015625 C14.33476678 13.72439039 15.66946586 15.86095948 17 18 C17.33 12.06 17.66 6.12 18 0 C18.99 0 19.98 0 21 0 C21 8.58 21 17.16 21 26 C16 25 16 25 14.33081055 23.23413086 C13.85426025 22.48526611 13.37770996 21.73640137 12.88671875 20.96484375 C12.0987793 19.75151367 12.0987793 19.75151367 11.29492188 18.51367188 C10.76447266 17.66353516 10.23402344 16.81339844 9.6875 15.9375 C8.86282227 14.65649414 8.86282227 14.65649414 8.02148438 13.34960938 C6.66730612 11.24180148 5.33182676 9.12200149 4 7 C3.67 13.27 3.34 19.54 3 26 C2.01 26 1.02 26 0 26 C0 17.42 0 8.84 0 0 Z " fill="#707276" transform="translate(1694,174)"/>
<path d="M0 0 C5 0 5 0 6.66918945 1.65234375 C7.14573975 2.40644531 7.62229004 3.16054687 8.11328125 3.9375 C8.63857422 4.74960938 9.16386719 5.56171875 9.70507812 6.3984375 C10.23552734 7.25695312 10.76597656 8.11546875 11.3125 9 C11.86228516 9.85851562 12.41207031 10.71703125 12.97851562 11.6015625 C14.33476678 13.72439039 15.66946586 15.86095948 17 18 C17.33 12.06 17.66 6.12 18 0 C18.99 0 19.98 0 21 0 C21 8.58 21 17.16 21 26 C16 25 16 25 14.33081055 23.23413086 C13.85426025 22.48526611 13.37770996 21.73640137 12.88671875 20.96484375 C12.0987793 19.75151367 12.0987793 19.75151367 11.29492188 18.51367188 C10.76447266 17.66353516 10.23402344 16.81339844 9.6875 15.9375 C8.86282227 14.65649414 8.86282227 14.65649414 8.02148438 13.34960938 C6.66730612 11.24180148 5.33182676 9.12200149 4 7 C3.67 13.27 3.34 19.54 3 26 C2.01 26 1.02 26 0 26 C0 17.42 0 8.84 0 0 Z " fill="#707276" transform="translate(909,174)"/>
<path d="M0 0 C5 0 5 0 6.66918945 1.65234375 C7.14573975 2.40644531 7.62229004 3.16054687 8.11328125 3.9375 C8.63857422 4.74960938 9.16386719 5.56171875 9.70507812 6.3984375 C10.23552734 7.25695312 10.76597656 8.11546875 11.3125 9 C11.86228516 9.85851562 12.41207031 10.71703125 12.97851562 11.6015625 C14.33476678 13.72439039 15.66946586 15.86095948 17 18 C17.33 12.06 17.66 6.12 18 0 C18.99 0 19.98 0 21 0 C21 8.58 21 17.16 21 26 C16 25 16 25 14.33081055 23.23413086 C13.85426025 22.48526611 13.37770996 21.73640137 12.88671875 20.96484375 C12.0987793 19.75151367 12.0987793 19.75151367 11.29492188 18.51367188 C10.76447266 17.66353516 10.23402344 16.81339844 9.6875 15.9375 C8.86282227 14.65649414 8.86282227 14.65649414 8.02148438 13.34960938 C6.66730612 11.24180148 5.33182676 9.12200149 4 7 C3.67 13.27 3.34 19.54 3 26 C2.01 26 1.02 26 0 26 C0 17.42 0 8.84 0 0 Z " fill="#707276" transform="translate(879,174)"/>
<path d="M0 0 C5 0 5 0 6.66918945 1.65234375 C7.14573975 2.40644531 7.62229004 3.16054687 8.11328125 3.9375 C8.63857422 4.74960938 9.16386719 5.56171875 9.70507812 6.3984375 C10.23552734 7.25695312 10.76597656 8.11546875 11.3125 9 C11.86228516 9.85851562 12.41207031 10.71703125 12.97851562 11.6015625 C14.33476678 13.72439039 15.66946586 15.86095948 17 18 C17.33 12.06 17.66 6.12 18 0 C18.99 0 19.98 0 21 0 C21 8.58 21 17.16 21 26 C16 25 16 25 14.33081055 23.23413086 C13.85426025 22.48526611 13.37770996 21.73640137 12.88671875 20.96484375 C12.0987793 19.75151367 12.0987793 19.75151367 11.29492188 18.51367188 C10.76447266 17.66353516 10.23402344 16.81339844 9.6875 15.9375 C8.86282227 14.65649414 8.86282227 14.65649414 8.02148438 13.34960938 C6.66730612 11.24180148 5.33182676 9.12200149 4 7 C3.67 13.27 3.34 19.54 3 26 C2.01 26 1.02 26 0 26 C0 17.42 0 8.84 0 0 Z " fill="#707276" transform="translate(639,174)"/>
<path d="M0 0 C5 0 5 0 6.66918945 1.65234375 C7.14573975 2.40644531 7.62229004 3.16054687 8.11328125 3.9375 C8.63857422 4.74960938 9.16386719 5.56171875 9.70507812 6.3984375 C10.23552734 7.25695312 10.76597656 8.11546875 11.3125 9 C11.86228516 9.85851562 12.41207031 10.71703125 12.97851562 11.6015625 C14.33476678 13.72439039 15.66946586 15.86095948 17 18 C17.33 12.06 17.66 6.12 18 0 C18.99 0 19.98 0 21 0 C21 8.58 21 17.16 21 26 C16 25 16 25 14.33081055 23.23413086 C13.85426025 22.48526611 13.37770996 21.73640137 12.88671875 20.96484375 C12.0987793 19.75151367 12.0987793 19.75151367 11.29492188 18.51367188 C10.76447266 17.66353516 10.23402344 16.81339844 9.6875 15.9375 C8.86282227 14.65649414 8.86282227 14.65649414 8.02148438 13.34960938 C6.66730612 11.24180148 5.33182676 9.12200149 4 7 C3.67 13.27 3.34 19.54 3 26 C2.01 26 1.02 26 0 26 C0 17.42 0 8.84 0 0 Z " fill="#707276" transform="translate(557,174)"/>
<path d="M0 0 C4.29 0 8.58 0 13 0 C16 3 16 3 16.4375 6.875 C16.30875009 10.97985009 14.92477319 13.07522681 12 16 C13.98 19.3 15.96 22.6 18 26 C16.35 26 14.7 26 13 26 C11.0859375 23.84765625 11.0859375 23.84765625 9.375 21.0625 C7.04979785 16.98733914 7.04979785 16.98733914 3 15 C3 18.63 3 22.26 3 26 C2.01 26 1.02 26 0 26 C0 17.42 0 8.84 0 0 Z M3 3 C3 5.97 3 8.94 3 12 C6.41656024 12.16677282 6.41656024 12.16677282 10 12 C12.33278733 10.10892859 12.33278733 10.10892859 12.1875 6.9375 C12.33187793 4.11166864 12.33187793 4.11166864 11 3 C8.32941149 2.85884839 5.67567762 2.95752893 3 3 Z " fill="#707276" transform="translate(1830,174)"/>
<path d="M0 0 C4.29 0 8.58 0 13 0 C16 3 16 3 16.4375 6.875 C16.30875009 10.97985009 14.92477319 13.07522681 12 16 C13.98 19.3 15.96 22.6 18 26 C16.35 26 14.7 26 13 26 C11.0859375 23.84765625 11.0859375 23.84765625 9.375 21.0625 C7.04979785 16.98733914 7.04979785 16.98733914 3 15 C3 18.63 3 22.26 3 26 C2.01 26 1.02 26 0 26 C0 17.42 0 8.84 0 0 Z M3 3 C3 5.97 3 8.94 3 12 C6.41656024 12.16677282 6.41656024 12.16677282 10 12 C12.33278733 10.10892859 12.33278733 10.10892859 12.1875 6.9375 C12.33187793 4.11166864 12.33187793 4.11166864 11 3 C8.32941149 2.85884839 5.67567762 2.95752893 3 3 Z " fill="#707276" transform="translate(759,174)"/>
<path d="M0 0 C1.65 0 3.3 0 5 0 C7.97 8.58 10.94 17.16 14 26 C12.35 26 10.7 26 9 26 C8.34 23.69 7.68 21.38 7 19 C3.7 19 0.4 19 -3 19 C-3.33 20.98 -3.66 22.96 -4 25 C-5.65 25.33 -7.3 25.66 -9 26 C-6.56696874 17.12157015 -3.29163506 8.58594775 0 0 Z M2 6 C1.01 9.3 0.02 12.6 -1 16 C1.31 16 3.62 16 6 16 C5.01 12.7 4.02 9.4 3 6 C2.67 6 2.34 6 2 6 Z " fill="#707276" transform="translate(2029,174)"/>
<path d="M0 0 C1.65 0 3.3 0 5 0 C7.97 8.58 10.94 17.16 14 26 C12.35 26 10.7 26 9 26 C8.34 23.69 7.68 21.38 7 19 C3.7 19 0.4 19 -3 19 C-3.33 20.98 -3.66 22.96 -4 25 C-5.65 25.33 -7.3 25.66 -9 26 C-6.56696874 17.12157015 -3.29163506 8.58594775 0 0 Z M2 6 C1.01 9.3 0.02 12.6 -1 16 C1.31 16 3.62 16 6 16 C5.01 12.7 4.02 9.4 3 6 C2.67 6 2.34 6 2 6 Z " fill="#707276" transform="translate(943,174)"/>
<path d="M0 0 C1.65 0 3.3 0 5 0 C7.97 8.58 10.94 17.16 14 26 C12.35 26 10.7 26 9 26 C8.34 23.69 7.68 21.38 7 19 C3.7 19 0.4 19 -3 19 C-3.33 20.98 -3.66 22.96 -4 25 C-5.65 25.33 -7.3 25.66 -9 26 C-6.56696874 17.12157015 -3.29163506 8.58594775 0 0 Z M2 6 C1.01 9.3 0.02 12.6 -1 16 C1.31 16 3.62 16 6 16 C5.01 12.7 4.02 9.4 3 6 C2.67 6 2.34 6 2 6 Z " fill="#707276" transform="translate(673,174)"/>
<path d="M0 0 C1.65 0 3.3 0 5 0 C7.97 8.58 10.94 17.16 14 26 C12.35 26 10.7 26 9 26 C8.34 23.69 7.68 21.38 7 19 C3.7 19 0.4 19 -3 19 C-3.33 20.98 -3.66 22.96 -4 25 C-5.65 25.33 -7.3 25.66 -9 26 C-6.56696874 17.12157015 -3.29163506 8.58594775 0 0 Z M2 6 C1.01 9.3 0.02 12.6 -1 16 C1.31 16 3.62 16 6 16 C5.01 12.7 4.02 9.4 3 6 C2.67 6 2.34 6 2 6 Z " fill="#707276" transform="translate(620,174)"/>
<path d="M0 0 C1.44246094 0.00966797 1.44246094 0.00966797 2.9140625 0.01953125 C5.375 0.1875 5.375 0.1875 7.375 1.1875 C7.045 2.5075 6.715 3.8275 6.375 5.1875 C5.71113281 5.05730469 5.04726563 4.92710937 4.36328125 4.79296875 C-1.46228015 3.84057635 -1.46228015 3.84057635 -6.75 6.125 C-9.32797345 10.33568997 -9.32316692 12.30033159 -8.625 17.1875 C-6.75484906 19.61869623 -5.34361655 20.82819173 -2.625 22.1875 C-0.62539988 22.227492 1.37547242 22.23096799 3.375 22.1875 C3.705 19.5475 4.035 16.9075 4.375 14.1875 C5.365 14.1875 6.355 14.1875 7.375 14.1875 C7.40187279 15.99992052 7.42133715 17.81245233 7.4375 19.625 C7.44910156 20.63433594 7.46070313 21.64367187 7.47265625 22.68359375 C7.375 25.1875 7.375 25.1875 6.375 26.1875 C-4.82689292 27.25019902 -4.82689292 27.25019902 -9.25 24.4375 C-12.11012436 21.7279085 -13.40503886 19.73745872 -13.9609375 15.8203125 C-14.05000354 10.10227243 -13.61886657 6.62512952 -9.625 2.1875 C-6.38493843 0.11470952 -3.8066884 -0.05643339 0 0 Z " fill="#707276" transform="translate(598.625,173.8125)"/>
<path d="M0 0 C0.99 0 1.98 0 3 0 C3.33 3.3 3.66 6.6 4 10 C4.51949219 9.278125 5.03898437 8.55625 5.57421875 7.8125 C6.27160156 6.884375 6.96898437 5.95625 7.6875 5 C8.37199219 4.071875 9.05648438 3.14375 9.76171875 2.1875 C12 0 12 0 14.76953125 -0.3125 C15.50558594 -0.209375 16.24164062 -0.10625 17 0 C15.00227585 3.06793351 13.11223483 5.87259831 10.6875 8.625 C8.77504612 10.77018174 8.77504612 10.77018174 9.171875 12.859375 C10.21589171 15.5580597 11.71997892 17.39908564 13.5625 19.625 C17 23.78873239 17 23.78873239 17 26 C14.76953125 26.34375 14.76953125 26.34375 12 26 C9.76171875 23.59375 9.76171875 23.59375 7.6875 20.5 C6.99011719 19.4790625 6.29273438 18.458125 5.57421875 17.40625 C5.05472656 16.6121875 4.53523438 15.818125 4 15 C3.67 18.63 3.34 22.26 3 26 C2.01 26 1.02 26 0 26 C0 17.42 0 8.84 0 0 Z " fill="#707276" transform="translate(1853,174)"/>
<path d="M0 0 C0.86625 -0.00773438 1.7325 -0.01546875 2.625 -0.0234375 C5.39380767 0.44106642 6.26929299 1.22300246 8 3.375 C4.64672361 5.61051759 4.09256343 5.54783528 0.3125 5 C-0.89986328 4.83371094 -0.89986328 4.83371094 -2.13671875 4.6640625 C-3.05904297 4.52097656 -3.05904297 4.52097656 -4 4.375 C-3.88120723 6.27915458 -3.88120723 6.27915458 -3 8.375 C-0.68592386 10.09256584 -0.68592386 10.09256584 2.0625 11.625 C6.77414992 14.74815081 6.77414992 14.74815081 7.765625 17.5 C7.82989165 20.41342142 7.48720746 22.70028683 5.76171875 25.08984375 C3.41120104 26.80452296 1.88493222 26.7433097 -1 26.6875 C-1.86625 26.68363281 -2.7325 26.67976563 -3.625 26.67578125 C-6 26.375 -6 26.375 -9 24.375 C-8.34 23.055 -7.68 21.735 -7 20.375 C-6.1646875 20.9009375 -6.1646875 20.9009375 -5.3125 21.4375 C-2.46113217 22.59345993 -0.91482778 22.18467438 2 21.375 C2 20.055 2 18.735 2 17.375 C0.09058404 15.67909114 0.09058404 15.67909114 -2.375 14.3125 C-5.52861474 12.42533689 -6.91569256 11.50146116 -9 8.375 C-8.79487456 5.63999412 -8.4276769 3.93893988 -6.76171875 1.7421875 C-4.4225266 -0.07315009 -2.93418314 -0.02619806 0 0 Z " fill="#707276" transform="translate(1954,173.625)"/>
<path d="M0 0 C0.86625 -0.00773438 1.7325 -0.01546875 2.625 -0.0234375 C5.39380767 0.44106642 6.26929299 1.22300246 8 3.375 C4.64672361 5.61051759 4.09256343 5.54783528 0.3125 5 C-0.89986328 4.83371094 -0.89986328 4.83371094 -2.13671875 4.6640625 C-3.05904297 4.52097656 -3.05904297 4.52097656 -4 4.375 C-3.88120723 6.27915458 -3.88120723 6.27915458 -3 8.375 C-0.68592386 10.09256584 -0.68592386 10.09256584 2.0625 11.625 C6.77414992 14.74815081 6.77414992 14.74815081 7.765625 17.5 C7.82989165 20.41342142 7.48720746 22.70028683 5.76171875 25.08984375 C3.41120104 26.80452296 1.88493222 26.7433097 -1 26.6875 C-1.86625 26.68363281 -2.7325 26.67976563 -3.625 26.67578125 C-6 26.375 -6 26.375 -9 24.375 C-8.34 23.055 -7.68 21.735 -7 20.375 C-6.1646875 20.9009375 -6.1646875 20.9009375 -5.3125 21.4375 C-2.46113217 22.59345993 -0.91482778 22.18467438 2 21.375 C2 20.055 2 18.735 2 17.375 C0.09058404 15.67909114 0.09058404 15.67909114 -2.375 14.3125 C-5.52861474 12.42533689 -6.91569256 11.50146116 -9 8.375 C-8.79487456 5.63999412 -8.4276769 3.93893988 -6.76171875 1.7421875 C-4.4225266 -0.07315009 -2.93418314 -0.02619806 0 0 Z " fill="#707276" transform="translate(451,173.625)"/>
<path d="M0 0 C0.99 0 1.98 0 3 0 C3 3.96 3 7.92 3 12 C7.95 12 12.9 12 18 12 C18 8.04 18 4.08 18 0 C18.99 0 19.98 0 21 0 C21 8.58 21 17.16 21 26 C20.01 26 19.02 26 18 26 C18 22.37 18 18.74 18 15 C13.05 15 8.1 15 3 15 C3 18.63 3 22.26 3 26 C2.01 26 1.02 26 0 26 C0 17.42 0 8.84 0 0 Z " fill="#707276" transform="translate(1886,174)"/>
<path d="M0 0 C0.99 0 1.98 0 3 0 C3 3.96 3 7.92 3 12 C7.95 12 12.9 12 18 12 C18 8.04 18 4.08 18 0 C18.99 0 19.98 0 21 0 C21 8.58 21 17.16 21 26 C20.01 26 19.02 26 18 26 C18 22.37 18 18.74 18 15 C13.05 15 8.1 15 3 15 C3 18.63 3 22.26 3 26 C2.01 26 1.02 26 0 26 C0 17.42 0 8.84 0 0 Z " fill="#707276" transform="translate(827,174)"/>
<path d="M0 0 C0.99 0 1.98 0 3 0 C3 3.96 3 7.92 3 12 C7.95 12 12.9 12 18 12 C18 8.04 18 4.08 18 0 C18.99 0 19.98 0 21 0 C21 8.58 21 17.16 21 26 C20.01 26 19.02 26 18 26 C18 22.37 18 18.74 18 15 C13.05 15 8.1 15 3 15 C3 18.63 3 22.26 3 26 C2.01 26 1.02 26 0 26 C0 17.42 0 8.84 0 0 Z " fill="#707276" transform="translate(465,174)"/>
<path d="M0 0 C2.73883355 1.59029045 2.94967699 2.83465297 3.875 5.875 C4.0235372 9.58842999 3.18476995 11.05896353 1 14 C0 15 0 15 -3.8125 15.3125 C-6.8307722 15.25831199 -7.86175828 15.08640108 -10.5 13.4375 C-12.58392818 10.05111671 -12.55802097 7.90614682 -12 4 C-8.93537785 -0.980011 -5.34000819 -0.59333424 0 0 Z " fill="#007A9F" transform="translate(1376,48)"/>
<path d="M0 0 C0.99 0 1.98 0 3 0 C3.02578125 1.25296875 3.0515625 2.5059375 3.078125 3.796875 C3.13441169 5.44795123 3.1917589 7.09899155 3.25 8.75 C3.26417969 9.575 3.27835938 10.4 3.29296875 11.25 C3.48939366 16.25915883 3.48939366 16.25915883 5.8828125 20.58203125 C7.93903533 22.25363252 7.93903533 22.25363252 10.625 21.9375 C13.32289761 21.13344454 13.32289761 21.13344454 15 18 C15.36351504 15.97457852 15.36351504 15.97457852 15.4140625 13.76953125 C15.45273437 12.96708984 15.49140625 12.16464844 15.53125 11.33789062 C15.57765625 10.08782227 15.57765625 10.08782227 15.625 8.8125 C15.66367187 7.96751953 15.70234375 7.12253906 15.7421875 6.25195312 C15.83636279 4.16832476 15.91926675 2.08419247 16 0 C16.99 0 17.98 0 19 0 C19.14533755 3.582906 19.23407931 7.16505417 19.3125 10.75 C19.35439453 11.76578125 19.39628906 12.7815625 19.43945312 13.828125 C19.56280905 21.32816512 19.56280905 21.32816512 16.76171875 24.671875 C14.07184546 25.96544914 12.45600618 26.54163389 9.5 26.5 C8.40171875 26.51546875 8.40171875 26.51546875 7.28125 26.53125 C3.75066195 25.70905826 2.35677741 24.81332592 0 22 C-0.6221871 18.234576 -0.46935388 14.55310328 -0.3125 10.75 C-0.28994141 9.71875 -0.26738281 8.6875 -0.24414062 7.625 C-0.18527163 5.08185935 -0.10310065 2.54166887 0 0 Z " fill="#707276" transform="translate(732,174)"/>
<path d="M0 0 C4.62 0 9.24 0 14 0 C14 0.99 14 1.98 14 3 C10.7 3 7.4 3 4 3 C4 5.97 4 8.94 4 12 C6.97 12 9.94 12 13 12 C13 12.99 13 13.98 13 15 C10.03 15 7.06 15 4 15 C4 17.64 4 20.28 4 23 C7.63 23 11.26 23 15 23 C15 23.99 15 24.98 15 26 C10.05 26 5.1 26 0 26 C0 17.42 0 8.84 0 0 Z " fill="#707276" transform="translate(1724,174)"/>
<path d="M0 0 C4.62 0 9.24 0 14 0 C14 0.99 14 1.98 14 3 C10.7 3 7.4 3 4 3 C4 5.97 4 8.94 4 12 C6.97 12 9.94 12 13 12 C13 12.99 13 13.98 13 15 C10.03 15 7.06 15 4 15 C4 17.64 4 20.28 4 23 C7.63 23 11.26 23 15 23 C15 23.99 15 24.98 15 26 C10.05 26 5.1 26 0 26 C0 17.42 0 8.84 0 0 Z " fill="#707276" transform="translate(857,174)"/>
<path d="M0 0 C4.29 0 8.58 0 13 0 C16 3 16 3 16.3984375 5.12109375 C16.33529845 11.36133628 16.33529845 11.36133628 14.6875 14.5 C11.1882905 17.61040844 7.44317953 17.08383358 3 17 C3 19.97 3 22.94 3 26 C2.01 26 1.02 26 0 26 C0 17.42 0 8.84 0 0 Z M3 3 C3 6.3 3 9.6 3 13 C5.97788882 13.90991047 7.43497994 14.25960381 10.3125 12.9375 C12.28568869 11.03727981 12.28568869 11.03727981 12.375 7.9375 C12.28930236 4.88138759 12.28930236 4.88138759 10 3 C6.41656024 2.83322718 6.41656024 2.83322718 3 3 Z " fill="#707276" transform="translate(1968,174)"/>
<path d="M0 0 C0.85722656 -0.01675781 1.71445312 -0.03351563 2.59765625 -0.05078125 C5.35854781 0.37787136 6.21528897 1.17244105 7.9375 3.3125 C6.375 4.375 6.375 4.375 3.9375 5.3125 C2.803125 5.085625 1.66875 4.85875 0.5 4.625 C-3.15984262 3.92530352 -3.15984262 3.92530352 -6 6.3125 C-8.54242818 10.01057735 -8.62331709 11.90608003 -8.0625 16.3125 C-7.20400228 18.95953462 -6.647154 19.9522198 -4.28125 21.41015625 C-1.77722835 22.42851717 -0.00187392 22.51659923 2.6875 22.4375 C3.88632812 22.41042969 3.88632812 22.41042969 5.109375 22.3828125 C5.71265625 22.35960937 6.3159375 22.33640625 6.9375 22.3125 C6.9375 23.3025 6.9375 24.2925 6.9375 25.3125 C3.22736322 27.16756839 -1.01342823 26.76584699 -5.0625 26.3125 C-9.19224965 24.24762518 -11.35777061 22.5666445 -13.0625 18.3125 C-13.7746481 13.29434011 -13.59162753 9.37075505 -11.3125 4.8125 C-7.85792672 0.97408524 -5.12385482 0.02318486 0 0 Z " fill="#707276" transform="translate(814.0625,173.6875)"/>
<path d="M0 0 C6.93 0 13.86 0 21 0 C21 0.99 21 1.98 21 3 C18.03 3 15.06 3 12 3 C12 10.59 12 18.18 12 26 C11.01 26 10.02 26 9 26 C9 18.41 9 10.82 9 3 C6.03 3 3.06 3 0 3 C0 2.01 0 1.02 0 0 Z " fill="#707276" transform="translate(1998,174)"/>
<path d="M0 0 C6.93 0 13.86 0 21 0 C21 0.99 21 1.98 21 3 C18.03 3 15.06 3 12 3 C12 10.59 12 18.18 12 26 C11.01 26 10.02 26 9 26 C9 18.41 9 10.82 9 3 C6.03 3 3.06 3 0 3 C0 2.01 0 1.02 0 0 Z " fill="#707276" transform="translate(1741,174)"/>
<path d="M0 0 C0.99 0 1.98 0 3 0 C3 7.59 3 15.18 3 23 C6.96 23 10.92 23 15 23 C15 23.99 15 24.98 15 26 C10.05 26 5.1 26 0 26 C0 17.42 0 8.84 0 0 Z " fill="#707276" transform="translate(2047,174)"/>
<path d="M0 0 C0.99 0 1.98 0 3 0 C3 7.59 3 15.18 3 23 C6.96 23 10.92 23 15 23 C15 23.99 15 24.98 15 26 C10.05 26 5.1 26 0 26 C0 17.42 0 8.84 0 0 Z " fill="#707276" transform="translate(712,174)"/>
<path d="M0 0 C0.99 0 1.98 0 3 0 C3 7.59 3 15.18 3 23 C6.96 23 10.92 23 15 23 C15 23.99 15 24.98 15 26 C10.05 26 5.1 26 0 26 C0 17.42 0 8.84 0 0 Z " fill="#707276" transform="translate(692,174)"/>
<path d="M0 0 C0.99 0 1.98 0 3 0 C3 7.59 3 15.18 3 23 C6.96 23 10.92 23 15 23 C15 23.99 15 24.98 15 26 C10.05 26 5.1 26 0 26 C0 17.42 0 8.84 0 0 Z " fill="#707276" transform="translate(525,174)"/>
<path d="M0 0 C0.99 0 1.98 0 3 0 C3 8.58 3 17.16 3 26 C2.01 26 1.02 26 0 26 C0 17.42 0 8.84 0 0 Z " fill="#707276" transform="translate(1990,174)"/>
<path d="M0 0 C0.99 0 1.98 0 3 0 C3 8.58 3 17.16 3 26 C2.01 26 1.02 26 0 26 C0 17.42 0 8.84 0 0 Z " fill="#707276" transform="translate(962,174)"/>
<path d="M0 0 C0.99 0 1.98 0 3 0 C3 8.58 3 17.16 3 26 C2.01 26 1.02 26 0 26 C0 17.42 0 8.84 0 0 Z " fill="#707276" transform="translate(545,174)"/>
<path d="M0 0 C1.65 0 3.3 0 5 0 C5.17942163 3.94727588 5.09350689 6.5980513 3 10 C2.01 10 1.02 10 0 10 C0 6.7 0 3.4 0 0 Z " fill="#707276" transform="translate(780,196)"/>
</svg>
