<?xml version="1.0" encoding="UTF-8"?>
<svg version="1.1" xmlns="http://www.w3.org/2000/svg" width="148" height="108">
<path d="M0 0 C48.84 0 97.68 0 148 0 C148 35.64 148 71.28 148 108 C99.16 108 50.32 108 0 108 C0 72.36 0 36.72 0 0 Z " fill="#FCFCFC" transform="translate(0,0)"/>
<path d="M0 0 C0.84433594 0.00016113 1.68867187 0.00032227 2.55859375 0.00048828 C8.64363162 0.1123456 13.54419668 0.92091885 18.6875 4.375 C19.6775 5.035 20.6675 5.695 21.6875 6.375 C22.43778461 12.59164392 21.48015323 17.32151835 17.6875 22.375 C14.87295387 24.99048196 11.82803432 27.16994399 8.6875 29.375 C7.20623659 30.5181215 5.72692589 31.66377986 4.25 32.8125 C0.93815274 35.375 0.93815274 35.375 -1.3125 35.375 C-1.3125 37.025 -1.3125 38.675 -1.3125 40.375 C-3.6225 40.375 -5.9325 40.375 -8.3125 40.375 C-8.3125 39.715 -8.3125 39.055 -8.3125 38.375 C-10.2925 38.87 -10.2925 38.87 -12.3125 39.375 C-12.3125 40.035 -12.3125 40.695 -12.3125 41.375 C-12.9725 41.375 -13.6325 41.375 -14.3125 41.375 C-14.3125 42.035 -14.3125 42.695 -14.3125 43.375 C-12.3325 43.705 -10.3525 44.035 -8.3125 44.375 C-8.3125 45.695 -8.3125 47.015 -8.3125 48.375 C-10.6225 48.375 -12.9325 48.375 -15.3125 48.375 C-15.3125 53.325 -15.3125 58.275 -15.3125 63.375 C-16.6325 63.375 -17.9525 63.375 -19.3125 63.375 C-19.3125 57.105 -19.3125 50.835 -19.3125 44.375 C-18.6525 44.375 -17.9925 44.375 -17.3125 44.375 C-17.3125 43.055 -17.3125 41.735 -17.3125 40.375 C-18.99279297 40.42720703 -18.99279297 40.42720703 -20.70703125 40.48046875 C-22.17967251 40.50860839 -23.65232998 40.53590837 -25.125 40.5625 C-25.86298828 40.58763672 -26.60097656 40.61277344 -27.36132812 40.63867188 C-32.83103689 40.71292132 -32.83103689 40.71292132 -35.19921875 39.05078125 C-35.56660156 38.49777344 -35.93398437 37.94476563 -36.3125 37.375 C-36.9725 36.385 -37.6325 35.395 -38.3125 34.375 C-38.61328125 31.96484375 -38.61328125 31.96484375 -38.625 29.3125 C-38.64175781 28.43464844 -38.65851563 27.55679688 -38.67578125 26.65234375 C-38.55589844 25.90082031 -38.43601562 25.14929688 -38.3125 24.375 C-34.78570901 22.02380601 -33.28370515 22.16056548 -29.125 22.25 C-28.03832031 22.26804687 -26.95164062 22.28609375 -25.83203125 22.3046875 C-24.58486328 22.33949219 -24.58486328 22.33949219 -23.3125 22.375 C-23.828125 21.199375 -24.34375 20.02375 -24.875 18.8125 C-26.42752093 14.66263364 -26.50488794 11.71869893 -25.3125 7.375 C-23.04799279 3.72662727 -19.28486312 3.38492283 -15.3125 2.375 C-14.43851563 2.03339844 -13.56453125 1.69179687 -12.6640625 1.33984375 C-8.37857115 0.10614169 -4.43848463 -0.00785109 0 0 Z " fill="#EB5B42" transform="translate(119.3125,7.625)"/>
<path d="M0 0 C3.03230932 3.36996822 3.03230932 3.36996822 2.875 6.4375 C1.90505273 9.27805986 0.74479561 11.55728615 -1 14 C-1.66 14 -2.32 14 -3 14 C-3.2784375 15.051875 -3.2784375 15.051875 -3.5625 16.125 C-5.76564444 20.53128888 -9.59001489 23.79500745 -14 26 C-17.86474599 26.62182267 -21.45572506 26.82870992 -24.97265625 24.94140625 C-30.53405777 20.43117073 -34.88305877 14.70635257 -35.8125 7.5 C-35.874375 6.345 -35.93625 5.19 -36 4 C-35.01 4 -34.02 4 -33 4 C-32.67 2.68 -32.34 1.36 -32 0 C-30.68 0 -29.36 0 -28 0 C-28 -0.66 -28 -1.32 -28 -2 C-18.55185185 -5.35934157 -8.76300607 -5.29704098 0 0 Z " fill="#E02E6C" transform="translate(132,18)"/>
<path d="M0 0 C0.84433594 0.00016113 1.68867187 0.00032227 2.55859375 0.00048828 C8.64363162 0.1123456 13.54419668 0.92091885 18.6875 4.375 C19.6775 5.035 20.6675 5.695 21.6875 6.375 C22.43555716 12.57318786 21.49562659 17.34747329 17.6875 22.375 C14.84501726 24.9532933 11.85349763 27.2102153 8.6875 29.375 C8.6875 26.375 8.6875 26.375 9.6875 24.375 C10.3475 24.375 11.0075 24.375 11.6875 24.375 C13.8014833 19.52795715 13.8014833 19.52795715 14.6875 14.375 C11.85716738 10.19103005 7.48125624 8.46158475 2.6875 7.375 C-3.39171935 6.88586741 -9.32050543 7.30975652 -15.3125 8.375 C-15.3125 9.035 -15.3125 9.695 -15.3125 10.375 C-15.951875 10.478125 -16.59125 10.58125 -17.25 10.6875 C-17.930625 10.914375 -18.61125 11.14125 -19.3125 11.375 C-19.6425 12.365 -19.9725 13.355 -20.3125 14.375 C-21.3025 14.375 -22.2925 14.375 -23.3125 14.375 C-22.9825 16.355 -22.6525 18.335 -22.3125 20.375 C-22.9725 20.375 -23.6325 20.375 -24.3125 20.375 C-26.27884851 15.63263007 -26.53911303 12.37580696 -25.3125 7.375 C-23.04799279 3.72662727 -19.28486312 3.38492283 -15.3125 2.375 C-14.43851563 2.03339844 -13.56453125 1.69179687 -12.6640625 1.33984375 C-8.37857115 0.10614169 -4.43848463 -0.00785109 0 0 Z " fill="#F59F2E" transform="translate(119.3125,7.625)"/>
<path d="M0 0 C1.32 0 2.64 0 4 0 C4.33 0.99 4.66 1.98 5 3 C6.65 2.67 8.3 2.34 10 2 C10 2.66 10 3.32 10 4 C10.66 4 11.32 4 12 4 C12 2.68 12 1.36 12 0 C13.32 0 14.64 0 16 0 C16 0.66 16 1.32 16 2 C18.31 2 20.62 2 23 2 C23 2.66 23 3.32 23 4 C23.66 4 24.32 4 25 4 C25.71362066 10.77939631 25.71362066 10.77939631 23.83984375 13.984375 C21.02158967 17.35763052 18.13009826 20.36717045 14 22 C10.98123355 22.22436778 8.02004263 22.17764957 5 22 C5.33 20.68 5.66 19.36 6 18 C5.34 18 4.68 18 4 18 C4 17.34 4 16.68 4 16 C3.34 16 2.68 16 2 16 C-0.14336161 12.5233662 -0.21277626 9.78770805 -0.125 5.75 C-0.10695313 4.67234375 -0.08890625 3.5946875 -0.0703125 2.484375 C-0.04710938 1.66453125 -0.02390625 0.8446875 0 0 Z " fill="#D03178" transform="translate(104,22)"/>
<path d="M0 0 C2.2421875 1.53515625 2.2421875 1.53515625 4 4 C4.2911521 6.73682971 4.38322418 9.03940039 4.25 11.75 C4.23195313 12.44738281 4.21390625 13.14476563 4.1953125 13.86328125 C4.14838554 15.57611539 4.07664605 17.28823824 4 19 C2.41870971 19.22331199 0.83478911 19.42804644 -0.75 19.625 C-2.07257812 19.79902344 -2.07257812 19.79902344 -3.421875 19.9765625 C-6.28867209 20.00262429 -7.67585353 19.66310255 -10 18 C-11.58139535 12.20155039 -11.58139535 12.20155039 -10.0625 9.0625 C-6.74491303 7.35344005 -3.69558797 7.81824977 0 8 C-0.33 7.01 -0.66 6.02 -1 5 C-3.97 5 -6.94 5 -10 5 C-10 3.68 -10 2.36 -10 1 C-6.87057535 -0.56471233 -3.38917777 -0.69701958 0 0 Z " fill="#943166" transform="translate(36,51)"/>
<path d="M0 0 C2.97245563 3.65840693 5.77967105 7.40787256 8.53515625 11.23046875 C10.48646196 13.58764604 12.23030301 14.85908829 15.26171875 15.4140625 C16.06222656 15.48367187 16.86273438 15.55328125 17.6875 15.625 C18.49574219 15.69976562 19.30398437 15.77453125 20.13671875 15.8515625 C20.75160156 15.90054688 21.36648437 15.94953125 22 16 C22 17.32 22 18.64 22 20 C19.69 20 17.38 20 15 20 C15 19.34 15 18.68 15 18 C13.68 18.33 12.36 18.66 11 19 C11 19.66 11 20.32 11 21 C10.34 21 9.68 21 9 21 C9 21.66 9 22.32 9 23 C10.98 23.33 12.96 23.66 15 24 C15 25.32 15 26.64 15 28 C12.69 28 10.38 28 8 28 C8 32.95 8 37.9 8 43 C6.68 43 5.36 43 4 43 C4 36.73 4 30.46 4 24 C4.66 24 5.32 24 6 24 C6 22.68 6 21.36 6 20 C2.7 20 -0.6 20 -4 20 C-4 19.67 -4 19.34 -4 19 C0.62 18.67 5.24 18.34 10 18 C9.360625 17.071875 8.72125 16.14375 8.0625 15.1875 C6 12 6 12 5 9 C4.01 8.67 3.02 8.34 2 8 C1.855625 7.360625 1.71125 6.72125 1.5625 6.0625 C1.19895007 3.79688294 1.19895007 3.79688294 -1.0625 2.75 C-1.701875 2.5025 -2.34125 2.255 -3 2 C-2.01 2 -1.02 2 0 2 C0 1.34 0 0.68 0 0 Z " fill="#F6E8F1" transform="translate(96,28)"/>
<path d="M0 0 C2.4375 1.5625 2.4375 1.5625 4 4 C4.25 7.75 4.25 7.75 4 11 C0.37 11 -3.26 11 -7 11 C-7 12.32 -7 13.64 -7 15 C-3.7 15 -0.4 15 3 15 C3 15.99 3 16.98 3 18 C-0.86968828 19.93484414 -4.84363131 19.3519383 -8.875 18.125 C-11.85212031 15.14787969 -11.92240477 12.56156027 -12.14453125 8.44921875 C-11.95597735 5.25399463 -11.09548424 3.40592635 -9 1 C-5.90826248 -0.54586876 -3.40570448 -0.29359521 0 0 Z " fill="#96356A" transform="translate(92,52)"/>
<path d="M0 0 C1.32 0 2.64 0 4 0 C4.33 5.28 4.66 10.56 5 16 C6.65 14.02 8.3 12.04 10 10 C12.8125 9.625 12.8125 9.625 15 10 C14.154375 10.9075 13.30875 11.815 12.4375 12.75 C10.44280823 15.08117931 10.44280823 15.08117931 9.875 18 C11.55139162 20.98025177 13.78940926 23.39263656 16 26 C16 26.66 16 27.32 16 28 C13.8125 28.4375 13.8125 28.4375 11 28 C9.44491738 26.28122447 8.24605308 24.49370492 7.015625 22.53125 C6.68046875 22.0259375 6.3453125 21.520625 6 21 C5.67 21 5.34 21 5 21 C4.67 23.31 4.34 25.62 4 28 C2.68 28 1.36 28 0 28 C0 18.76 0 9.52 0 0 Z " fill="#903265" transform="translate(7,42)"/>
<path d="M0 0 C4 0 4 0 6.25 2 C6.8275 2.66 7.405 3.32 8 4 C8 3.34 8 2.68 8 2 C8.66 2 9.32 2 10 2 C10 2.66 10 3.32 10 4 C10.99 4 11.98 4 13 4 C13 4.66 13 5.32 13 6 C13.66 6 14.32 6 15 6 C15.99 7.98 16.98 9.96 18 12 C12.98010898 16.11888494 9.40141012 16.51211281 3 16 C3.33 14.68 3.66 13.36 4 12 C3.34 12 2.68 12 2 12 C2 11.34 2 10.68 2 10 C1.34 10 0.68 10 0 10 C-2.21538462 4.58461538 -2.21538462 4.58461538 -1.125 1.625 C-0.75375 1.08875 -0.3825 0.5525 0 0 Z " fill="#BF347C" transform="translate(106,28)"/>
<path d="M0 0 C2.475 0.495 2.475 0.495 5 1 C5.99 4.3 6.98 7.6 8 11 C9.65 7.37 11.3 3.74 13 0 C14.32 0 15.64 0 17 0 C14.46277869 9.61727698 10.66846291 18.77356452 7 28 C5.35 28 3.7 28 2 28 C3.875 23.25 3.875 23.25 5 21 C5.39354901 16.13685865 4.35623065 12.72557835 2.5 8.25 C0 2.16666667 0 2.16666667 0 0 Z " fill="#953469" transform="translate(112,52)"/>
<path d="M0 0 C2.08815049 0.93462975 3.95131714 1.9022594 5.84765625 3.17578125 C7.33265625 4.16578125 7.33265625 4.16578125 8.84765625 5.17578125 C9.25609548 7.88781777 8.98102492 10.41949545 8.84765625 13.17578125 C8.18765625 12.18578125 7.52765625 11.19578125 6.84765625 10.17578125 C5.85765625 9.84578125 4.86765625 9.51578125 3.84765625 9.17578125 C3.84765625 8.51578125 3.84765625 7.85578125 3.84765625 7.17578125 C1.53765625 7.17578125 -0.77234375 7.17578125 -3.15234375 7.17578125 C-3.15234375 6.51578125 -3.15234375 5.85578125 -3.15234375 5.17578125 C-5.9598183 4.39623545 -8.57264183 4.00476635 -11.48046875 3.859375 C-12.2796875 3.81748047 -13.07890625 3.77558594 -13.90234375 3.73242188 C-15.13984375 3.67344727 -15.13984375 3.67344727 -16.40234375 3.61328125 C-17.2428125 3.57009766 -18.08328125 3.52691406 -18.94921875 3.48242188 C-21.01675046 3.37669582 -23.08452656 3.2757683 -25.15234375 3.17578125 C-24.82234375 2.18578125 -24.49234375 1.19578125 -24.15234375 0.17578125 C-17.94244859 -2.92916633 -6.54910373 -1.71234311 0 0 Z " fill="#F3CC06" transform="translate(132.15234375,8.82421875)"/>
<path d="M0 0 C1.32 0 2.64 0 4 0 C4 4.95 4 9.9 4 15 C6.31 15 8.62 15 11 15 C11 10.05 11 5.1 11 0 C12.32 0 13.64 0 15 0 C15 5.94 15 11.88 15 18 C10.38 18 5.76 18 1 18 C-0.59412284 14.81175432 -0.10174735 11.37103338 -0.0625 7.875 C-0.05798828 7.12089844 -0.05347656 6.36679687 -0.04882812 5.58984375 C-0.03703499 3.72652873 -0.01909942 1.86325445 0 0 Z " fill="#932A62" transform="translate(44,52)"/>
<path d="M0 0 C1.98 0 3.96 0 6 0 C6.33 5.94 6.66 11.88 7 18 C9.908125 17.690625 9.908125 17.690625 12.875 17.375 C16.1796875 17.0234375 16.1796875 17.0234375 19 17 C19.66 17.66 20.32 18.32 21 19 C18.13407338 19.67433568 15.77347802 19.99111679 12.8125 19.875 C11.4203125 19.936875 11.4203125 19.936875 10 20 C9.34 20.99 8.68 21.98 8 23 C5.94140625 23.2578125 5.94140625 23.2578125 3.5625 23.125 C0.5403512 22.97563515 -1.06515164 23.02171721 -4 24 C-4 22.02 -4 20.04 -4 18 C-1 17 -1 17 2 18 C1.8590651 15.56212615 1.71245458 13.12482147 1.5625 10.6875 C1.50352539 9.65206055 1.50352539 9.65206055 1.44335938 8.59570312 C1.25072585 5.52838465 0.97677283 2.93031848 0 0 Z " fill="#F5EEF6" transform="translate(38,52)"/>
<path d="M0 0 C2.31 0 4.62 0 7 0 C7.33 1.32 7.66 2.64 8 4 C6.72125 4.12375 5.4425 4.2475 4.125 4.375 C0.65209064 4.69042399 0.65209064 4.69042399 -2 7 C-1.99510849 10.53462587 -1.99510849 10.53462587 -1 14 C0.93597032 15.51294288 0.93597032 15.51294288 3 16 C3 16.33 3 16.66 3 17 C0.03 17 -2.94 17 -6 17 C-5.67 18.98 -5.34 20.96 -5 23 C-5.66 23 -6.32 23 -7 23 C-7.33 23.66 -7.66 24.32 -8 25 C-8.1546875 23.6078125 -8.1546875 23.6078125 -8.3125 22.1875 C-9.03483902 18.83847362 -9.59380188 18.1969635 -12 16 C-12 15.01 -12 14.02 -12 13 C-12.66 13 -13.32 13 -14 13 C-14.33 12.34 -14.66 11.68 -15 11 C-15.33 12.98 -15.66 14.96 -16 17 C-17.65 17 -19.3 17 -21 17 C-21 16.34 -21 15.68 -21 15 C-19.68 15 -18.36 15 -17 15 C-17 12.69 -17 10.38 -17 8 C-16.01 8 -15.02 8 -14 8 C-10 12.34285714 -10 12.34285714 -10 15 C-8.35 15 -6.7 15 -5 15 C-5.7425 14.071875 -5.7425 14.071875 -6.5 13.125 C-8 11 -8 11 -8 9 C-7.34 8.67 -6.68 8.34 -6 8 C-5.27840576 6.35636866 -4.60648579 4.68949614 -4 3 C-1.03 3 1.94 3 5 3 C5 2.34 5 1.68 5 1 C3.35 1 1.7 1 0 1 C0 0.67 0 0.34 0 0 Z " fill="#FAF1FA" transform="translate(28,55)"/>
<path d="M0 0 C5.25285905 -0.31517154 8.59662174 0.03250595 13 3 C18 8.68421053 18 8.68421053 18 12 C16.06280622 12.05406122 14.12518079 12.09282025 12.1875 12.125 C11.10855469 12.14820313 10.02960938 12.17140625 8.91796875 12.1953125 C6 12 6 12 3 10 C3 9.34 3 8.68 3 8 C2.34 7.67 1.68 7.34 1 7 C0.59270772 4.67843403 0.25561323 2.3431213 0 0 Z " fill="#E62B75" transform="translate(88,34)"/>
<path d="M0 0 C2.475 0.495 2.475 0.495 5 1 C5.99 4.3 6.98 7.6 8 11 C9.65 7.37 11.3 3.74 13 0 C14.32 0 15.64 0 17 0 C14.94235079 6.45353615 12.57616518 12.7361263 10 19 C8.68 19 7.36 19 6 19 C4.99619084 16.20964954 3.9968055 13.41785145 3 10.625 C2.57074219 9.43390625 2.57074219 9.43390625 2.1328125 8.21875 C1.86210938 7.45820312 1.59140625 6.69765625 1.3125 5.9140625 C1.06113281 5.2123291 0.80976562 4.5105957 0.55078125 3.78759766 C0 2 0 2 0 0 Z " fill="#932E64" transform="translate(62,52)"/>
<path d="M0 0 C2.42522207 2.42522207 2.29629254 3.1720679 2.3125 6.5 C2.33763672 7.69109375 2.33763672 7.69109375 2.36328125 8.90625 C2.24339844 9.5971875 2.12351562 10.288125 2 11 C-1 13 -1 13 -5 13 C-5.33 14.98 -5.66 16.96 -6 19 C-6.66 19 -7.32 19 -8 19 C-8 13.06 -8 7.12 -8 1 C-5.03104944 0.01034981 -3.0913386 -0.23779528 0 0 Z " fill="#646464" transform="translate(59,81)"/>
<path d="M0 0 C3.3 0 6.6 0 10 0 C10.66 1.32 11.32 2.64 12 4 C14.31 4 16.62 4 19 4 C19 4.66 19 5.32 19 6 C20.32 6.33 21.64 6.66 23 7 C23.34654062 10.63867652 23.1496871 12.70062581 21.5 16 C18.41834176 19.69798989 14.95364947 22.29386128 11 25 C11 22 11 22 12 20 C12.66 20 13.32 20 14 20 C16.1139833 15.15295715 16.1139833 15.15295715 17 10 C13.99365499 6.20841563 10.73822075 4.86575947 6.25 3.25 C4.49429688 2.60804687 4.49429688 2.60804687 2.703125 1.953125 C1.81109375 1.63859375 0.9190625 1.3240625 0 1 C0 0.67 0 0.34 0 0 Z " fill="#F89968" transform="translate(117,12)"/>
<path d="M0 0 C0.33 0 0.66 0 1 0 C1 6.27 1 12.54 1 19 C-3.11258859 19.68543143 -6.32262138 20.11726187 -10.375 20.0625 C-11.68597656 20.04896484 -11.68597656 20.04896484 -13.0234375 20.03515625 C-13.67570312 20.02355469 -14.32796875 20.01195313 -15 20 C-15 19.34 -15 18.68 -15 18 C-11.37 18 -7.74 18 -4 18 C-4 17.01 -4 16.02 -4 15 C-7.3 15 -10.6 15 -14 15 C-14 13.68 -14 12.36 -14 11 C-10.37 11 -6.74 11 -3 11 C-3 9.35 -3 7.7 -3 6 C-2.01 6 -1.02 6 0 6 C0 4.02 0 2.04 0 0 Z " fill="#F2E1EF" transform="translate(99,52)"/>
<path d="M0 0 C0.99 0.33 1.98 0.66 3 1 C2.01 2.485 2.01 2.485 1 4 C0.01 4 -0.98 4 -2 4 C-1.67 9.28 -1.34 14.56 -1 20 C-0.01 20 0.98 20 2 20 C2 20.66 2 21.32 2 22 C2.66 22 3.32 22 4 22 C4 22.66 4 23.32 4 24 C4.66 24 5.32 24 6 24 C6 24.99 6 25.98 6 27 C-0.0113482 25.05484774 -2.63506868 21.14279452 -6 16 C-7.64770472 12.20311521 -8 10.16720299 -8 6 C-7.01 6 -6.02 6 -5 6 C-4.67 4.68 -4.34 3.36 -4 2 C-2.68 2 -1.36 2 0 2 C0 1.34 0 0.68 0 0 Z " fill="#E02433" transform="translate(104,16)"/>
<path d="M0 0 C3 0.25 3 0.25 5 2.25 C5.46376812 9.55434783 5.46376812 9.55434783 3 13.25 C-3.875 12.375 -3.875 12.375 -5 11.25 C-5.16796875 9.25390625 -5.16796875 9.25390625 -5.1875 6.8125 C-5.20167969 6.00941406 -5.21585938 5.20632812 -5.23046875 4.37890625 C-4.83791825 0.7528042 -3.47671176 0.28972598 0 0 Z " fill="#EEEDED" transform="translate(27,80.75)"/>
<path d="M0 0 C3.63 0 7.26 0 11 0 C11 1.32 11 2.64 11 4 C8.69 4 6.38 4 4 4 C4 8.95 4 13.9 4 19 C2.68 19 1.36 19 0 19 C0 12.73 0 6.46 0 0 Z " fill="#A55584" transform="translate(100,52)"/>
<path d="M0 0 C2.875 -0.125 2.875 -0.125 6 0 C8 2 8 2 8.1953125 4.6015625 C8.17210938 5.59929687 8.14890625 6.59703125 8.125 7.625 C8.10695313 8.62789062 8.08890625 9.63078125 8.0703125 10.6640625 C8.03550781 11.82035156 8.03550781 11.82035156 8 13 C5.36 13 2.72 13 0 13 C-0.66 11.35 -1.32 9.7 -2 8 C-0.8125 6.5 -0.8125 6.5 1 5 C3.6875 4.8125 3.6875 4.8125 6 5 C5.67 4.34 5.34 3.68 5 3 C1.97065509 2.34227572 1.97065509 2.34227572 -1 2 C-0.67 1.34 -0.34 0.68 0 0 Z " fill="#767677" transform="translate(88,81)"/>
<path d="M0 0 C1.32 0 2.64 0 4 0 C4.33 4.95 4.66 9.9 5 15 C5.99 15.33 6.98 15.66 8 16 C8 16.66 8 17.32 8 18 C5.69 18 3.38 18 1 18 C-0.59412284 14.81175432 -0.10174735 11.37103338 -0.0625 7.875 C-0.05798828 7.12089844 -0.05347656 6.36679687 -0.04882812 5.58984375 C-0.03703499 3.72652873 -0.01909942 1.86325445 0 0 Z " fill="#99306C" transform="translate(44,52)"/>
<path d="M0 0 C0.33 0 0.66 0 1 0 C1 4.95 1 9.9 1 15 C-2.3 15.33 -5.6 15.66 -9 16 C-8.34 15.34 -7.68 14.68 -7 14 C-7.515625 13.5875 -8.03125 13.175 -8.5625 12.75 C-9.2740625 11.88375 -9.2740625 11.88375 -10 11 C-9.6875 8.8125 -9.6875 8.8125 -9 7 C-7.02 6.67 -5.04 6.34 -3 6 C-3 7.98 -3 9.96 -3 12 C-2.01 12.33 -1.02 12.66 0 13 C-0.144375 11.72125 -0.28875 10.4425 -0.4375 9.125 C-0.55931641 8.04605469 -0.55931641 8.04605469 -0.68359375 6.9453125 C-0.91292961 4.92595684 -0.91292961 4.92595684 -2 3 C-1.34 3 -0.68 3 0 3 C0 2.01 0 1.02 0 0 Z " fill="#963C6C" transform="translate(39,55)"/>
<path d="M0 0 C2.31 0 4.62 0 7 0 C7.33 1.32 7.66 2.64 8 4 C6.72125 4.12375 5.4425 4.2475 4.125 4.375 C0.65209064 4.69042399 0.65209064 4.69042399 -2 7 C-2.02375926 8.9931567 -2.02375926 8.9931567 -1.625 11.125 C-1.315625 13.043125 -1.315625 13.043125 -1 15 C-3.64 15.33 -6.28 15.66 -9 16 C-7.68 15.67 -6.36 15.34 -5 15 C-5.495 14.38125 -5.99 13.7625 -6.5 13.125 C-8 11 -8 11 -8 9 C-7.34 8.67 -6.68 8.34 -6 8 C-5.27840576 6.35636866 -4.60648579 4.68949614 -4 3 C-1.03 3 1.94 3 5 3 C5 2.34 5 1.68 5 1 C3.35 1 1.7 1 0 1 C0 0.67 0 0.34 0 0 Z " fill="#F5E4F2" transform="translate(28,55)"/>
<path d="M0 0 C2.475 0.495 2.475 0.495 5 1 C5.20496094 1.69867188 5.40992187 2.39734375 5.62109375 3.1171875 C5.89050781 4.02726562 6.15992187 4.93734375 6.4375 5.875 C6.83775391 7.23238281 6.83775391 7.23238281 7.24609375 8.6171875 C7.92613826 10.98275381 7.92613826 10.98275381 9 13 C8.814375 13.66 8.62875 14.32 8.4375 15 C8.293125 15.66 8.14875 16.32 8 17 C8.66 17.66 9.32 18.32 10 19 C8.68 19 7.36 19 6 19 C4.99619084 16.20964954 3.9968055 13.41785145 3 10.625 C2.57074219 9.43390625 2.57074219 9.43390625 2.1328125 8.21875 C1.86210938 7.45820312 1.59140625 6.69765625 1.3125 5.9140625 C1.06113281 5.2123291 0.80976562 4.5105957 0.55078125 3.78759766 C0 2 0 2 0 0 Z " fill="#9C3D72" transform="translate(62,52)"/>
<path d="M0 0 C4.44907205 1.48302402 6.74579392 5.08285501 9 9 C9 9.66 9 10.32 9 11 C8.34 11 7.68 11 7 11 C7 10.34 7 9.68 7 9 C6.30132812 9.03480469 5.60265625 9.06960937 4.8828125 9.10546875 C3.51769531 9.14607422 3.51769531 9.14607422 2.125 9.1875 C0.76761719 9.23970703 0.76761719 9.23970703 -0.6171875 9.29296875 C-1.79667969 9.14794922 -1.79667969 9.14794922 -3 9 C-3.66 8.01 -4.32 7.02 -5 6 C-3.68 5.67 -2.36 5.34 -1 5 C-0.67 3.35 -0.34 1.7 0 0 Z " fill="#C43473" transform="translate(97,35)"/>
<path d="M0 0 C3.54296104 0.6561039 6.2507794 1.63261559 9 4 C9.4473144 6.79433439 9.23403245 9.14480414 9 12 C8.34 11.01 7.68 10.02 7 9 C6.01 8.67 5.02 8.34 4 8 C4 7.34 4 6.68 4 6 C1.69 6 -0.62 6 -3 6 C-3 5.34 -3 4.68 -3 4 C-4.32 3.67 -5.64 3.34 -7 3 C-5.35 2.67 -3.7 2.34 -2 2 C-2 2.66 -2 3.32 -2 4 C-1.01 3.67 -0.02 3.34 1 3 C0.67 2.01 0.34 1.02 0 0 Z " fill="#F3D046" transform="translate(132,10)"/>
<path d="M0 0 C1.32 0.33 2.64 0.66 4 1 C3.01 1 2.02 1 1 1 C1 4.63 1 8.26 1 12 C1.66 12 2.32 12 3 12 C2.98839844 12.71027344 2.97679687 13.42054687 2.96484375 14.15234375 C2.95582031 15.07144531 2.94679688 15.99054687 2.9375 16.9375 C2.92589844 17.85402344 2.91429687 18.77054688 2.90234375 19.71484375 C2.74050951 21.96593327 2.74050951 21.96593327 4 23 C4.04063832 24.66617115 4.042721 26.33388095 4 28 C2.68 28 1.36 28 0 28 C0 18.76 0 9.52 0 0 Z " fill="#93416E" transform="translate(7,42)"/>
<path d="M0 0 C5.61 0 11.22 0 17 0 C17.33 0.66 17.66 1.32 18 2 C16.49759766 2.05607422 16.49759766 2.05607422 14.96484375 2.11328125 C8.10537809 2.43110431 2.18648961 2.76615316 -4 6 C-4.99 6 -5.98 6 -7 6 C-6.67 4.68 -6.34 3.36 -6 2 C-4.02 2 -2.04 2 0 2 C0 1.34 0 0.68 0 0 Z " fill="#FBEBCA" transform="translate(107,6)"/>
<path d="M0 0 C0.99 0 1.98 0 3 0 C3.33 6.27 3.66 12.54 4 19 C2.68 18.67 1.36 18.34 0 18 C0 12.06 0 6.12 0 0 Z " fill="#9F9E9F" transform="translate(101,75)"/>
<path d="M0 0 C0.66 0 1.32 0 2 0 C2 1.98 2 3.96 2 6 C3.4540625 5.9690625 3.4540625 5.9690625 4.9375 5.9375 C8 6 8 6 9 7 C9.07226502 8.85287502 9.0838122 10.70833878 9.0625 12.5625 C9.05347656 13.57441406 9.04445313 14.58632812 9.03515625 15.62890625 C9.02355469 16.41136719 9.01195312 17.19382812 9 18 C8.67 18 8.34 18 8 18 C8 14.7 8 11.4 8 8 C6.02 8 4.04 8 2 8 C2 11.3 2 14.6 2 18 C1.34 18 0.68 18 0 18 C0 12.06 0 6.12 0 0 Z " fill="#646464" transform="translate(7,75)"/>
<path d="M0 0 C0.76183594 -0.00515625 1.52367188 -0.0103125 2.30859375 -0.015625 C4.84181362 0.28291738 6.43457022 0.84696938 8.5625 2.25 C8.8925 3.24 9.2225 4.23 9.5625 5.25 C5.86349992 4.36223998 2.21699539 3.30418136 -1.4375 2.25 C-1.7675 3.24 -2.0975 4.23 -2.4375 5.25 C-3.4275 5.58 -4.4175 5.91 -5.4375 6.25 C-5.7675 8.23 -6.0975 10.21 -6.4375 12.25 C-6.7675 12.25 -7.0975 12.25 -7.4375 12.25 C-7.51840971 10.62581255 -7.57664995 9.00048255 -7.625 7.375 C-7.65980469 6.47007813 -7.69460937 5.56515625 -7.73046875 4.6328125 C-7.63378906 3.84648438 -7.53710938 3.06015625 -7.4375 2.25 C-4.32763793 0.17675862 -3.54641613 -0.02392186 0 0 Z " fill="#F0C25A" transform="translate(88.4375,29.75)"/>
<path d="M0 0 C0.99 0.33 1.98 0.66 3 1 C3.94721072 3.60482949 4.30222393 5.30674701 3.17578125 7.890625 C2.17063275 9.62582873 1.0893855 11.31640423 0 13 C-0.66 13 -1.32 13 -2 13 C-3 10 -3 10 -2 7 C-2.66 6.67 -3.32 6.34 -4 6 C-3.01 5.67 -2.02 5.34 -1 5 C-1.33 3.68 -1.66 2.36 -2 1 C-1.34 0.67 -0.68 0.34 0 0 Z " fill="#DB2E66" transform="translate(131,19)"/>
<path d="M0 0 C3 0.25 3 0.25 5 2.25 C5.46376812 9.55434783 5.46376812 9.55434783 3 13.25 C-3.875 12.375 -3.875 12.375 -5 11.25 C-5.16796875 9.25390625 -5.16796875 9.25390625 -5.1875 6.8125 C-5.20167969 6.00941406 -5.21585938 5.20632812 -5.23046875 4.37890625 C-4.83791825 0.7528042 -3.47671176 0.28972598 0 0 Z M-2 1.25 C-4.32483785 3.13375675 -4.32483785 3.13375675 -4.1875 6.25 C-4.20079609 9.17386603 -4.20079609 9.17386603 -3 11.25 C-1.33388095 11.292721 0.33382885 11.29063832 2 11.25 C3.39287806 10.07963695 3.39287806 10.07963695 3.1875 6.8125 C3.39564928 3.19967279 3.39564928 3.19967279 1 1.25 C0.01 1.25 -0.98 1.25 -2 1.25 Z " fill="#6B6B6C" transform="translate(27,80.75)"/>
<path d="M0 0 C1.4540625 0.0309375 1.4540625 0.0309375 2.9375 0.0625 C2.9375 0.7225 2.9375 1.3825 2.9375 2.0625 C0.9575 2.0625 -1.0225 2.0625 -3.0625 2.0625 C-3.0625 3.0525 -3.0625 4.0425 -3.0625 5.0625 C-0.0925 5.5575 -0.0925 5.5575 2.9375 6.0625 C3.5625 7.875 3.5625 7.875 3.9375 10.0625 C2.9475 11.5475 2.9475 11.5475 1.9375 13.0625 C-1.6875 13.25 -1.6875 13.25 -5.0625 13.0625 C-5.0625 12.4025 -5.0625 11.7425 -5.0625 11.0625 C-3.0825 10.7325 -1.1025 10.4025 0.9375 10.0625 C0.9375 9.4025 0.9375 8.7425 0.9375 8.0625 C-1.0425 7.4025 -3.0225 6.7425 -5.0625 6.0625 C-3.98897059 0.08140756 -3.98897059 0.08140756 0 0 Z " fill="#737273" transform="translate(42.0625,80.9375)"/>
<path d="M0 0 C1.98 0 3.96 0 6 0 C6.09765625 6.15234375 6.09765625 6.15234375 6 8 C5 9 5 9 2.4375 9.0625 C1.633125 9.041875 0.82875 9.02125 0 9 C0 6.03 0 3.06 0 0 Z " fill="#F8F8F8" transform="translate(53,83)"/>
<path d="M0 0 C4 2 4 2 5.25 5.625 C5.4975 6.73875 5.745 7.8525 6 9 C5.34 9 4.68 9 4 9 C3.67 9.66 3.34 10.32 3 11 C2.67 11 2.34 11 2 11 C1.67 13.31 1.34 15.62 1 18 C0.67 18 0.34 18 0 18 C0 12.06 0 6.12 0 0 Z " fill="#F8E2F4" transform="translate(59,52)"/>
<path d="M0 0 C0.99 0.66 1.98 1.32 3 2 C2.67 2.99 2.34 3.98 2 5 C-1.96 5 -5.92 5 -10 5 C-10 3.68 -10 2.36 -10 1 C-6.87293041 -0.5635348 -3.42017557 -0.39958487 0 0 Z " fill="#8A3267" transform="translate(36,51)"/>
<path d="M0 0 C1.98 0.66 3.96 1.32 6 2 C6.50338797 7.28557366 5.34676996 9.90950339 2 14 C-0.25 15.375 -0.25 15.375 -2 16 C-1.67 15.01 -1.34 14.02 -1 13 C-0.34 13 0.32 13 1 13 C1.02708567 11.39592672 1.04643483 9.7917215 1.0625 8.1875 C1.07410156 7.29417969 1.08570313 6.40085937 1.09765625 5.48046875 C1.11009967 2.86586209 1.11009967 2.86586209 0 0 Z " fill="#F0B35A" transform="translate(134,17)"/>
<path d="M0 0 C0 1.32 0 2.64 0 4 C-0.49113281 4.48082031 -0.98226562 4.96164063 -1.48828125 5.45703125 C-3.21976151 6.91447405 -3.21976151 6.91447405 -3.29296875 9.26171875 C-3.24076172 10.46248047 -3.24076172 10.46248047 -3.1875 11.6875 C-3.16042969 12.49574219 -3.13335937 13.30398437 -3.10546875 14.13671875 C-3.07066406 14.75160156 -3.03585938 15.36648437 -3 16 C-3.66 16 -4.32 16 -5 16 C-6.96634851 11.25763007 -7.22661303 8.00080696 -6 3 C-3.99805958 0.17908395 -3.54659553 0 0 0 Z " fill="#F1BC7B" transform="translate(100,12)"/>
<path d="M0 0 C0.66 0 1.32 0 2 0 C2 0.99 2 1.98 2 3 C3.32 3 4.64 3 6 3 C6 3.66 6 4.32 6 5 C4.68 5 3.36 5 2 5 C2 7.97 2 10.94 2 14 C2.99 14 3.98 14 5 14 C5 14.66 5 15.32 5 16 C1.125 15.125 1.125 15.125 0 14 C-0.07179964 12.48071962 -0.08392007 10.95832518 -0.0625 9.4375 C-0.05347656 8.61121094 -0.04445313 7.78492187 -0.03515625 6.93359375 C-0.02355469 6.29550781 -0.01195313 5.65742187 0 5 C-0.66 5 -1.32 5 -2 5 C-2 4.34 -2 3.68 -2 3 C-1.34 3 -0.68 3 0 3 C0 2.01 0 1.02 0 0 Z " fill="#757677" transform="translate(76,78)"/>
<path d="M0 0 C1.42157916 4.26473749 1 8.5163827 1 13 C-0.32 12.67 -1.64 12.34 -3 12 C-2.67 10.02 -2.34 8.04 -2 6 C-3.65 6 -5.3 6 -7 6 C-7.33 5.34 -7.66 4.68 -8 4 C-6.02 4 -4.04 4 -2 4 C-2 3.01 -2 2.02 -2 1 C-1.34 0.67 -0.68 0.34 0 0 Z " fill="#8F2663" transform="translate(38,55)"/>
<path d="M0 0 C0.84175781 -0.00257813 1.68351562 -0.00515625 2.55078125 -0.0078125 C3.87142578 0.00378906 3.87142578 0.00378906 5.21875 0.015625 C6.09917969 0.00789062 6.97960937 0.00015625 7.88671875 -0.0078125 C8.72847656 -0.00523437 9.57023437 -0.00265625 10.4375 0 C11.59668945 0.00338379 11.59668945 0.00338379 12.77929688 0.00683594 C14.71875 0.265625 14.71875 0.265625 16.71875 2.265625 C15.666875 2.245 14.615 2.224375 13.53125 2.203125 C9.9333656 2.1335499 9.9333656 2.1335499 7.34375 2.796875 C4.37631931 3.32677334 1.89763592 3.15249215 -1.09375 2.828125 C-2.06957031 2.72628906 -3.04539062 2.62445313 -4.05078125 2.51953125 C-5.15486328 2.39384766 -5.15486328 2.39384766 -6.28125 2.265625 C-3.87295208 -0.14267292 -3.28841444 0.00959921 0 0 Z " fill="#F0CF36" transform="translate(114.28125,7.734375)"/>
<path d="M0 0 C0 0.66 0 1.32 0 2 C0.99 2 1.98 2 3 2 C3 2.66 3 3.32 3 4 C2.34 4 1.68 4 1 4 C1.33 5.98 1.66 7.96 2 10 C1.34 10 0.68 10 0 10 C0 8.68 0 7.36 0 6 C-2.31 6 -4.62 6 -7 6 C-6.67 5.01 -6.34 4.02 -6 3 C-5.34 3 -4.68 3 -4 3 C-4 2.34 -4 1.68 -4 1 C-2 0 -2 0 0 0 Z " fill="#F3F1EF" transform="translate(111,46)"/>
<path d="M0 0 C0.99 0.33 1.98 0.66 3 1 C3 5.29 3 9.58 3 14 C2.01 14 1.02 14 0 14 C0 9.38 0 4.76 0 0 Z " fill="#972260" transform="translate(100,56)"/>
<path d="M0 0 C0.33 0 0.66 0 1 0 C1.19622241 4.21878192 0.80230168 7.17010894 -1 11 C-2.65 11 -4.3 11 -6 11 C-4.55007731 6.89188572 -2.54592427 3.53144334 0 0 Z " fill="#923264" transform="translate(120,69)"/>
<path d="M0 0 C0.33 0 0.66 0 1 0 C1 5.94 1 11.88 1 18 C-1.31 18 -3.62 18 -6 18 C-6 17.34 -6 16.68 -6 16 C-6.99 15.67 -7.98 15.34 -9 15 C-4.545 14.505 -4.545 14.505 0 14 C0 9.38 0 4.76 0 0 Z " fill="#7E335E" transform="translate(58,52)"/>
<path d="M0 0 C1.9375 0.3125 1.9375 0.3125 4 1 C4.33 1.99 4.66 2.98 5 4 C0.25 8 0.25 8 -2 8 C-2.6875 6.25 -2.6875 6.25 -3 4 C-1.5625 1.75 -1.5625 1.75 0 0 Z " fill="#BE318C" transform="translate(116,36)"/>
<path d="M0 0 C2.98209949 3.6702763 5.82525074 7.42644077 8.6328125 11.23046875 C10.02468088 13.10949864 10.02468088 13.10949864 12 15 C11.01 16.485 11.01 16.485 10 18 C6.125 12.375 6.125 12.375 5 9 C4.01 8.67 3.02 8.34 2 8 C1.855625 7.360625 1.71125 6.72125 1.5625 6.0625 C1.19895007 3.79688294 1.19895007 3.79688294 -1.0625 2.75 C-1.701875 2.5025 -2.34125 2.255 -3 2 C-2.01 2 -1.02 2 0 2 C0 1.34 0 0.68 0 0 Z " fill="#F4D2C8" transform="translate(96,28)"/>
<path d="M0 0 C3.63 0 7.26 0 11 0 C10.67 0.66 10.34 1.32 10 2 C9.34 2 8.68 2 8 2 C7.67 2.99 7.34 3.98 7 5 C4.6568787 4.74438677 2.32156597 4.40729228 0 4 C-0.33 3.34 -0.66 2.68 -1 2 C-0.67 1.34 -0.34 0.68 0 0 Z " fill="#F02868" transform="translate(121,18)"/>
<path d="M0 0 C1.32 0 2.64 0 4 0 C4 1.65 4 3.3 4 5 C0.7 5 -2.6 5 -6 5 C-6 4.01 -6 3.02 -6 2 C-4.02 2 -2.04 2 0 2 C0 1.34 0 0.68 0 0 Z " fill="#8C2D60" transform="translate(92,58)"/>
<path d="M0 0 C2.29013653 3.4352048 2.17842973 4.985331 2 9 C3.32 9.33 4.64 9.66 6 10 C4.35830472 12.02054804 2.69088222 14.02043058 1 16 C0.67 16 0.34 16 0 16 C0 10.72 0 5.44 0 0 Z " fill="#F6CFE7" transform="translate(11,43)"/>
<path d="M0 0 C-0.33 1.65 -0.66 3.3 -1 5 C-1.639375 5.103125 -2.27875 5.20625 -2.9375 5.3125 C-3.618125 5.539375 -4.29875 5.76625 -5 6 C-5.33 6.99 -5.66 7.98 -6 9 C-6.99 9 -7.98 9 -9 9 C-8.67 7.35 -8.34 5.7 -8 4 C-7.01 3.67 -6.02 3.34 -5 3 C-5 2.34 -5 1.68 -5 1 C-3 0 -3 0 0 0 Z " fill="#E78D18" transform="translate(105,13)"/>
<path d="M0 0 C4.75 1.875 4.75 1.875 7 3 C9.204364 3.22950319 11.41392173 3.41075933 13.625 3.5625 C14.81351563 3.64628906 16.00203125 3.73007812 17.2265625 3.81640625 C18.59941406 3.90728516 18.59941406 3.90728516 20 4 C20 4.33 20 4.66 20 5 C17.39635591 5.24867947 14.79410106 5.47457902 12.1875 5.6875 C11.44951172 5.76033203 10.71152344 5.83316406 9.95117188 5.90820312 C4.49440825 6.32795417 4.49440825 6.32795417 2.05078125 4.70703125 C1 3 1 3 0 0 Z " fill="#E8A67C" transform="translate(82,42)"/>
<path d="M0 0 C0.99 0.33 1.98 0.66 3 1 C1 4 1 4 -1.625 4.6875 C-2.40875 4.790625 -3.1925 4.89375 -4 5 C-4.66 7.97 -5.32 10.94 -6 14 C-8 10 -8 10 -8 6 C-7.01 6 -6.02 6 -5 6 C-4.67 4.68 -4.34 3.36 -4 2 C-2.68 2 -1.36 2 0 2 C0 1.34 0 0.68 0 0 Z " fill="#EF5C40" transform="translate(104,16)"/>
<path d="M0 0 C5.57142857 5.14285714 5.57142857 5.14285714 6 9 C5.34 9 4.68 9 4 9 C4 8.01 4 7.02 4 6 C3.34 6 2.68 6 2 6 C1.67 5.34 1.34 4.68 1 4 C0.67 5.98 0.34 7.96 0 10 C-1.65 10 -3.3 10 -5 10 C-5 9.34 -5 8.68 -5 8 C-3.68 8 -2.36 8 -1 8 C-1.020625 6.865625 -1.04125 5.73125 -1.0625 4.5625 C-1 1 -1 1 0 0 Z " fill="#F9DCF1" transform="translate(12,62)"/>
<path d="M0 0 C2.125 0.9375 2.125 0.9375 4 2 C4.08096803 3.45742463 4.13917774 4.91612807 4.1875 6.375 C4.22230469 7.18710938 4.25710937 7.99921875 4.29296875 8.8359375 C4.19628906 9.55007812 4.09960938 10.26421875 4 11 C1 13 1 13 -1.1875 12.625 C-1.785625 12.41875 -2.38375 12.2125 -3 12 C-2.360625 11.835 -1.72125 11.67 -1.0625 11.5 C1.16119241 10.218214 1.16119241 10.218214 1.48828125 8.0859375 C1.7275978 6.06424845 1.86893028 4.03158061 2 2 C0.68 1.67 -0.64 1.34 -2 1 C-1.34 0.67 -0.68 0.34 0 0 Z " fill="#767576" transform="translate(57,81)"/>
<path d="M0 0 C-2.80893017 1.79771531 -4.19328951 1.99666742 -7.625 1.9375 C-8.73875 1.958125 -9.8525 1.97875 -11 2 C-11.99 3.485 -11.99 3.485 -13 5 C-14.98 4.34 -16.96 3.68 -19 3 C-18.360625 2.690625 -17.72125 2.38125 -17.0625 2.0625 C-15.06389179 1.1654837 -15.06389179 1.1654837 -14 0 C-9.22895441 -0.8871779 -4.7191598 -1.37007865 0 0 Z " fill="#DFCCDA" transform="translate(59,70)"/>
<path d="M0 0 C0.99 0 1.98 0 3 0 C3 1.98 3 3.96 3 6 C2.34 6 1.68 6 1 6 C1.33 6.99 1.66 7.98 2 9 C2.03954234 11.33299825 2.04401732 13.66708189 2 16 C1.34 16 0.68 16 0 16 C0 10.72 0 5.44 0 0 Z " fill="#9A2161" transform="translate(44,52)"/>
<path d="M0 0 C0.99 0 1.98 0 3 0 C3 4.29 3 8.58 3 13 C2.67 12.34 2.34 11.68 2 11 C1.34 11 0.68 11 0 11 C0 7.37 0 3.74 0 0 Z " fill="#83295C" transform="translate(8,43)"/>
<path d="M0 0 C0.042721 1.66611905 0.04063832 3.33382885 0 5 C-1 6 -1 6 -3.5625 6.0625 C-4.7690625 6.0315625 -4.7690625 6.0315625 -6 6 C-6.33 4.68 -6.66 3.36 -7 2 C-2.25 0 -2.25 0 0 0 Z " fill="#F7E3F2" transform="translate(36,61)"/>
<path d="M0 0 C0.33 0.99 0.66 1.98 1 3 C1.99 3 2.98 3 4 3 C3.25 8.75 3.25 8.75 1 11 C0.01 8.03 -0.98 5.06 -2 2 C-1.34 1.34 -0.68 0.68 0 0 Z " fill="#F8EBF4" transform="translate(69,53)"/>
<path d="M0 0 C0.66 0 1.32 0 2 0 C2.37027708 6.54156171 2.37027708 6.54156171 0.6875 8.625 C0.130625 9.07875 -0.42625 9.5325 -1 10 C-1.495 10.86625 -1.99 11.7325 -2.5 12.625 C-4 15 -4 15 -7 16 C-6.34 14.35 -5.68 12.7 -5 11 C-4.34 11 -3.68 11 -3 11 C-1.38935371 7.34920174 -0.55105909 3.9492568 0 0 Z " fill="#F48487" transform="translate(134,21)"/>
<path d="M0 0 C1.76462683 3.08809695 2 4.23312136 2 8 C0.35 8 -1.3 8 -3 8 C-2.67 6.68 -2.34 5.36 -2 4 C-2.66 4 -3.32 4 -4 4 C-4 3.34 -4 2.68 -4 2 C-2.68 1.34 -1.36 0.68 0 0 Z " fill="#B03E84" transform="translate(112,36)"/>
<path d="M0 0 C1.32 0 2.64 0 4 0 C4.33 1.65 4.66 3.3 5 5 C2.69 5 0.38 5 -2 5 C-1.125 1.125 -1.125 1.125 0 0 Z " fill="#F3E2F2" transform="translate(87,55)"/>
<path d="M0 0 C1.65 0 3.3 0 5 0 C5 1.65 5 3.3 5 5 C4.34 5 3.68 5 3 5 C2.67 5.99 2.34 6.98 2 8 C0.4375 9.6875 0.4375 9.6875 -1 11 C-1.8125 9.3125 -1.8125 9.3125 -2 7 C0.4375 4.25 0.4375 4.25 3 2 C2.01 1.34 1.02 0.68 0 0 Z " fill="#E5CDDE" transform="translate(18,51)"/>
<path d="M0 0 C0.99 0.33 1.98 0.66 3 1 C3.144375 1.94875 3.28875 2.8975 3.4375 3.875 C3.82935399 6.8934494 3.82935399 6.8934494 5 9 C2.83125748 8.49396008 1.00032373 8.00016187 -1 7 C-1.04254356 5.00045254 -1.04080783 2.99958364 -1 1 C-0.67 0.67 -0.34 0.34 0 0 Z " fill="#E78B20" transform="translate(83,35)"/>
<path d="M0 0 C2.05078125 0.03255208 4.1015625 0.06510417 6.15234375 0.09765625 C6.15234375 0.42765625 6.15234375 0.75765625 6.15234375 1.09765625 C3.84234375 1.09765625 1.53234375 1.09765625 -0.84765625 1.09765625 C-0.84765625 1.75765625 -0.84765625 2.41765625 -0.84765625 3.09765625 C1.13234375 3.09765625 3.11234375 3.09765625 5.15234375 3.09765625 C5.48234375 3.75765625 5.81234375 4.41765625 6.15234375 5.09765625 C2.52234375 5.09765625 -1.10765625 5.09765625 -4.84765625 5.09765625 C-2.36122845 0.12480066 -2.36122845 0.12480066 0 0 Z " fill="#DC2F54" transform="translate(109.84765625,14.90234375)"/>
<path d="M0 0 C1.32 0.33 2.64 0.66 4 1 C3.01 1.495 3.01 1.495 2 2 C1.94562393 3.58294782 1.90703729 5.16644256 1.875 6.75 C1.85179688 7.63171875 1.82859375 8.5134375 1.8046875 9.421875 C2.00860498 12.1135858 2.63448279 13.69904974 4 16 C2.68 16 1.36 16 0 16 C0 10.72 0 5.44 0 0 Z " fill="#FAEDB2" transform="translate(80,30)"/>
<path d="M0 0 C0.99 0.33 1.98 0.66 3 1 C4.35348751 1.04288277 5.70893851 1.04048034 7.0625 1 C11 1 11 1 13 2 C13 2.66 13 3.32 13 4 C11.39620659 4.05416188 9.79188594 4.09286638 8.1875 4.125 C7.29417969 4.14820313 6.40085937 4.17140625 5.48046875 4.1953125 C3 4 3 4 0 2 C0 1.34 0 0.68 0 0 Z " fill="#D4255B" transform="translate(91,42)"/>
<path d="M0 0 C1.32 0.66 2.64 1.32 4 2 C4 3.98 4 5.96 4 8 C3.34 7.67 2.68 7.34 2 7 C-0.09821215 7.39938767 -0.09821215 7.39938767 -2 8 C-2.33 7.34 -2.66 6.68 -3 6 C-2.01 6 -1.02 6 0 6 C0 4.02 0 2.04 0 0 Z " fill="#C1308A" transform="translate(110,30)"/>
<path d="M0 0 C0.66 0 1.32 0 2 0 C2.33 4.29 2.66 8.58 3 13 C2.01 12.67 1.02 12.34 0 12 C0 8.04 0 4.08 0 0 Z " fill="#6E6D6E" transform="translate(67,81)"/>
<path d="M0 0 C2.64 0 5.28 0 8 0 C8 0.99 8 1.98 8 3 C4.71303767 3.79953138 3.28976808 4.09658936 0 3 C0 2.01 0 1.02 0 0 Z " fill="#923D6D" transform="translate(87,67)"/>
<path d="M0 0 C0.66 0 1.32 0 2 0 C2 2.97 2 5.94 2 9 C1.67 8.34 1.34 7.68 1 7 C0.67 7.66 0.34 8.32 0 9 C-0.66 9 -1.32 9 -2 9 C-2.20140476 5.37471432 -1.85776765 3.13498292 0 0 Z " fill="#E01E18" transform="translate(100,21)"/>
<path d="M0 0 C0.33 0.66 0.66 1.32 1 2 C1.66 2 2.32 2 3 2 C3 2.66 3 3.32 3 4 C3.66 4 4.32 4 5 4 C5 4.99 5 5.98 5 7 C1.08597051 5.73058503 -0.79072873 4.48832306 -3 1 C-2.01 0.67 -1.02 0.34 0 0 Z " fill="#D32754" transform="translate(105,36)"/>
<path d="M0 0 C2.97 0.33 5.94 0.66 9 1 C9.33 1.99 9.66 2.98 10 4 C6.14354879 4.22036864 3.50776784 3.60355101 0 2 C0 1.34 0 0.68 0 0 Z " fill="#F3F7F8" transform="translate(84,82)"/>
<path d="M0 0 C2.31 0 4.62 0 7 0 C7.33 1.32 7.66 2.64 8 4 C3.545 4.495 3.545 4.495 -1 5 C-1.33 4.34 -1.66 3.68 -2 3 C0.31 3 2.62 3 5 3 C5 2.34 5 1.68 5 1 C3.35 1 1.7 1 0 1 C0 0.67 0 0.34 0 0 Z " fill="#F4CDE9" transform="translate(28,55)"/>
<path d="M0 0 C1.65 0 3.3 0 5 0 C5 1.32 5 2.64 5 4 C3.02 4 1.04 4 -1 4 C-0.67 2.68 -0.34 1.36 0 0 Z " fill="#F5F5F5" transform="translate(89,88)"/>
<path d="M0 0 C1.485 0.99 1.485 0.99 3 2 C2.25 6.75 2.25 6.75 0 9 C-1 8 -1 8 -1.125 5.0625 C-1 2 -1 2 0 0 Z " fill="#9F236A" transform="translate(10,56)"/>
<path d="M0 0 C1.32 0 2.64 0 4 0 C4.625 2.8125 4.625 2.8125 5 6 C4.01 7.485 4.01 7.485 3 9 C2.01 6.03 1.02 3.06 0 0 Z " fill="#94285E" transform="translate(62,52)"/>
<path d="M0 0 C0.99 0 1.98 0 3 0 C3 0.66 3 1.32 3 2 C3.66 2 4.32 2 5 2 C5 2.99 5 3.98 5 5 C5.99 5.33 6.98 5.66 8 6 C2.25 5.25 2.25 5.25 0 3 C0 2.01 0 1.02 0 0 Z " fill="#892862" transform="translate(82,65)"/>
<path d="M0 0 C1.46726798 3.81489674 0.43336419 6.29011622 -1 10 C-2.65 10 -4.3 10 -6 10 C-5.65066406 9.52949219 -5.30132812 9.05898438 -4.94140625 8.57421875 C-4.48636719 7.95160156 -4.03132812 7.32898438 -3.5625 6.6875 C-2.88380859 5.76517578 -2.88380859 5.76517578 -2.19140625 4.82421875 C-0.82663692 2.90322899 -0.82663692 2.90322899 0 0 Z " fill="#FDF4D5" transform="translate(140,22)"/>
<path d="M0 0 C0.33 0.99 0.66 1.98 1 3 C-1.10889262 6.82724957 -2.79609368 9.49860488 -7 11 C-6.67 10.01 -6.34 9.02 -6 8 C-5.34 8 -4.68 8 -4 8 C-3.34 6.02 -2.68 4.04 -2 2 C-1.34 2 -0.68 2 0 2 C0 1.34 0 0.68 0 0 Z " fill="#DCA77B" transform="translate(139,22)"/>
<path d="M0 0 C0 0.33 0 0.66 0 1 C-1.65 1 -3.3 1 -5 1 C-5 1.66 -5 2.32 -5 3 C-6.65 3.66 -8.3 4.32 -10 5 C-10 3.68 -10 2.36 -10 1 C-6.78548731 -0.60725635 -3.56387464 -0.05748185 0 0 Z " fill="#B06888" transform="translate(36,51)"/>
<path d="M0 0 C1.32 0 2.64 0 4 0 C3.67 1.65 3.34 3.3 3 5 C2.01 5.33 1.02 5.66 0 6 C-0.38218767 4.34385343 -0.71395102 2.67542976 -1 1 C-0.67 0.67 -0.34 0.34 0 0 Z " fill="#A63B79" transform="translate(125,52)"/>
<path d="M0 0 C0.66 0 1.32 0 2 0 C2.66 1.32 3.32 2.64 4 4 C2.02 5.32 0.04 6.64 -2 8 C-2.66 7.67 -3.32 7.34 -4 7 C-3.34 6.401875 -2.68 5.80375 -2 5.1875 C0.3373846 3.12498166 0.3373846 3.12498166 0 0 Z " fill="#AE3A78" transform="translate(120,36)"/>
<path d="M0 0 C0.99 0 1.98 0 3 0 C3 1.98 3 3.96 3 6 C2.34 6 1.68 6 1 6 C0.67 6.66 0.34 7.32 0 8 C0 5.36 0 2.72 0 0 Z " fill="#FEFBE1" transform="translate(141,14)"/>
<path d="M0 0 C1.32 0.66 2.64 1.32 4 2 C3.67 3.32 3.34 4.64 3 6 C2.01 6 1.02 6 0 6 C-1 3 -1 3 0 0 Z " fill="#E02E63" transform="translate(93,34)"/>
<path d="M0 0 C1.98 0.99 1.98 0.99 4 2 C4 4.64 4 7.28 4 10 C1.81024227 6.71536341 1.00193437 3.79303725 0 0 Z " fill="#F0DE80" transform="translate(137,12)"/>
<path d="M0 0 C-1.0975223 2.99324263 -1.67682892 3.84610901 -4.625 5.25 C-5.40875 5.4975 -6.1925 5.745 -7 6 C-6.67 5.01 -6.34 4.02 -6 3 C-5.34 3 -4.68 3 -4 3 C-4 2.34 -4 1.68 -4 1 C-2 0 -2 0 0 0 Z " fill="#FAFDFD" transform="translate(111,46)"/>
<path d="M0 0 C0.66 0.66 1.32 1.32 2 2 C1.625 4.625 1.625 4.625 1 7 C0.01 7 -0.98 7 -2 7 C-1.34 4.69 -0.68 2.38 0 0 Z " fill="#AB3574" transform="translate(84,58)"/>
<path d="M0 0 C1.65 0 3.3 0 5 0 C5 0.99 5 1.98 5 3 C3.02 3 1.04 3 -1 3 C-0.67 2.01 -0.34 1.02 0 0 Z " fill="#902960" transform="translate(105,52)"/>
</svg>
