<?xml version="1.0" encoding="UTF-8"?>
<svg version="1.1" xmlns="http://www.w3.org/2000/svg" width="200" height="63">
<path d="M0 0 C20.79 0 41.58 0 63 0 C63 11.55 63 23.1 63 35 C108.21 35 153.42 35 200 35 C200 37.97 200 40.94 200 44 C154.79 44 109.58 44 63 44 C63 50.27 63 56.54 63 63 C42.21 63 21.42 63 0 63 C0 42.21 0 21.42 0 0 Z " fill="#F0A815" transform="translate(0,0)"/>
<path d="M0 0 C4.95 0 9.9 0 15 0 C17.31 6.27 19.62 12.54 22 19 C24.26157932 13.12233346 24.26157932 13.12233346 26.51733398 7.24243164 C26.79907471 6.51403076 27.08081543 5.78562988 27.37109375 5.03515625 C27.65911865 4.2862915 27.94714355 3.53742676 28.24389648 2.76586914 C29 1 29 1 30 0 C34.62 0 39.24 0 44 0 C44 10.56 44 21.12 44 32 C40.7 32 37.4 32 34 32 C33.67 26.72 33.34 21.44 33 16 C31.02 21.28 29.04 26.56 27 32 C23.37 32 19.74 32 16 32 C14.02 26.72 12.04 21.44 10 16 C9.67 21.28 9.34 26.56 9 32 C6.03 32 3.06 32 0 32 C0 21.44 0 10.88 0 0 Z " fill="#2D56A5" transform="translate(74,0)"/>
<path d="M0 0 C7.26 0 14.52 0 22 0 C22.02290956 4.96628434 22.04283643 9.93238663 22.05493164 14.89868164 C22.0599719 16.58944316 22.06680405 18.28020029 22.07543945 19.97094727 C22.08751857 22.39600707 22.09323123 24.82100944 22.09765625 27.24609375 C22.10281754 28.00651474 22.10797882 28.76693573 22.11329651 29.55039978 C22.11349238 31.3673257 22.06197277 33.18413127 22 35 C21 36 21 36 18.95874023 36.11352539 C17.64691772 36.10567017 17.64691772 36.10567017 16.30859375 36.09765625 C15.03326782 36.09390991 15.03326782 36.09390991 13.73217773 36.09008789 C12.64493408 36.08098389 11.55769043 36.07187988 10.4375 36.0625 C6.993125 36.041875 3.54875 36.02125 0 36 C0 24.12 0 12.24 0 0 Z " fill="#3257A2" transform="translate(41,0)"/>
<path d="M0 0 C3.71009822 -0.16235438 7.41306615 -0.2810836 11.125 -0.375 C12.17171875 -0.42527344 13.2184375 -0.47554687 14.296875 -0.52734375 C21.99480964 -0.67350707 21.99480964 -0.67350707 24.91186523 1.28100586 C26.44140625 2.87890625 26.44140625 2.87890625 27.77832031 4.53027344 C29.47912793 6.5764089 31.3603587 7.3642273 33.8125 8.3125 C37.95833333 9.95833333 37.95833333 9.95833333 39 11 C40.70613476 11.24499859 42.41503521 11.47084234 44.125 11.6875 C49.77861172 12.64573928 53.27802069 14.64287064 57 19 C57 19.33 57 19.66 57 20 C38.19 20 19.38 20 0 20 C0 13.4 0 6.8 0 0 Z " fill="#2F56A5" transform="translate(0,43)"/>
<path d="M0 0 C1.29550781 -0.03738281 2.59101563 -0.07476563 3.92578125 -0.11328125 C8.26664808 0.37805259 10.32919021 1.57702215 13.6875 4.3125 C17.65299337 10.05562833 18.39446345 14.40445715 17.6875 21.3125 C16.37498635 25.96164474 14.42488119 28.68494154 10.75 31.8125 C4.96579308 34.61090681 -2.49468321 34.4307167 -8.56640625 32.65234375 C-12.23651383 30.82125336 -14.82601296 28.09797408 -16.65625 24.4375 C-18.37223658 18.88097202 -18.02984485 13.28519833 -16.0625 7.875 C-11.49429792 1.18584695 -7.98346722 0.15003549 0 0 Z M-6.4375 10.25 C-7.62170752 14.39472631 -7.53923187 18.16645684 -6.3125 22.3125 C-5.05946864 24.11783299 -5.05946864 24.11783299 -3.3125 25.3125 C1.30749175 25.81627829 1.30749175 25.81627829 5.5625 24.25 C7.32089049 21.22166083 7.57110441 18.80436773 7.6875 15.3125 C6.91673539 12.78419569 5.89713711 10.68338873 4.6875 8.3125 C-1.36309052 7.5633325 -1.36309052 7.5633325 -6.4375 10.25 Z " fill="#2E56A5" transform="translate(151.3125,-0.3125)"/>
<path d="M0 0 C4 5 4 5 5.625 7.875 C9.56152387 13.05463667 15.44161452 17.83102851 22 19 C20.94780811 15.84342432 20.44425999 15.30692377 17.9375 13.375 C16.968125 12.59125 15.99875 11.8075 15 11 C15 10.67 15 10.34 15 10 C18.52269485 9.5974063 19.79940808 9.86627205 22.8125 11.875 C23.534375 12.57625 24.25625 13.2775 25 14 C25 14.66 25 15.32 25 16 C25.66 16 26.32 16 27 16 C29.1519437 19.22791555 29.20086443 20.28400809 29 24 C27.02 24 25.04 24 23 24 C23.99 25.32 24.98 26.64 26 28 C25.67 28.66 25.34 29.32 25 30 C24.01 30 23.02 30 22 30 C22 30.33 22 30.66 22 31 C14.74 31 7.48 31 0 31 C0 20.77 0 10.54 0 0 Z " fill="#D8194A" transform="translate(0,12)"/>
<path d="M0 0 C10.23 0 20.46 0 31 0 C31 2.64 31 5.28 31 8 C27.7 8 24.4 8 21 8 C21 15.92 21 23.84 21 32 C17.7 32 14.4 32 11 32 C11 24.08 11 16.16 11 8 C7.37 8 3.74 8 0 8 C0 5.36 0 2.72 0 0 Z " fill="#2D56A6" transform="translate(169,0)"/>
<path d="M0 0 C3.21742696 1.39398367 5.11611526 3.01947347 7.4375 5.625 C10.13912271 8.51072551 10.13912271 8.51072551 13.9375 9.4375 C14.618125 9.293125 15.29875 9.14875 16 9 C15.195625 8.5875 14.39125 8.175 13.5625 7.75 C11 6 11 6 10.1875 3.8125 C10.125625 3.214375 10.06375 2.61625 10 2 C10.61875 2.28875 11.2375 2.5775 11.875 2.875 C14.65544449 3.87596002 17.03905903 4.35347089 19.9375 4.8125 C26.39701434 6.04881654 29.49479627 9.10886134 33.625 14.125 C35.76117886 17.02175182 35.76117886 17.02175182 38.3125 18.4375 C40 20 40 20 40.25 23.6875 C40.1675 24.780625 40.085 25.87375 40 27 C37.4375 27.375 37.4375 27.375 34 27 C32.4296875 25.734375 32.4296875 25.734375 30.8125 24.125 C27.06408614 20.55229304 23.59862868 20.05501719 18.55078125 19.51953125 C15.64072901 18.92682536 14.27688992 17.85383522 12 16 C10.9275 15.608125 9.855 15.21625 8.75 14.8125 C3.80386776 12.83833876 0.52790566 8.85778775 -3 5 C-1.68 4.67 -0.36 4.34 1 4 C0.67 2.68 0.34 1.36 0 0 Z " fill="#FDF9F6" transform="translate(23,36)"/>
<path d="M0 0 C1.32 0 2.64 0 4 0 C5.421875 1.828125 5.421875 1.828125 6.75 4.25 C9.79378888 9.16629697 12.73840713 10.91067726 18 13 C25.39866203 16.69933101 30.03526998 23.41377906 33 31 C33 31.66 33 32.32 33 33 C31.125 32.75 31.125 32.75 29 32 C27.75 29.9375 27.75 29.9375 27 28 C26.34 28 25.68 28 25 28 C24.21625 27.175 23.4325 26.35 22.625 25.5 C20.12140805 22.54022989 20.12140805 22.54022989 16 23 C16.99 23.763125 17.98 24.52625 19 25.3125 C20.6875 26.61328125 20.6875 26.61328125 22 28 C22 28.99 22 29.98 22 31 C15.08822964 30.0143643 9.42087096 25.97990742 5.0546875 20.60546875 C1.56758829 15.39166582 -0.12991672 12.21217128 -0.0625 5.875 C-0.05347656 4.77929688 -0.04445312 3.68359375 -0.03515625 2.5546875 C-0.02355469 1.71164062 -0.01195312 0.86859375 0 0 Z " fill="#FDF6F7" transform="translate(0,0)"/>
<path d="M0 0 C3.3 0 6.6 0 10 0 C10 10.56 10 21.12 10 32 C6.37 32 2.74 32 -1 32 C-1.02465504 27.60343827 -1.04283842 23.2069128 -1.05493164 18.81030273 C-1.05997121 17.31355082 -1.06680287 15.81680384 -1.07543945 14.32006836 C-1.08752159 12.17300193 -1.09323191 10.02600038 -1.09765625 7.87890625 C-1.10289307 6.5854126 -1.10812988 5.29191895 -1.11352539 3.95922852 C-1 1 -1 1 0 0 Z " fill="#3056A4" transform="translate(122,0)"/>
<path d="M0 0 C8.25 0 16.5 0 25 0 C25 7.26 25 14.52 25 22 C22.69 20.02 20.38 18.04 18 16 C14.96266134 14.3618536 14.96266134 14.3618536 11.9375 13.125 C6.37714169 10.48784135 2.83200087 7.51494906 0 2 C0 1.34 0 0.68 0 0 Z " fill="#D71549" transform="translate(4,0)"/>
<path d="M0 0 C6.07058824 1.01176471 6.07058824 1.01176471 10 4 C12.57290054 4.56614185 12.57290054 4.56614185 15.3125 4.8125 C20.91407654 5.68352263 24.32268148 7.69515272 28 12 C28 12.33 28 12.66 28 13 C18.76 13 9.52 13 0 13 C0 8.71 0 4.42 0 0 Z " fill="#F0A915" transform="translate(29,50)"/>
<path d="M0 0 C3.77057547 -0.11597653 7.54069393 -0.18717396 11.3125 -0.25 C12.38435547 -0.28351562 13.45621094 -0.31703125 14.56054688 -0.3515625 C15.58857422 -0.36445312 16.61660156 -0.37734375 17.67578125 -0.390625 C18.62364502 -0.41157227 19.57150879 -0.43251953 20.5480957 -0.45410156 C23 0 23 0 24.83276367 2.02441406 C25.21795166 2.67635742 25.60313965 3.32830078 26 4 C25.67 4.66 25.34 5.32 25 6 C24.01 6 23.02 6 22 6 C22 6.33 22 6.66 22 7 C14.74 7 7.48 7 0 7 C0 4.69 0 2.38 0 0 Z " fill="#EEA917" transform="translate(0,36)"/>
<path d="M0 0 C2.95887459 -0.08069658 5.9155659 -0.14034665 8.875 -0.1875 C9.71675781 -0.21263672 10.55851562 -0.23777344 11.42578125 -0.26367188 C12.23144531 -0.27333984 13.03710938 -0.28300781 13.8671875 -0.29296875 C14.98262939 -0.31653442 14.98262939 -0.31653442 16.12060547 -0.34057617 C17.05090576 -0.17199097 17.05090576 -0.17199097 18 0 C20.20914 3.31371 20.22481553 4.3446021 20.125 8.1875 C20.10695312 9.08855469 20.08890625 9.98960938 20.0703125 10.91796875 C20.04710937 11.60503906 20.02390625 12.29210938 20 13 C19.01 13 18.02 13 17 13 C17 9.7 17 6.4 17 3 C15.68 3 14.36 3 13 3 C12.34 6.3 11.68 9.6 11 13 C10.01 13 9.02 13 8 13 C8 9.37 8 5.74 8 2 C6.02 2.99 6.02 2.99 4 4 C3.3006486 6.18541552 3.3006486 6.18541552 3.25 8.625 C3.19328125 9.44226562 3.1365625 10.25953125 3.078125 11.1015625 C3.05234375 11.72804688 3.0265625 12.35453125 3 13 C2.01 13 1.02 13 0 13 C0 8.71 0 4.42 0 0 Z " fill="#2D55A6" transform="translate(113,50)"/>
<path d="M0 0 C1.051875 0.01160156 1.051875 0.01160156 2.125 0.0234375 C2.82625 0.01570313 3.5275 0.00796875 4.25 0 C6.125 0.3984375 6.125 0.3984375 8.125 3.3984375 C8.49667184 6.15864746 8.30350636 8.58696226 8.125 11.3984375 C6.125 13.3984375 6.125 13.3984375 2.1875 13.8359375 C0.0390625 13.78125 0.0390625 13.78125 -1.875 13.3984375 C-3.9375 11.2109375 -3.9375 11.2109375 -4.875 8.3984375 C-4.62315387 4.87259169 -3.95829356 0.84113738 0 0 Z M-0.875 3.3984375 C-0.875 4.0584375 -0.875 4.7184375 -0.875 5.3984375 C1.105 5.3984375 3.085 5.3984375 5.125 5.3984375 C5.125 4.7384375 5.125 4.0784375 5.125 3.3984375 C2.07586772 2.38732657 2.07586772 2.38732657 -0.875 3.3984375 Z M-0.875 8.3984375 C-0.545 9.3884375 -0.215 10.3784375 0.125 11.3984375 C1.775 11.0684375 3.425 10.7384375 5.125 10.3984375 C5.125 9.7384375 5.125 9.0784375 5.125 8.3984375 C3.145 8.3984375 1.165 8.3984375 -0.875 8.3984375 Z " fill="#2E56A5" transform="translate(103.875,49.6015625)"/>
<path d="M0 0 C0.99 0 1.98 0 3 0 C3 0.99 3 1.98 3 3 C3.66 3 4.32 3 5 3 C5 3.99 5 4.98 5 6 C4.34 6 3.68 6 3 6 C3 8.64 3 11.28 3 14 C3.99 14 4.98 14 6 14 C6 10.37 6 6.74 6 3 C6.99 3 7.98 3 9 3 C9 7.29 9 11.58 9 16 C6.03 16 3.06 16 0 16 C0 12.7 0 9.4 0 6 C-0.99 5.67 -1.98 5.34 -3 5 C-3 4.34 -3 3.68 -3 3 C-2.01 3 -1.02 3 0 3 C0 2.01 0 1.02 0 0 Z " fill="#2D55A6" transform="translate(148,47)"/>
<path d="M0 0 C1.32229189 2.64458379 1.09677194 4.67761301 1.0625 7.625 C1.05347656 8.62789062 1.04445312 9.63078125 1.03515625 10.6640625 C1.02355469 11.43492188 1.01195312 12.20578125 1 13 C-2.3 13 -5.6 13 -9 13 C-9.625 10.125 -9.625 10.125 -10 7 C-8 5 -8 5 -4.875 4.875 C-3.92625 4.91625 -2.9775 4.9575 -2 5 C-2.33 4.34 -2.66 3.68 -3 3 C-4.98 3.33 -6.96 3.66 -9 4 C-9 3.01 -9 2.02 -9 1 C-6.04335481 -0.4783226 -3.25770263 -0.06032783 0 0 Z M-3 7 C-4.32 7.33 -5.64 7.66 -7 8 C-6.67 8.99 -6.34 9.98 -6 11 C-4.68 10.67 -3.36 10.34 -2 10 C-2.33 9.01 -2.66 8.02 -3 7 Z " fill="#2E56A5" transform="translate(195,50)"/>
<path d="M0 0 C3.5 -0.3125 3.5 -0.3125 7 0 C9 2 9 2 9.1953125 4.6015625 C9.17210937 5.59929688 9.14890625 6.59703125 9.125 7.625 C9.10695312 8.62789062 9.08890625 9.63078125 9.0703125 10.6640625 C9.03550781 11.82035156 9.03550781 11.82035156 9 13 C7.35425434 13.02688151 5.70838587 13.04634123 4.0625 13.0625 C3.14597656 13.07410156 2.22945312 13.08570313 1.28515625 13.09765625 C-1 13 -1 13 -2 12 C-2.1875 9.5625 -2.1875 9.5625 -2 7 C0 5 0 5 3.125 4.875 C4.07375 4.91625 5.0225 4.9575 6 5 C5.67 4.34 5.34 3.68 5 3 C4.01 2.67 3.02 2.34 2 2 C2 2.66 2 3.32 2 4 C0.68 3.67 -0.64 3.34 -2 3 C-1.34 2.01 -0.68 1.02 0 0 Z M1 8 C1 8.99 1 9.98 1 11 C2.65 10.67 4.3 10.34 6 10 C6 9.01 6 8.02 6 7 C3.78918149 6.89459074 3.78918149 6.89459074 1 8 Z " fill="#2D55A6" transform="translate(136,50)"/>
<path d="M0 0 C4.62 0 9.24 0 14 0 C13.67 4.29 13.34 8.58 13 13 C7.63653436 9.86041036 3.80008592 5.91312884 0 1 C0 0.67 0 0.34 0 0 Z " fill="#D6164C" transform="translate(50,43)"/>
<path d="M0 0 C6.43202331 0.02917017 10.07932333 1.18593766 14.78515625 5.625 C16 7 16 7 16 8 C10.72 8 5.44 8 0 8 C0 5.36 0 2.72 0 0 Z " fill="#D81648" transform="translate(41,55)"/>
<path d="M0 0 C0.70125 -0.01675781 1.4025 -0.03351562 2.125 -0.05078125 C2.74375 0.06910156 3.3625 0.18898437 4 0.3125 C6.45811625 3.99967438 6.31118164 5.95595704 6 10.3125 C5.01 11.7975 5.01 11.7975 4 13.3125 C0.91781063 13.70388913 -1.05453113 13.94968306 -4 13.3125 C-6.0625 11.1875 -6.0625 11.1875 -7 8.3125 C-6.68268197 2.91809345 -5.71329437 0.03150714 0 0 Z M-2 2.3125 C-4.33391203 5.09364056 -4.33391203 5.09364056 -3.625 8 C-3.41875 8.763125 -3.2125 9.52625 -3 10.3125 C-1.34385343 10.69468767 0.32457024 11.02645102 2 11.3125 C3.41577477 10.12825674 3.41577477 10.12825674 3.0625 6.75 C3.041875 5.615625 3.02125 4.48125 3 3.3125 C1.35 2.9825 -0.3 2.6525 -2 2.3125 Z " fill="#2E56A5" transform="translate(165,49.6875)"/>
<path d="M0 0 C1.60875 -0.04125 3.2175 -0.0825 4.875 -0.125 C5.77992188 -0.14820313 6.68484375 -0.17140625 7.6171875 -0.1953125 C10 0 10 0 12 2 C12.1953125 4.6015625 12.1953125 4.6015625 12.125 7.625 C12.10695312 8.62789062 12.08890625 9.63078125 12.0703125 10.6640625 C12.03550781 11.82035156 12.03550781 11.82035156 12 13 C11.01 13 10.02 13 9 13 C8.67 9.7 8.34 6.4 8 3 C7.01 3 6.02 3 5 3 C4.67 6.3 4.34 9.6 4 13 C3.01 13 2.02 13 1 13 C0.67 8.71 0.34 4.42 0 0 Z " fill="#2F56A5" transform="translate(172,50)"/>
<path d="M0 0 C6.8359375 -0.1953125 6.8359375 -0.1953125 9 0 C11 2 11 2 11.1953125 4.6015625 C11.17210938 5.59929688 11.14890625 6.59703125 11.125 7.625 C11.10695313 8.62789062 11.08890625 9.63078125 11.0703125 10.6640625 C11.03550781 11.82035156 11.03550781 11.82035156 11 13 C10.01 13 9.02 13 8 13 C7.67 9.7 7.34 6.4 7 3 C6.01 3 5.02 3 4 3 C3.67 6.3 3.34 9.6 3 13 C2.01 13 1.02 13 0 13 C0 8.71 0 4.42 0 0 Z " fill="#2D55A6" transform="translate(80,50)"/>
<path d="M0 0 C0.66 0 1.32 0 2 0 C2 0.99 2 1.98 2 3 C2.99 3 3.98 3 5 3 C5 3.99 5 4.98 5 6 C4.01 6 3.02 6 2 6 C2 8.64 2 11.28 2 14 C2.99 14 3.98 14 5 14 C5 14.66 5 15.32 5 16 C3.33388095 16.042721 1.66617115 16.04063832 0 16 C-1.91683709 14.08316291 -1.42750305 10.63442708 -1.62109375 8.03125 C-1.74613281 7.3609375 -1.87117188 6.690625 -2 6 C-2.66 5.67 -3.32 5.34 -4 5 C-4 4.34 -4 3.68 -4 3 C-3.01 3 -2.02 3 -1 3 C-0.67 2.01 -0.34 1.02 0 0 Z " fill="#2E56A5" transform="translate(95,47)"/>
<path d="M0 0 C0.99 0 1.98 0 3 0 C3 5.94 3 11.88 3 18 C2.01 18 1.02 18 0 18 C0 12.06 0 6.12 0 0 Z " fill="#2D55A6" transform="translate(74,45)"/>
<path d="M0 0 C0.66 0 1.32 0 2 0 C2 5.94 2 11.88 2 18 C1.34 18 0.68 18 0 18 C0 12.06 0 6.12 0 0 Z " fill="#2D55A6" transform="translate(198,45)"/>
<path d="M0 0 C0.5775 0.78375 1.155 1.5675 1.75 2.375 C3.82897637 4.80047244 5.09040333 5.85694417 8 7 C8 7.33 8 7.66 8 8 C4.29706315 8.33663062 2.60465619 8.47736015 -0.375 6.125 C-2 4 -2 4 -2 2 C-1.34 2 -0.68 2 0 2 C0 1.34 0 0.68 0 0 Z " fill="#F1B12E" transform="translate(32,38)"/>
<path d="M0 0 C0.99 0 1.98 0 3 0 C3 0.99 3 1.98 3 3 C2.01 3 1.02 3 0 3 C0 2.01 0 1.02 0 0 Z " fill="#2C55A7" transform="translate(154,45)"/>
</svg>
