<?xml version="1.0" encoding="UTF-8"?>
<svg version="1.1" xmlns="http://www.w3.org/2000/svg" width="384" height="169">
<path d="M0 0 C126.72 0 253.44 0 384 0 C384 55.77 384 111.54 384 169 C257.28 169 130.56 169 0 169 C0 113.23 0 57.46 0 0 Z " fill="#2E5A9C" transform="translate(0,0)"/>
<path d="M0 0 C3.73965388 6.94507149 4.57287858 13.17954129 4 21 C3.505 21.495 3.505 21.495 3 22 C5.64 22.66 8.28 23.32 11 24 C10.505 23.01 10.505 23.01 10 22 C9.960008 20.00039988 9.95653201 17.99952758 10 16 C10.99 16 11.98 16 13 16 C13.268125 15.4225 13.53625 14.845 13.8125 14.25 C15.01956868 11.96292251 16.45100356 10.06532859 18 8 C18.69580267 6.68163705 19.37224433 5.35208914 20 4 C21 5 21 5 21.3125 7.375 C21.00456087 10.94709396 20.20111655 13.05564605 18.8125 16.3125 C16.78045733 21.48111027 17.04530782 24.3683228 19.203125 29.41796875 C19.59757812 30.20107422 19.59757812 30.20107422 20 31 C20.66 31 21.32 31 22 31 C22.90329218 29.80646968 23.74781482 28.56818286 24.5625 27.3125 C27.91582403 22.62783145 31.84021773 20.38496603 37 18 C36.28125 22.7421875 36.28125 22.7421875 33.75 25.0625 C32.8425 25.701875 31.935 26.34125 31 27 C27.46330456 29.55194674 27.46330456 29.55194674 25 33 C24.34 33 23.68 33 23 33 C23.15984375 33.70640625 23.3196875 34.4128125 23.484375 35.140625 C24.91923773 43.09759107 24.93300119 51.7593865 21 59 C17.42142356 63.74369435 12.97179525 67.83502764 7 69 C-6.10798083 70.07591519 -6.10798083 70.07591519 -12 66 C-13.65816784 65.31246699 -15.32459336 64.64438717 -17 64 C-17.55945313 63.65839844 -18.11890625 63.31679687 -18.6953125 62.96484375 C-21.91382153 61.61743404 -24.83544485 61.71585772 -28.3125 61.625 C-34.22827964 61.35535713 -38.33097301 60.8003708 -43 57 C-44.4375 54.75 -44.4375 54.75 -45 53 C-44.01 53.33 -43.02 53.66 -42 54 C-40.59335074 54.14492123 -39.1818867 54.24628931 -37.76953125 54.31640625 C-36.96708984 54.35830078 -36.16464844 54.40019531 -35.33789062 54.44335938 C-34.50451172 54.48267578 -33.67113281 54.52199219 -32.8125 54.5625 C-31.5450293 54.62727539 -31.5450293 54.62727539 -30.25195312 54.69335938 C-28.16815567 54.79931518 -26.08409897 54.9001502 -24 55 C-24.02320312 54.154375 -24.04640625 53.30875 -24.0703125 52.4375 C-24.23567793 42.04310158 -24.23567793 42.04310158 -22.75 37.4375 C-22.5025 36.303125 -22.255 35.16875 -22 34 C-23.9379001 31.01240402 -25.80246279 30.09465325 -29 28.5625 C-32.40344513 26.78987233 -33.98693655 25.25187173 -36 22 C-36.25 19.1875 -36.25 19.1875 -36 17 C-35.54109375 17.40992187 -35.0821875 17.81984375 -34.609375 18.2421875 C-33.99578125 18.78101562 -33.3821875 19.31984375 -32.75 19.875 C-32.14671875 20.40867187 -31.5434375 20.94234375 -30.921875 21.4921875 C-29.04769523 23.06912392 -29.04769523 23.06912392 -26.828125 24.0703125 C-25 25 -25 25 -24 27 C-21.98330173 28.13350534 -21.98330173 28.13350534 -20 29 C-20 29.66 -20 30.32 -20 31 C-19.01 31 -18.02 31 -17 31 C-17.185625 30.113125 -17.37125 29.22625 -17.5625 28.3125 C-18 25 -18 25 -17.375 22.5703125 C-16.90008721 19.31518106 -17.65639529 18.27035838 -19.4375 15.5625 C-21.68163526 11.85533733 -22.56751715 9.42663377 -22 5 C-21.4225 5.7425 -20.845 6.485 -20.25 7.25 C-16.0950251 12.64345514 -16.0950251 12.64345514 -10 15 C-10 17.64 -10 20.28 -10 23 C-7.69 23 -5.38 23 -3 23 C-3.03480469 21.84242187 -3.06960937 20.68484375 -3.10546875 19.4921875 C-3.13362207 17.9531396 -3.16092056 16.41407589 -3.1875 14.875 C-3.21263672 14.11445313 -3.23777344 13.35390625 -3.26367188 12.5703125 C-3.32797453 7.5975739 -2.65594442 4.36383518 0 0 Z " fill="#EDC84D" transform="translate(63,16)"/>
<path d="M0 0 C5.94 0 11.88 0 18 0 C21.72809941 7.99142102 24.79189749 16.20548353 27.85595703 24.46777344 C28.75636371 26.89213439 29.66508503 29.31327521 30.57421875 31.734375 C31.14894262 33.27845792 31.72317923 34.8227223 32.296875 36.3671875 C32.56868591 37.08905243 32.84049683 37.81091736 33.12054443 38.55465698 C34.20954045 41.51071232 35 43.82263015 35 47 C35.66 47 36.32 47 37 47 C37.09676025 46.34837891 37.19352051 45.69675781 37.29321289 45.02539062 C38.22688899 41.02880542 39.74638225 37.38167009 41.30859375 33.59375 C41.63537613 32.79142944 41.96215851 31.98910889 42.29884338 31.16247559 C43.3409158 28.60660077 44.38908182 26.05327744 45.4375 23.5 C46.13908179 21.78271949 46.840258 20.06527323 47.54101562 18.34765625 C49.08914743 14.55431019 50.64118929 10.76259062 52.19676208 6.97229004 C53.141565 4.65239784 54.06970139 2.32574652 55 0 C60.94 0 66.88 0 73 0 C72.67 0.99 72.34 1.98 72 3 C69.9375 3.6875 69.9375 3.6875 68 4 C67.93050371 11.3800015 67.87719086 18.7599325 67.84456348 26.14019489 C67.82890426 29.56713223 67.80766196 32.99384577 67.77368164 36.4206543 C67.73486486 40.35983608 67.72029284 44.29892709 67.70703125 48.23828125 C67.69154739 49.46960281 67.67606354 50.70092438 67.66011047 51.96955872 C67.65988388 53.11051498 67.65965729 54.25147125 67.65942383 55.42700195 C67.65276199 56.432939 67.64610016 57.43887604 67.63923645 58.47529602 C68.05759624 61.40307136 68.67694576 62.2411928 71 64 C71.66 64.33 72.32 64.66 73 65 C73 65.99 73 66.98 73 68 C66.07 68 59.14 68 52 68 C52 67.01 52 66.02 52 65 C52.639375 64.71125 53.27875 64.4225 53.9375 64.125 C56.15206079 63.17176549 56.15206079 63.17176549 57 61 C57.08991092 59.45772144 57.11756961 57.91159105 57.11352539 56.36669922 C57.11344986 55.40585419 57.11337433 54.44500916 57.11329651 53.45504761 C57.10813522 52.41542877 57.10297394 51.37580994 57.09765625 50.3046875 C57.0962413 49.24210724 57.09482635 48.17952698 57.09336853 47.08474731 C57.08775834 43.68146991 57.07520409 40.27825762 57.0625 36.875 C57.05748631 34.57161553 57.05292318 32.26823003 57.04882812 29.96484375 C57.0377856 24.30987351 57.02103752 18.65494141 57 13 C56.57178955 14.06847168 56.1435791 15.13694336 55.70239258 16.23779297 C54.09451154 20.24651235 52.48103746 24.25296152 50.8659668 28.25878906 C50.1711077 29.98442291 49.47771527 31.71064816 48.78588867 33.4375 C41.41018551 51.84214269 41.41018551 51.84214269 37 60 C35.02 60 33.04 60 31 60 C30.63237549 59.00782471 30.26475098 58.01564941 29.88598633 56.9934082 C28.49827966 53.24880701 27.10951479 49.50459896 25.72045898 45.76049805 C25.12382416 44.15187816 24.5274617 42.54315722 23.93139648 40.93432617 C20.34880485 31.2652458 16.73253979 21.61243672 13 12 C12.97467913 18.78099776 12.95714543 25.56198337 12.94506836 32.34301758 C12.94003449 34.6506394 12.93320695 36.95825803 12.92456055 39.26586914 C12.91245365 42.57959786 12.90676227 45.89328448 12.90234375 49.20703125 C12.89718246 50.2414888 12.89202118 51.27594635 12.88670349 52.3417511 C12.88662796 53.3025206 12.88655243 54.2632901 12.88647461 55.25317383 C12.88314369 56.52225334 12.88314369 56.52225334 12.87974548 57.81697083 C12.91375879 60.18055791 12.91375879 60.18055791 14 63 C16.50447516 64.21869929 16.50447516 64.21869929 19 65 C19 65.99 19 66.98 19 68 C12.73 68 6.46 68 0 68 C0 67.01 0 66.02 0 65 C0.639375 64.71125 1.27875 64.4225 1.9375 64.125 C4.15206079 63.17176549 4.15206079 63.17176549 5 61 C5.11599874 59.2652174 5.16959533 57.52609834 5.19287109 55.78759766 C5.20893402 54.69951813 5.22499695 53.6114386 5.24154663 52.49038696 C5.2858951 47.51703449 5.3270491 42.54381626 5.35009766 37.5703125 C5.36667719 34.9435949 5.39399293 32.31692277 5.43212891 29.69042969 C5.48675118 25.91056832 5.5087491 22.13176478 5.5234375 18.3515625 C5.54610687 17.17542389 5.56877625 15.99928528 5.59213257 14.7875061 C5.79212941 8.43007378 5.79212941 8.43007378 2.46728516 3.35302734 C1.65308105 2.90652832 0.83887695 2.4600293 0 2 C0 1.34 0 0.68 0 0 Z " fill="#F3F9FB" transform="translate(232,17)"/>
<path d="M0 0 C0 4.62 0 9.24 0 14 C-1.65 14 -3.3 14 -5 14 C-6.4765625 12.3203125 -6.4765625 12.3203125 -7.625 10.125 C-9.28952629 7.00820245 -9.93571979 6.04285347 -13 4 C-15.83403643 3.60657482 -15.83403643 3.60657482 -18.9375 3.625 C-19.97777344 3.59664062 -21.01804687 3.56828125 -22.08984375 3.5390625 C-25.08203009 3.78614352 -25.08203009 3.78614352 -27.34765625 5.71484375 C-29.26704861 8.36932255 -29.53999573 9.6928464 -29.5 12.9375 C-29.5103125 13.77152344 -29.520625 14.60554688 -29.53125 15.46484375 C-28.79097887 18.99746111 -27.58073529 20.45527497 -25 23 C-22.15750559 24.79470297 -19.18459526 26.29440017 -16.1875 27.8125 C-8.89634084 31.66437841 -2.80347267 35.39305465 1 43 C1.68715293 51.08726136 1.02052656 56.40802246 -4.3125 62.75 C-9.9446823 67.46531541 -15.93359705 67.31211887 -22.9375 67.25 C-24.23977539 67.26160156 -24.23977539 67.26160156 -25.56835938 67.2734375 C-30.76511113 67.25772548 -35.08073717 66.6866044 -40 65 C-40 60.38 -40 55.76 -40 51 C-38.35 51 -36.7 51 -35 51 C-34.73445313 51.55429688 -34.46890625 52.10859375 -34.1953125 52.6796875 C-33.84210938 53.40414062 -33.48890625 54.12859375 -33.125 54.875 C-32.77695312 55.59429687 -32.42890625 56.31359375 -32.0703125 57.0546875 C-30.77614789 59.40685529 -29.74449851 60.75445715 -27.15234375 61.609375 C-22.28256528 62.49318234 -17.68585226 62.68151474 -13.0625 60.8125 C-9.77740802 57.92560099 -9.14186399 55.33352149 -8.6875 51.0625 C-9.06970553 47.31688578 -10.01331098 45.20737629 -12 42 C-14.23307358 40.43857066 -16.22553707 39.21724812 -18.625 38 C-19.88657108 37.31723291 -21.14698861 36.63233014 -22.40625 35.9453125 C-23.01984375 35.61563477 -23.6334375 35.28595703 -24.265625 34.94628906 C-36.34133142 28.35768573 -36.34133142 28.35768573 -39 22 C-39.86198833 16.59490925 -40.2652474 11.4616898 -37.70703125 6.484375 C-28.8001277 -4.52186737 -12.54089731 -4.1802991 0 0 Z " fill="#F0F7FB" transform="translate(365,18)"/>
<path d="M0 0 C0 4.62 0 9.24 0 14 C-1.65 14 -3.3 14 -5 14 C-5.25394531 13.44570313 -5.50789063 12.89140625 -5.76953125 12.3203125 C-6.11371094 11.59585937 -6.45789063 10.87140625 -6.8125 10.125 C-7.14894531 9.40570313 -7.48539063 8.68640625 -7.83203125 7.9453125 C-8.99467097 5.69457194 -8.99467097 5.69457194 -12 4 C-17.53782282 3.25057953 -22.38627781 3.03797331 -27.25 5.9375 C-29.54563492 9.95486112 -30.12352118 13.47492161 -29 18 C-25.89549242 23.18779556 -21.39365959 25.17545669 -16.1875 27.8125 C-8.89634084 31.66437841 -2.80347267 35.39305465 1 43 C1.72496763 49.73184229 1.85998957 55.81100277 -2.359375 61.375 C-8.01778409 66.97951948 -14.38952047 67.34393999 -22 67.375 C-28.23238989 67.29838011 -33.99443354 66.7794271 -40 65 C-40 60.38 -40 55.76 -40 51 C-38.35 51 -36.7 51 -35 51 C-34.76925781 51.54269531 -34.53851563 52.08539063 -34.30078125 52.64453125 C-32.80643727 55.9226376 -31.51753698 58.51290637 -28.875 61 C-23.55172325 62.85157452 -18.18380495 62.95541466 -13 60.6875 C-10.78264147 58.97536603 -10.78264147 58.97536603 -9 56 C-8.54726604 50.47664575 -8.60068745 46.59906992 -12 42 C-15.93102318 39.15364803 -20.19864953 36.95315552 -24.48046875 34.6875 C-29.02818759 32.24986176 -32.55721373 29.94907837 -36 26 C-36.52980469 25.41089844 -37.05960938 24.82179688 -37.60546875 24.21484375 C-40.29583507 19.94190901 -39.58626901 14.85951871 -39 10 C-36.43260919 4.67504129 -32.77331229 1.10616445 -27.2578125 -1.09375 C-18.36018323 -3.56886989 -8.83030897 -2.14068096 0 0 Z " fill="#F2F9FC" transform="translate(170,18)"/>
<path d="M0 0 C3.73965388 6.94507149 4.57287858 13.17954129 4 21 C3.505 21.495 3.505 21.495 3 22 C5.64 22.66 8.28 23.32 11 24 C10.505 23.01 10.505 23.01 10 22 C9.960008 20.00039988 9.95653201 17.99952758 10 16 C10.99 16 11.98 16 13 16 C13.268125 15.4225 13.53625 14.845 13.8125 14.25 C15.01956868 11.96292251 16.45100356 10.06532859 18 8 C18.69580267 6.68163705 19.37224433 5.35208914 20 4 C21 5 21 5 21.3125 7.375 C21.00456087 10.94709396 20.20111655 13.05564605 18.8125 16.3125 C16.78045733 21.48111027 17.04530782 24.3683228 19.203125 29.41796875 C19.59757812 30.20107422 19.59757812 30.20107422 20 31 C20.66 31 21.32 31 22 31 C22.90329218 29.80646968 23.74781482 28.56818286 24.5625 27.3125 C27.91582403 22.62783145 31.84021773 20.38496603 37 18 C36.28125 22.7421875 36.28125 22.7421875 33.75 25.0625 C32.8425 25.701875 31.935 26.34125 31 27 C27.46330456 29.55194674 27.46330456 29.55194674 25 33 C24.34 33 23.68 33 23 33 C23.495 37.455 23.495 37.455 24 42 C21.98518772 39.61885822 20.97006279 37.90020929 20.0625 34.875 C19.309513 31.95100526 19.309513 31.95100526 17.25 30.875 C16.13625 30.441875 16.13625 30.441875 15 30 C14.01 29.319375 13.02 28.63875 12 27.9375 C7.14645249 24.80291724 2.74108109 24.4353035 -3 25 C-8.98629226 26.34549045 -13.99007638 29.34036723 -18 34 C-21.89291296 40.46387655 -21.923278 46.63895631 -21 54 C-19.73930526 57.08636749 -18.11984174 59.44976615 -16 62 C-15.34 62.99 -14.68 63.98 -14 65 C-14.8353125 64.5359375 -14.8353125 64.5359375 -15.6875 64.0625 C-20.12297037 62.02458118 -24.55142233 61.88800501 -29.375 61.6875 C-35.0678397 61.27488195 -38.49046607 60.50741528 -43 57 C-44.4375 54.75 -44.4375 54.75 -45 53 C-44.01 53.33 -43.02 53.66 -42 54 C-40.59335074 54.14492123 -39.1818867 54.24628931 -37.76953125 54.31640625 C-36.96708984 54.35830078 -36.16464844 54.40019531 -35.33789062 54.44335938 C-34.50451172 54.48267578 -33.67113281 54.52199219 -32.8125 54.5625 C-31.5450293 54.62727539 -31.5450293 54.62727539 -30.25195312 54.69335938 C-28.16815567 54.79931518 -26.08409897 54.9001502 -24 55 C-24.02320312 54.154375 -24.04640625 53.30875 -24.0703125 52.4375 C-24.23567793 42.04310158 -24.23567793 42.04310158 -22.75 37.4375 C-22.5025 36.303125 -22.255 35.16875 -22 34 C-23.9379001 31.01240402 -25.80246279 30.09465325 -29 28.5625 C-32.40344513 26.78987233 -33.98693655 25.25187173 -36 22 C-36.25 19.1875 -36.25 19.1875 -36 17 C-35.54109375 17.40992187 -35.0821875 17.81984375 -34.609375 18.2421875 C-33.99578125 18.78101562 -33.3821875 19.31984375 -32.75 19.875 C-32.14671875 20.40867187 -31.5434375 20.94234375 -30.921875 21.4921875 C-29.04769523 23.06912392 -29.04769523 23.06912392 -26.828125 24.0703125 C-25 25 -25 25 -24 27 C-21.98330173 28.13350534 -21.98330173 28.13350534 -20 29 C-20 29.66 -20 30.32 -20 31 C-19.01 31 -18.02 31 -17 31 C-17.185625 30.113125 -17.37125 29.22625 -17.5625 28.3125 C-18 25 -18 25 -17.375 22.5703125 C-16.90008721 19.31518106 -17.65639529 18.27035838 -19.4375 15.5625 C-21.68163526 11.85533733 -22.56751715 9.42663377 -22 5 C-21.4225 5.7425 -20.845 6.485 -20.25 7.25 C-16.0950251 12.64345514 -16.0950251 12.64345514 -10 15 C-10 17.64 -10 20.28 -10 23 C-7.69 23 -5.38 23 -3 23 C-3.03480469 21.84242187 -3.06960937 20.68484375 -3.10546875 19.4921875 C-3.13362207 17.9531396 -3.16092056 16.41407589 -3.1875 14.875 C-3.21263672 14.11445313 -3.23777344 13.35390625 -3.26367188 12.5703125 C-3.32797453 7.5975739 -2.65594442 4.36383518 0 0 Z " fill="#455A7B" transform="translate(63,16)"/>
<path d="M0 0 C7.26 0 14.52 0 22 0 C21 3 21 3 18.9375 4.1875 C18.298125 4.455625 17.65875 4.72375 17 5 C16.95366694 12.24965244 16.91812592 19.49927297 16.89637566 26.74904346 C16.8859368 30.11538229 16.87177591 33.48161985 16.84912109 36.84790039 C16.82492189 40.71763815 16.81352808 44.58723176 16.8046875 48.45703125 C16.79436493 49.66647903 16.78404236 50.87592682 16.77340698 52.12202454 C16.77325592 53.24296005 16.77310486 54.36389557 16.77294922 55.51879883 C16.76628738 57.00105705 16.76628738 57.00105705 16.75949097 58.51325989 C16.82687755 61.25167629 16.82687755 61.25167629 19 64 C20.485 64.495 20.485 64.495 22 65 C22 65.99 22 66.98 22 68 C14.74 68 7.48 68 0 68 C0 67.01 0 66.02 0 65 C1.21748428 64.33562927 1.21748428 64.33562927 2.45956421 63.65783691 C5.23638727 62.25474507 5.23638727 62.25474507 5.63491821 59.4954834 C5.63889618 58.49859497 5.64287415 57.50170654 5.64697266 56.47460938 C5.67061386 54.77769958 5.67061386 54.77769958 5.69473267 53.04650879 C5.67955093 51.21364319 5.67955093 51.21364319 5.6640625 49.34375 C5.66884613 48.0899353 5.67362976 46.83612061 5.67855835 45.54431152 C5.68196451 42.89048286 5.67522755 40.23895027 5.65185547 37.58544922 C5.62336445 34.18514743 5.63976851 30.78681844 5.66971779 27.38658905 C5.69213513 24.14307194 5.67643746 20.89979286 5.6640625 17.65625 C5.67418365 16.4343396 5.68430481 15.2124292 5.69473267 13.95349121 C5.67897186 12.82221802 5.66321106 11.69094482 5.64697266 10.52539062 C5.64299469 9.5285022 5.63901672 8.53161377 5.63491821 7.5045166 C5.23090281 4.74578251 5.23090281 4.74578251 2.45956421 3.27966309 C1.64790802 2.85737427 0.83625183 2.43508545 0 2 C0 1.34 0 0.68 0 0 Z " fill="#F7FBFC" transform="translate(190,17)"/>
<path d="M0 0 C38.61 0 77.22 0 117 0 C117.495 2.475 117.495 2.475 118 5 C78.73 5 39.46 5 -1 5 C-0.67 3.35 -0.34 1.7 0 0 Z " fill="#656A85" transform="translate(17,147)"/>
<path d="M0 0 C3.3 0 6.6 0 10 0 C10 3.63 10 7.26 10 11 C13.63 11 17.26 11 21 11 C21 14.3 21 17.6 21 21 C17.37 21 13.74 21 10 21 C10 24.63 10 28.26 10 32 C6.37 32 2.74 32 -1 32 C-1 28.37 -1 24.74 -1 21 C-4.63 21 -8.26 21 -12 21 C-12 17.7 -12 14.4 -12 11 C-8.04 11 -4.08 11 0 11 C0 7.37 0 3.74 0 0 Z " fill="#2B5995" transform="translate(59,47)"/>
<path d="M0 0 C0.66 0.33 1.32 0.66 2 1 C3.52015493 1.10401929 5.04472534 1.14649789 6.56838989 1.15821838 C7.53035278 1.1680072 8.49231567 1.17779602 9.48342896 1.18788147 C10.5422226 1.19363693 11.60101624 1.1993924 12.69189453 1.20532227 C14.36019318 1.22017166 14.36019318 1.22017166 16.06219482 1.23532104 C19.75237878 1.26700455 23.44257563 1.29172056 27.1328125 1.31640625 C29.6858657 1.33696986 32.23891545 1.35796617 34.79196167 1.37937927 C40.83383707 1.42900543 46.87573004 1.47425484 52.91765392 1.51740164 C59.79547277 1.56676067 66.67324364 1.62168374 73.55101609 1.67708123 C87.70063262 1.79092526 101.85029522 1.89775902 116 2 C116.495 2.99 116.495 2.99 117 4 C78.39 4 39.78 4 0 4 C0 4.66 0 5.32 0 6 C38.28 6 76.56 6 116 6 C116 6.33 116 6.66 116 7 C77.39 7 38.78 7 -1 7 C-1 1 -1 1 0 0 Z " fill="#435375" transform="translate(250,145)"/>
<path d="M0 0 C0.66 0.33 1.32 0.66 2 1 C1.71624756 4.40502926 1.23082747 5.76257746 -1.1875 8.25 C-4.22349056 10.13906079 -6.46723648 10.67137084 -10 11 C-10 11.99 -10 12.98 -10 14 C-11.4540625 14.61875 -11.4540625 14.61875 -12.9375 15.25 C-14.4534375 16.11625 -14.4534375 16.11625 -16 17 C-16.33 18.32 -16.66 19.64 -17 21 C-10.73 20.67 -4.46 20.34 2 20 C2.33 20.66 2.66 21.32 3 22 C1.3603463 24.86752223 -0.34054575 27.01853947 -3 29 C-6.31319835 29.70127266 -9.39865705 29.87331095 -12.78125 29.9296875 C-16.02628125 29.9202363 -16.02628125 29.9202363 -19.28125 30.5703125 C-22 31 -22 31 -24 30 C-24 30.66 -24 31.32 -24 32 C-26.475 32.495 -26.475 32.495 -29 33 C-28.60167969 32.59910156 -28.20335938 32.19820312 -27.79296875 31.78515625 C-21.51274185 25.04651863 -19.81826443 18.00090875 -19 9 C-18.01 9.33 -17.02 9.66 -16 10 C-16 9.34 -16 8.68 -16 8 C-15.01 8 -14.02 8 -13 8 C-13 7.34 -13 6.68 -13 6 C-12.14535156 5.65066406 -11.29070312 5.30132812 -10.41015625 4.94140625 C-8.75306641 4.25884766 -8.75306641 4.25884766 -7.0625 3.5625 C-5.96035156 3.11003906 -4.85820313 2.65757813 -3.72265625 2.19140625 C-1.13431084 1.25575392 -1.13431084 1.25575392 0 0 Z " fill="#495875" transform="translate(106,49)"/>
<path d="M0 0 C0.66 0 1.32 0 2 0 C3.52190801 4.56572403 3.83446377 10.41384057 2 15 C1.34 15.33 0.68 15.66 0 16 C-0.495 17.485 -0.495 17.485 -1 19 C-1.99 19 -2.98 19 -4 19 C-4.33 20.32 -4.66 21.64 -5 23 C-6.65 23.33 -8.3 23.66 -10 24 C-10 24.66 -10 25.32 -10 26 C-13.15506142 26.93619813 -15.96586502 27.1057123 -19.25 27.0625 C-20.14203125 27.05347656 -21.0340625 27.04445313 -21.953125 27.03515625 C-22.62859375 27.02355469 -23.3040625 27.01195313 -24 27 C-24 26.34 -24 25.68 -24 25 C-24.66 25 -25.32 25 -26 25 C-26.33 24.34 -26.66 23.68 -27 23 C-28.299375 22.87625 -29.59875 22.7525 -30.9375 22.625 C-34.80752358 22.21653597 -34.80752358 22.21653597 -36.5 20.3125 C-37.11079796 17.48755945 -37.1309628 14.88118151 -37 12 C-35.18706911 12.14037521 -33.3746557 12.28744889 -31.5625 12.4375 C-30.04849609 12.55931641 -30.04849609 12.55931641 -28.50390625 12.68359375 C-26 13 -26 13 -25 14 C-24.76807135 15.51469448 -24.58784762 17.03754562 -24.4375 18.5625 C-24.35371094 19.38878906 -24.26992188 20.21507813 -24.18359375 21.06640625 C-24.12300781 21.70449219 -24.06242187 22.34257813 -24 23 C-22.37509046 23.02698189 -20.75005367 23.04638757 -19.125 23.0625 C-18.22007813 23.07410156 -17.31515625 23.08570312 -16.3828125 23.09765625 C-13.9831415 23.16249257 -13.9831415 23.16249257 -12 22 C-11.53248212 19.64400765 -11.53248212 19.64400765 -11.375 16.9375 C-11.30023438 16.01839844 -11.22546875 15.09929687 -11.1484375 14.15234375 C-11.09945312 13.44207031 -11.05046875 12.73179688 -11 12 C-10.04287109 11.92652344 -10.04287109 11.92652344 -9.06640625 11.8515625 C-7.82697266 11.73941406 -7.82697266 11.73941406 -6.5625 11.625 C-5.73878906 11.55539063 -4.91507813 11.48578125 -4.06640625 11.4140625 C-3.38449219 11.27742188 -2.70257813 11.14078125 -2 11 C-0.85185003 8.70370006 -0.69230191 6.92301914 -0.4375 4.375 C-0.35371094 3.55773438 -0.26992187 2.74046875 -0.18359375 1.8984375 C-0.09271484 0.95871094 -0.09271484 0.95871094 0 0 Z " fill="#F9CA42" transform="translate(82,57)"/>
<path d="M0 0 C0.45890625 0.40992188 0.9178125 0.81984375 1.390625 1.2421875 C2.31101562 2.05042969 2.31101562 2.05042969 3.25 2.875 C3.85328125 3.40867188 4.4565625 3.94234375 5.078125 4.4921875 C6.95230477 6.06912392 6.95230477 6.06912392 9.171875 7.0703125 C11 8 11 8 12 10 C14.01669827 11.13350534 14.01669827 11.13350534 16 12 C16 12.66 16 13.32 16 14 C16.99 14 17.98 14 19 14 C19 13.34 19 12.68 19 12 C19.804375 11.71125 20.60875 11.4225 21.4375 11.125 C24.1326468 10.26737432 24.1326468 10.26737432 25 8 C25 8.99 25 9.98 25 11 C23.38550038 12.57911333 21.63103517 13.85475984 19.82421875 15.20703125 C15.51870328 19.43879057 14.55232411 24.00161871 14.5 29.875 C14.62247036 36.31830177 15.92841991 40.10176577 20 45 C20.66 45.99 21.32 46.98 22 48 C21.443125 47.690625 20.88625 47.38125 20.3125 47.0625 C15.87702963 45.02458118 11.44857767 44.88800501 6.625 44.6875 C0.9321603 44.27488195 -2.49046607 43.50741528 -7 40 C-8.4375 37.75 -8.4375 37.75 -9 36 C-8.01 36.33 -7.02 36.66 -6 37 C-4.59335074 37.14492123 -3.1818867 37.24628931 -1.76953125 37.31640625 C-0.96708984 37.35830078 -0.16464844 37.40019531 0.66210938 37.44335938 C1.49548828 37.48267578 2.32886719 37.52199219 3.1875 37.5625 C4.4549707 37.62727539 4.4549707 37.62727539 5.74804688 37.69335938 C7.83184433 37.79931518 9.91590103 37.9001502 12 38 C11.97679688 37.154375 11.95359375 36.30875 11.9296875 35.4375 C11.76432207 25.04310158 11.76432207 25.04310158 13.25 20.4375 C13.4975 19.303125 13.745 18.16875 14 17 C12.0620999 14.01240402 10.19753721 13.09465325 7 11.5625 C3.59655487 9.78987233 2.01306345 8.25187173 0 5 C-0.25 2.1875 -0.25 2.1875 0 0 Z " fill="#455C69" transform="translate(27,33)"/>
<path d="M0 0 C2.05078125 0.03255208 4.1015625 0.06510417 6.15234375 0.09765625 C6.15234375 1.08765625 6.15234375 2.07765625 6.15234375 3.09765625 C6.54421875 2.58203125 6.93609375 2.06640625 7.33984375 1.53515625 C7.93796875 1.06078125 8.53609375 0.58640625 9.15234375 0.09765625 C11.83984375 0.41015625 11.83984375 0.41015625 14.15234375 1.09765625 C14.15234375 2.41765625 14.15234375 3.73765625 14.15234375 5.09765625 C15.14234375 5.09765625 16.13234375 5.09765625 17.15234375 5.09765625 C17.15234375 3.44765625 17.15234375 1.79765625 17.15234375 0.09765625 C18.47234375 0.09765625 19.79234375 0.09765625 21.15234375 0.09765625 C21.15234375 5.04765625 21.15234375 9.99765625 21.15234375 15.09765625 C19.83234375 15.09765625 18.51234375 15.09765625 17.15234375 15.09765625 C16.49234375 14.10765625 15.83234375 13.11765625 15.15234375 12.09765625 C14.16234375 13.58265625 14.16234375 13.58265625 13.15234375 15.09765625 C12.22421875 14.93265625 11.29609375 14.76765625 10.33984375 14.59765625 C5.72444966 13.87367286 1.75053994 14.4035889 -2.84765625 15.09765625 C-3.17765625 13.77765625 -3.50765625 12.45765625 -3.84765625 11.09765625 C-3.51765625 11.75765625 -3.18765625 12.41765625 -2.84765625 13.09765625 C-1.52765625 13.09765625 -0.20765625 13.09765625 1.15234375 13.09765625 C0.75430814 10.21189806 0.36225306 9.27576112 -1.91015625 7.34765625 C-2.54953125 6.93515625 -3.18890625 6.52265625 -3.84765625 6.09765625 C-2.77957394 0.14691194 -2.77957394 0.14691194 0 0 Z " fill="#6187B6" transform="translate(298.84765625,117.90234375)"/>
<path d="M0 0 C0 4.62 0 9.24 0 14 C-1.65 14 -3.3 14 -5 14 C-6.4765625 12.3203125 -6.4765625 12.3203125 -7.625 10.125 C-9.28952629 7.00820245 -9.93571979 6.04285347 -13 4 C-15.83403643 3.60657482 -15.83403643 3.60657482 -18.9375 3.625 C-19.97777344 3.59664062 -21.01804687 3.56828125 -22.08984375 3.5390625 C-25.07427497 3.79263704 -25.07427497 3.79263704 -27.36328125 5.6640625 C-29.41211336 8.58817134 -29.41822266 10.21732413 -29.25 13.75 C-29.21390625 14.73484375 -29.1778125 15.7196875 -29.140625 16.734375 C-29.09421875 17.48203125 -29.0478125 18.2296875 -29 19 C-29.66 19 -30.32 19 -31 19 C-31 15.7 -31 12.4 -31 9 C-31.66 9 -32.32 9 -33 9 C-33 8.01 -33 7.02 -33 6 C-34.32 6.33 -35.64 6.66 -37 7 C-28.70020569 -4.67158575 -12.67140801 -4.22380267 0 0 Z " fill="#DCEAF6" transform="translate(365,18)"/>
<path d="M0 0 C1.63001953 0.01353516 1.63001953 0.01353516 3.29296875 0.02734375 C4.12441406 0.03894531 4.95585938 0.05054687 5.8125 0.0625 C5.8125 0.7225 5.8125 1.3825 5.8125 2.0625 C6.4725 2.0625 7.1325 2.0625 7.8125 2.0625 C7.8125 1.4025 7.8125 0.7425 7.8125 0.0625 C9.1325 0.0625 10.4525 0.0625 11.8125 0.0625 C11.8125 0.7225 11.8125 1.3825 11.8125 2.0625 C13.7925 1.7325 15.7725 1.4025 17.8125 1.0625 C17.69867347 3.02151454 17.57108875 4.9797338 17.4375 6.9375 C17.36789063 8.02804688 17.29828125 9.11859375 17.2265625 10.2421875 C16.8125 13.0625 16.8125 13.0625 14.8125 15.0625 C10.25694444 14.50694444 10.25694444 14.50694444 8.8125 13.0625 C8.35790142 10.40786879 8.11006762 7.74060862 7.8125 5.0625 C6.8225 5.0625 5.8325 5.0625 4.8125 5.0625 C4.8125 6.7125 4.8125 8.3625 4.8125 10.0625 C5.4725 10.3925 6.1325 10.7225 6.8125 11.0625 C5.0625 13.0625 5.0625 13.0625 2.8125 15.0625 C1.4925 15.0625 0.1725 15.0625 -1.1875 15.0625 C-0.8575 10.7725 -0.5275 6.4825 -0.1875 2.0625 C-0.8475 2.0625 -1.5075 2.0625 -2.1875 2.0625 C-1.8575 4.7025 -1.5275 7.3425 -1.1875 10.0625 C-2.1775 10.5575 -2.1775 10.5575 -3.1875 11.0625 C-3.1875 9.4125 -3.1875 7.7625 -3.1875 6.0625 C-3.8475 6.0625 -4.5075 6.0625 -5.1875 6.0625 C-5.1875 8.3725 -5.1875 10.6825 -5.1875 13.0625 C-6.5075 13.3925 -7.8275 13.7225 -9.1875 14.0625 C-9.1875 9.7725 -9.1875 5.4825 -9.1875 1.0625 C-5.90230525 -0.03256492 -3.45086585 -0.03710608 0 0 Z " fill="#6A8FB9" transform="translate(111.1875,117.9375)"/>
<path d="M0 0 C0.88945313 0.00257812 1.77890625 0.00515625 2.6953125 0.0078125 C3.57960938 0.00523438 4.46390625 0.00265625 5.375 0 C7.8203125 0.1328125 7.8203125 0.1328125 10.8203125 1.1328125 C10.8203125 4.4328125 10.8203125 7.7328125 10.8203125 11.1328125 C14.4503125 11.1328125 18.0803125 11.1328125 21.8203125 11.1328125 C21.3253125 7.6678125 21.3253125 7.6678125 20.8203125 4.1328125 C20.1603125 4.1328125 19.5003125 4.1328125 18.8203125 4.1328125 C19.1503125 3.4728125 19.4803125 2.8128125 19.8203125 2.1328125 C24.63254069 6.28128508 26.58584866 10.71001948 27.1953125 17.0078125 C26.8763661 23.60362403 25.12858787 29.14223767 20.5703125 34.0078125 C13.85090036 40.00380967 8.09444604 40.72180518 -0.77734375 40.5703125 C-5.49102302 39.96419071 -8.62982369 38.2196506 -12.1796875 35.1328125 C-9.5130456 33.79949155 -8.01288447 34.46179217 -5.1796875 35.1328125 C-4.8496875 34.4728125 -4.5196875 33.8128125 -4.1796875 33.1328125 C-4.1796875 34.4528125 -4.1796875 35.7728125 -4.1796875 37.1328125 C-3.5196875 37.1328125 -2.8596875 37.1328125 -2.1796875 37.1328125 C-2.1796875 37.7928125 -2.1796875 38.4528125 -2.1796875 39.1328125 C2.4403125 38.8028125 7.0603125 38.4728125 11.8203125 38.1328125 C11.8203125 37.4728125 11.8203125 36.8128125 11.8203125 36.1328125 C12.6246875 35.8646875 13.4290625 35.5965625 14.2578125 35.3203125 C15.1034375 34.9284375 15.9490625 34.5365625 16.8203125 34.1328125 C17.1503125 33.1428125 17.4803125 32.1528125 17.8203125 31.1328125 C18.8103125 30.8028125 19.8003125 30.4728125 20.8203125 30.1328125 C20.8203125 29.1428125 20.8203125 28.1528125 20.8203125 27.1328125 C21.8103125 27.1328125 22.8003125 27.1328125 23.8203125 27.1328125 C23.8203125 22.1828125 23.8203125 17.2328125 23.8203125 12.1328125 C23.1603125 12.1328125 22.5003125 12.1328125 21.8203125 12.1328125 C21.84351563 12.75929688 21.86671875 13.38578125 21.890625 14.03125 C21.90867188 14.84851562 21.92671875 15.66578125 21.9453125 16.5078125 C21.96851563 17.31992187 21.99171875 18.13203125 22.015625 18.96875 C21.8203125 21.1328125 21.8203125 21.1328125 19.8203125 23.1328125 C19.8203125 19.8328125 19.8203125 16.5328125 19.8203125 13.1328125 C16.1903125 13.1328125 12.5603125 13.1328125 8.8203125 13.1328125 C8.8203125 9.5028125 8.8203125 5.8728125 8.8203125 2.1328125 C5.5203125 2.1328125 2.2203125 2.1328125 -1.1796875 2.1328125 C-1.1796875 5.7628125 -1.1796875 9.3928125 -1.1796875 13.1328125 C-5.1396875 13.1328125 -9.0996875 13.1328125 -13.1796875 13.1328125 C-12.8496875 12.4728125 -12.5196875 11.8128125 -12.1796875 11.1328125 C-9.2096875 11.1328125 -6.2396875 11.1328125 -3.1796875 11.1328125 C-3.19128906 10.42253906 -3.20289063 9.71226563 -3.21484375 8.98046875 C-3.22837891 7.60181641 -3.22837891 7.60181641 -3.2421875 6.1953125 C-3.25378906 5.27878906 -3.26539063 4.36226562 -3.27734375 3.41796875 C-3.14821185 0.3962823 -3.01285425 0.18357893 0 0 Z " fill="#DFC96E" transform="translate(60.1796875,44.8671875)"/>
<path d="M0 0 C2 3.75 2 3.75 2 6 C2.99 6.33 3.98 6.66 5 7 C5 9.31 5 11.62 5 14 C4.34 12.68 3.68 11.36 3 10 C-1.62 21.22 -6.24 32.44 -11 44 C-11.66 43.67 -12.32 43.34 -13 43 C-13.99 43.66 -14.98 44.32 -16 45 C-16.99 44.67 -17.98 44.34 -19 44 C-18.34 44 -17.68 44 -17 44 C-16.85594727 43.0258313 -16.85594727 43.0258313 -16.70898438 42.03198242 C-15.76588926 37.99882189 -14.22975962 34.31247549 -12.65625 30.48828125 C-12.32709595 29.67884567 -11.99794189 28.8694101 -11.65881348 28.03544617 C-10.61000126 25.45942624 -9.55499092 22.88599473 -8.5 20.3125 C-7.78997701 18.56981932 -7.08033734 16.82698241 -6.37109375 15.08398438 C-1.20381395 2.4076279 -1.20381395 2.4076279 0 0 Z " fill="#E7F0F9" transform="translate(286,20)"/>
<path d="M0 0 C0 4.62 0 9.24 0 14 C-1.65 14 -3.3 14 -5 14 C-5.25394531 13.44570313 -5.50789063 12.89140625 -5.76953125 12.3203125 C-6.11371094 11.59585937 -6.45789063 10.87140625 -6.8125 10.125 C-7.14894531 9.40570313 -7.48539063 8.68640625 -7.83203125 7.9453125 C-8.99467097 5.69457194 -8.99467097 5.69457194 -12 4 C-17.62057859 3.23938039 -22.42813988 2.92127247 -27.1875 6.1875 C-28.95732976 8.93378755 -29.72298223 10.76812607 -30 14 C-30.33 14 -30.66 14 -31 14 C-31.33 11.36 -31.66 8.72 -32 6 C-33.65 6.33 -35.3 6.66 -37 7 C-28.93327564 -5.62617725 -12.62415247 -3.0604006 0 0 Z " fill="#EAF4FA" transform="translate(170,18)"/>
<path d="M0 0 C0.99 0.33 1.98 0.66 3 1 C5.22574335 1.22451458 7.45581519 1.40782878 9.6875 1.5625 C10.86699219 1.64628906 12.04648438 1.73007813 13.26171875 1.81640625 C14.61716797 1.90728516 14.61716797 1.90728516 16 2 C16.33 3.32 16.66 4.64 17 6 C16.34 6 15.68 6 15 6 C15 5.34 15 4.68 15 4 C13.68 4 12.36 4 11 4 C11 5.65 11 7.3 11 9 C11.99 9 12.98 9 14 9 C14.33 8.34 14.66 7.68 15 7 C14.67 8.32 14.34 9.64 14 11 C13.01 10.67 12.02 10.34 11 10 C11 11.65 11 13.3 11 15 C12.32 15 13.64 15 15 15 C15 14.34 15 13.68 15 13 C15.66 13 16.32 13 17 13 C16.67 14.32 16.34 15.64 16 17 C15.38511719 17.06058594 14.77023438 17.12117188 14.13671875 17.18359375 C13.32847656 17.26738281 12.52023438 17.35117188 11.6875 17.4375 C10.88699219 17.51871094 10.08648437 17.59992188 9.26171875 17.68359375 C6.83912821 17.95265693 6.83912821 17.95265693 4 19 C0.9375 18.5625 0.9375 18.5625 -2 17 C-3.16623146 14.31164485 -3.52733702 11.93051047 -4 9 C-4.33 11.31 -4.66 13.62 -5 16 C-5.66 15.67 -6.32 15.34 -7 15 C-7 11.04 -7 7.08 -7 3 C-5.68 3.33 -4.36 3.66 -3 4 C-2.67 5.98 -2.34 7.96 -2 10 C-1.34 10 -0.68 10 0 10 C0 6.7 0 3.4 0 0 Z " fill="#436DA1" transform="translate(217,116)"/>
<path d="M0 0 C0.33 1.32 0.66 2.64 1 4 C1.66 4 2.32 4 3 4 C3 4.99 3 5.98 3 7 C2.01 7 1.02 7 0 7 C0 7.66 0 8.32 0 9 C0.99 9 1.98 9 3 9 C3 10.32 3 11.64 3 13 C2.34 13 1.68 13 1 13 C0.34 14.65 -0.32 16.3 -1 18 C-0.34 18.33 0.32 18.66 1 19 C-1.86973884 20.61635488 -4.04464203 21.2733418 -7.328125 21.4140625 C-8.52695313 21.47207031 -8.52695313 21.47207031 -9.75 21.53125 C-10.9875 21.57765625 -10.9875 21.57765625 -12.25 21.625 C-13.09046875 21.66367188 -13.9309375 21.70234375 -14.796875 21.7421875 C-16.86423382 21.83615836 -18.93208627 21.91915564 -21 22 C-20.1953125 19.0859375 -20.1953125 19.0859375 -19 16 C-15.875 14.625 -15.875 14.625 -13 14 C-13 13.01 -13 12.02 -13 11 C-12.38511719 10.75765625 -11.77023438 10.5153125 -11.13671875 10.265625 C-5.04249656 7.90401238 -5.04249656 7.90401238 -1 3 C-0.67 2.01 -0.34 1.02 0 0 Z " fill="#2B5595" transform="translate(109,49)"/>
<path d="M0 0 C0.99 0 1.98 0 3 0 C4.32 2.64 5.64 5.28 7 8 C7.33 5.69 7.66 3.38 8 1 C8.33 1 8.66 1 9 1 C9 5.29 9 9.58 9 14 C4.5 9.5 4.5 9.5 3 6 C2.67 8.64 2.34 11.28 2 14 C1.67 13.34 1.34 12.68 1 12 C0.505 12.33 0.01 12.66 -0.5 13 C-4.09090894 14.43636358 -7.14456127 14.12851462 -11 14 C-11 9.71 -11 5.42 -11 1 C-8.36 1 -5.72 1 -3 1 C-3.33 1.99 -3.66 2.98 -4 4 C-4.99 4.33 -5.98 4.66 -7 5 C-6.01 5 -5.02 5 -4 5 C-3.67 5 -3.34 5 -3 5 C-2.54625 4.175 -2.0925 3.35 -1.625 2.5 C-1.08875 1.675 -0.5525 0.85 0 0 Z " fill="#80A1C4" transform="translate(334,118)"/>
<path d="M0 0 C0.33 0.66 0.66 1.32 1 2 C0.67 2.66 0.34 3.32 0 4 C0.66 4 1.32 4 2 4 C2 7.3 2 10.6 2 14 C2.66 14 3.32 14 4 14 C4.66 15.98 5.32 17.96 6 20 C5.34 20.66 4.68 21.32 4 22 C4.66 22.66 5.32 23.32 6 24 C2.21213403 23.4739075 -0.17152224 22.61896089 -3 20 C-3 19.34 -3 18.68 -3 18 C-3.99 17.67 -4.98 17.34 -6 17 C-6.92017937 5.20807175 -6.92017937 5.20807175 -4.6640625 2.24609375 C-3 1.1875 -3 1.1875 0 0 Z " fill="#F9FDF9" transform="translate(332,23)"/>
<path d="M0 0 C0.93619813 3.15506142 1.1057123 5.96586502 1.0625 9.25 C1.05347656 10.14203125 1.04445312 11.0340625 1.03515625 11.953125 C1.02355469 12.62859375 1.01195312 13.3040625 1 14 C1.12375 12.865625 1.2475 11.73125 1.375 10.5625 C1.58125 9.386875 1.7875 8.21125 2 7 C2.66 6.67 3.32 6.34 4 6 C4 9.3 4 12.6 4 16 C7.63 16 11.26 16 15 16 C15 19.63 15 23.26 15 27 C18.63 27 22.26 27 26 27 C26 23.37 26 19.74 26 16 C29.63 16 33.26 16 37 16 C37 16.33 37 16.66 37 17 C34.03 17 31.06 17 28 17 C28.05220703 18.04800781 28.05220703 18.04800781 28.10546875 19.1171875 C28.13253906 20.02726562 28.15960938 20.93734375 28.1875 21.875 C28.23970703 23.23238281 28.23970703 23.23238281 28.29296875 24.6171875 C28.19628906 25.40351562 28.09960938 26.18984375 28 27 C24.71737969 29.18841354 23.68209102 29.24854665 19.875 29.1875 C18.98554687 29.18105469 18.09609375 29.17460938 17.1796875 29.16796875 C15 29 15 29 14 28 C13.54234333 25.01110641 13.29679049 22.01030352 13 19 C9.7 18.67 6.4 18.34 3 18 C3 20.31 3 22.62 3 25 C-0.4649239 21.85006918 -1.8861026 19.42036761 -2.265625 14.6875 C-2.26046875 13.470625 -2.2553125 12.25375 -2.25 11 C-2.25515625 9.783125 -2.2603125 8.56625 -2.265625 7.3125 C-2.01981559 4.24711209 -1.6149234 2.56337048 0 0 Z " fill="#E3CB6D" transform="translate(43,52)"/>
<path d="M0 0 C12.75 -0.125 12.75 -0.125 15 1 C15 1.99 15 2.98 15 4 C14.34 4 13.68 4 13 4 C13 3.34 13 2.68 13 2 C11.68 2 10.36 2 9 2 C9 5.63 9 9.26 9 13 C10.32 13 11.64 13 13 13 C13 12.34 13 11.68 13 11 C13.66 11 14.32 11 15 11 C14.67 12.32 14.34 13.64 14 15 C12.43867691 15.1970602 10.87584736 15.38220155 9.3125 15.5625 C8.44238281 15.66691406 7.57226562 15.77132812 6.67578125 15.87890625 C4 16 4 16 -1 15 C-0.67 10.05 -0.34 5.1 0 0 Z " fill="#5B80B0" transform="translate(250,118)"/>
<path d="M0 0 C0.33 1.32 0.66 2.64 1 4 C-0.98 3.34 -2.96 2.68 -5 2 C-4.67 3.32 -4.34 4.64 -4 6 C-3.01 6 -2.02 6 -1 6 C-1.33 6.99 -1.66 7.98 -2 9 C-2.99 8.67 -3.98 8.34 -5 8 C-5 9.65 -5 11.3 -5 13 C-3.02 12.34 -1.04 11.68 1 11 C1 12.32 1 13.64 1 15 C-0.27875 15.061875 -1.5575 15.12375 -2.875 15.1875 C-3.95394531 15.23970703 -3.95394531 15.23970703 -5.0546875 15.29296875 C-5.69664062 15.19628906 -6.33859375 15.09960938 -7 15 C-7.66 14.01 -8.32 13.02 -9 12 C-9.66 11.34 -10.32 10.68 -11 10 C-10.71395102 8.32457024 -10.38218767 6.65614657 -10 5 C-10.33 4.67 -10.66 4.34 -11 4 C-11 3.34 -11 2.68 -11 2 C-11.99 2 -12.98 2 -14 2 C-14 5.96 -14 9.92 -14 14 C-14.66 14 -15.32 14 -16 14 C-16 10.04 -16 6.08 -16 2 C-16.66 2 -17.32 2 -18 2 C-18 2.66 -18 3.32 -18 4 C-18.66 4 -19.32 4 -20 4 C-19.67 2.68 -19.34 1.36 -19 0 C-12.46837378 -1.10914408 -6.56492112 -0.78441153 0 0 Z " fill="#80A5CC" transform="translate(151,118)"/>
<path d="M0 0 C0.66 0 1.32 0 2 0 C2.33 2.31 2.66 4.62 3 7 C3.66 6.67 4.32 6.34 5 6 C5.65772428 2.97065509 5.65772428 2.97065509 6 0 C6.99 0 7.98 0 9 0 C10.32 2.64 11.64 5.28 13 8 C13 5.36 13 2.72 13 0 C13.66 0 14.32 0 15 0 C15 4.62 15 9.24 15 14 C9.72 14 4.44 14 -1 14 C-0.67 9.38 -0.34 4.76 0 0 Z " fill="#7693BD" transform="translate(61,119)"/>
<path d="M0 0 C0.33 1.32 0.66 2.64 1 4 C1.66 4 2.32 4 3 4 C3 3.34 3 2.68 3 2 C3.66 2 4.32 2 5 2 C5 5.96 5 9.92 5 14 C5.66 14 6.32 14 7 14 C7 10.04 7 6.08 7 2 C8.65 1.67 10.3 1.34 12 1 C12.33 2.32 12.66 3.64 13 5 C12.01 5.495 12.01 5.495 11 6 C11.33 8.31 11.66 10.62 12 13 C11.34 13 10.68 13 10 13 C10 13.66 10 14.32 10 15 C8.02 15 6.04 15 4 15 C4 14.34 4 13.68 4 13 C2.02 13.33 0.04 13.66 -2 14 C-2 10.04 -2 6.08 -2 2 C-1.34 2 -0.68 2 0 2 C0 1.34 0 0.68 0 0 Z " fill="#365994" transform="translate(130,118)"/>
<path d="M0 0 C4.875 1.75 4.875 1.75 6 4 C5.91348369 5.54613014 5.75997364 7.08909387 5.5625 8.625 C5.46066406 9.44226563 5.35882813 10.25953125 5.25390625 11.1015625 C5.17011719 11.72804687 5.08632812 12.35453125 5 13 C3.35 13.66 1.7 14.32 0 15 C-3.09107447 12.58509807 -3.93483001 11.45618991 -4.5 7.5 C-3.93483001 3.54381009 -3.09107447 2.41490193 0 0 Z " fill="#89AECF" transform="translate(184,118)"/>
<path d="M0 0 C1.63001953 0.01353516 1.63001953 0.01353516 3.29296875 0.02734375 C4.12441406 0.03894531 4.95585938 0.05054687 5.8125 0.0625 C5.4825 1.3825 5.1525 2.7025 4.8125 4.0625 C3.8225 3.4025 2.8325 2.7425 1.8125 2.0625 C1.8125 6.0225 1.8125 9.9825 1.8125 14.0625 C1.1525 14.0625 0.4925 14.0625 -0.1875 14.0625 C-0.1875 10.1025 -0.1875 6.1425 -0.1875 2.0625 C-0.8475 2.0625 -1.5075 2.0625 -2.1875 2.0625 C-1.8575 4.7025 -1.5275 7.3425 -1.1875 10.0625 C-2.1775 10.5575 -2.1775 10.5575 -3.1875 11.0625 C-3.1875 9.4125 -3.1875 7.7625 -3.1875 6.0625 C-3.8475 6.0625 -4.5075 6.0625 -5.1875 6.0625 C-5.1875 8.3725 -5.1875 10.6825 -5.1875 13.0625 C-6.5075 13.3925 -7.8275 13.7225 -9.1875 14.0625 C-9.1875 9.7725 -9.1875 5.4825 -9.1875 1.0625 C-5.90230525 -0.03256492 -3.45086585 -0.03710608 0 0 Z " fill="#90B1D6" transform="translate(111.1875,117.9375)"/>
<path d="M0 0 C3.3 0 6.6 0 10 0 C10 3.63 10 7.26 10 11 C13.63 11 17.26 11 21 11 C21 14.3 21 17.6 21 21 C17.7 21 14.4 21 11 21 C11 20.67 11 20.34 11 20 C13.97 20 16.94 20 20 20 C20 17.36 20 14.72 20 12 C16.37 12 12.74 12 9 12 C8.505 7.05 8.505 7.05 8 2 C5.69 1.67 3.38 1.34 1 1 C1 4.63 1 8.26 1 12 C-2.63 12 -6.26 12 -10 12 C-10 14.31 -10 16.62 -10 19 C-7.36 19 -4.72 19 -2 19 C-1.67 19.66 -1.34 20.32 -1 21 C-4.63 21 -8.26 21 -12 21 C-12 17.7 -12 14.4 -12 11 C-8.04 11 -4.08 11 0 11 C0 7.37 0 3.74 0 0 Z " fill="#4B5C5D" transform="translate(59,47)"/>
<path d="M0 0 C7.26 0 14.52 0 22 0 C21.67 0.99 21.34 1.98 21 3 C16.71 2.67 12.42 2.34 8 2 C7.67 20.81 7.34 39.62 7 59 C6.67 59 6.34 59 6 59 C5.99857498 58.33014572 5.99714996 57.66029144 5.99568176 56.97013855 C5.97602617 50.01084211 5.92184144 43.05242767 5.84741211 36.09350586 C5.82418595 33.49493737 5.80982565 30.89627413 5.80444336 28.29760742 C5.79518804 24.56629058 5.75426872 20.83647376 5.70703125 17.10546875 C5.7109639 15.93976852 5.71489655 14.7740683 5.71894836 13.57304382 C5.69930527 12.49214981 5.67966217 11.4112558 5.65942383 10.29760742 C5.65276199 9.34496506 5.64610016 8.39232269 5.63923645 7.41081238 C5.21437485 4.73860945 5.21437485 4.73860945 2.45878601 3.29389954 C1.64738663 2.86691269 0.83598724 2.43992584 0 2 C0 1.34 0 0.68 0 0 Z " fill="#DBEBFA" transform="translate(190,17)"/>
<path d="M0 0 C1.8871875 0.061875 1.8871875 0.061875 3.8125 0.125 C4.1425 1.445 4.4725 2.765 4.8125 4.125 C3.8225 4.125 2.8325 4.125 1.8125 4.125 C1.4825 5.445 1.1525 6.765 0.8125 8.125 C0.1525 7.795 -0.5075 7.465 -1.1875 7.125 C-1.1875 8.115 -1.1875 9.105 -1.1875 10.125 C0.4625 9.795 2.1125 9.465 3.8125 9.125 C3.8125 9.785 3.8125 10.445 3.8125 11.125 C1.04149606 12.51050197 -1.1209706 12.3127467 -4.1875 12.125 C-7.1875 10.125 -7.1875 10.125 -7.5859375 8.25 C-7.57820312 7.54875 -7.57046875 6.8475 -7.5625 6.125 C-7.57023438 5.42375 -7.57796875 4.7225 -7.5859375 4 C-6.73388074 -0.00967888 -3.44373259 -0.11290927 0 0 Z " fill="#3F6AA4" transform="translate(182.1875,143.875)"/>
<path d="M0 0 C0.99 0.33 1.98 0.66 3 1 C5.10241932 1.15157629 7.20709268 1.27300795 9.3125 1.375 C14.17021434 1.72661629 17.95880193 2.05101763 22 5 C23.14453125 7.10546875 23.14453125 7.10546875 24 9 C7.62502373 8.57850769 7.62502373 8.57850769 2 4 C0.5625 1.75 0.5625 1.75 0 0 Z " fill="#C38C65" transform="translate(18,69)"/>
<path d="M0 0 C0.66 0.33 1.32 0.66 2 1 C2 3.97 2 6.94 2 10 C1.34 10 0.68 10 0 10 C0 10.99 0 11.98 0 13 C-2.31 13.33 -4.62 13.66 -7 14 C-7.33 12.68 -7.66 11.36 -8 10 C-5.525 10.99 -5.525 10.99 -3 12 C-3.39803561 9.11424181 -3.79009069 8.17810487 -6.0625 6.25 C-6.701875 5.8375 -7.34125 5.425 -8 5 C-7.625 2.5625 -7.625 2.5625 -7 0 C-4.30919898 -1.34540051 -2.86443593 -0.71610898 0 0 Z " fill="#37619C" transform="translate(25,119)"/>
<path d="M0 0 C2.64 0 5.28 0 8 0 C7.34 1.32 6.68 2.64 6 4 C5.34 4 4.68 4 4 4 C4 5.32 4 6.64 4 8 C5.32 8 6.64 8 8 8 C8 7.34 8 6.68 8 6 C7.34 5.67 6.68 5.34 6 5 C6.99 4.67 7.98 4.34 9 4 C9 2.68 9 1.36 9 0 C9.66 0 10.32 0 11 0 C11 3.63 11 7.26 11 11 C7.37 11 3.74 11 0 11 C0 7.37 0 3.74 0 0 Z " fill="#445F79" transform="translate(58,68)"/>
<path d="M0 0 C3.375 -0.125 3.375 -0.125 7 0 C9 2 9 2 9.265625 4.09375 C9.26046875 4.8878125 9.2553125 5.681875 9.25 6.5 C9.25515625 7.2940625 9.2603125 8.088125 9.265625 8.90625 C9 11 9 11 7 13 C3.375 13.125 3.375 13.125 0 13 C0 8.71 0 4.42 0 0 Z " fill="#7CA0C4" transform="translate(237,119)"/>
<path d="M0 0 C0 0.33 0 0.66 0 1 C-3.63 1.33 -7.26 1.66 -11 2 C-8.69 2.66 -6.38 3.32 -4 4 C-4 4.33 -4 4.66 -4 5 C-4.66386719 5.01417969 -5.32773438 5.02835938 -6.01171875 5.04296875 C-10.5973305 5.29065873 -13.28544722 5.47502245 -17.0625 8.25 C-18.98952988 10.98513919 -19.71697192 12.69800569 -20 16 C-20.33 16 -20.66 16 -21 16 C-21.33 13.36 -21.66 10.72 -22 8 C-23.65 8.33 -25.3 8.66 -27 9 C-20.6678835 -0.91113887 -10.69268963 -0.54756305 0 0 Z " fill="#E7F2FA" transform="translate(160,16)"/>
<path d="M0 0 C0.99 0.33 1.98 0.66 3 1 C4.89212737 1.22179785 6.78884472 1.40614015 8.6875 1.5625 C9.68136719 1.64628906 10.67523438 1.73007813 11.69921875 1.81640625 C12.83810547 1.90728516 12.83810547 1.90728516 14 2 C14 2.66 14 3.32 14 4 C9.66666667 4 5.33333333 4 1 4 C7.02690385 9.04956809 11.48597628 9.22278243 19.1640625 9.62109375 C20.09992187 9.74613281 21.03578125 9.87117188 22 10 C22.33 10.66 22.66 11.32 23 12 C16.73 12 10.46 12 4 12 C3.67 11.01 3.34 10.02 3 9 C0.49552484 7.78130071 0.49552484 7.78130071 -2 7 C-1.125 1.125 -1.125 1.125 0 0 Z " fill="#42537B" transform="translate(18,67)"/>
<path d="M0 0 C0.66 0.33 1.32 0.66 2 1 C-1.32632208 5.0307197 -3.73859358 6.60377297 -8.98046875 7.19921875 C-9.68816406 7.25722656 -10.39585938 7.31523438 -11.125 7.375 C-12.19814453 7.49681641 -12.19814453 7.49681641 -13.29296875 7.62109375 C-16.56584949 7.95755813 -18.84703308 8.05098897 -22 7 C-18.96213788 3.51539345 -17.20905814 2.18231829 -12.5546875 1.48046875 C-10.05410431 1.32899605 -7.55094971 1.21458501 -5.046875 1.140625 C-2.08240312 1.21016018 -2.08240312 1.21016018 0 0 Z " fill="#DC8C5B" transform="translate(107,70)"/>
<path d="M0 0 C0.89847656 0.00257812 1.79695313 0.00515625 2.72265625 0.0078125 C3.61855469 0.00523438 4.51445313 0.00265625 5.4375 0 C7.78515625 0.1328125 7.78515625 0.1328125 9.78515625 1.1328125 C9.78515625 4.7628125 9.78515625 8.3928125 9.78515625 12.1328125 C13.08515625 12.1328125 16.38515625 12.1328125 19.78515625 12.1328125 C19.78515625 12.4628125 19.78515625 12.7928125 19.78515625 13.1328125 C16.15515625 13.1328125 12.52515625 13.1328125 8.78515625 13.1328125 C8.78515625 9.5028125 8.78515625 5.8728125 8.78515625 2.1328125 C5.48515625 2.1328125 2.18515625 2.1328125 -1.21484375 2.1328125 C-1.21484375 5.7628125 -1.21484375 9.3928125 -1.21484375 13.1328125 C-5.17484375 13.1328125 -9.13484375 13.1328125 -13.21484375 13.1328125 C-12.88484375 12.4728125 -12.55484375 11.8128125 -12.21484375 11.1328125 C-9.24484375 11.1328125 -6.27484375 11.1328125 -3.21484375 11.1328125 C-3.22644531 10.42253906 -3.23804688 9.71226563 -3.25 8.98046875 C-3.26353516 7.60181641 -3.26353516 7.60181641 -3.27734375 6.1953125 C-3.28894531 5.27878906 -3.30054688 4.36226562 -3.3125 3.41796875 C-3.18239321 0.37346986 -3.03668795 0.18209416 0 0 Z " fill="#CBBE72" transform="translate(60.21484375,44.8671875)"/>
<path d="M0 0 C2.31 0.66 4.62 1.32 7 2 C7 2.66 7 3.32 7 4 C7.66 4 8.32 4 9 4 C9.33 6.31 9.66 8.62 10 11 C8.52093108 11.02689216 7.04172517 11.04634621 5.5625 11.0625 C4.32693359 11.07990234 4.32693359 11.07990234 3.06640625 11.09765625 C1 11 1 11 0 10 C-0.07205511 8.31391034 -0.08386068 6.62499341 -0.0625 4.9375 C-0.05347656 4.01839844 -0.04445313 3.09929688 -0.03515625 2.15234375 C-0.02355469 1.44207031 -0.01195313 0.73179688 0 0 Z " fill="#FBCB41" transform="translate(72,45)"/>
<path d="M0 0 C0.99 0 1.98 0 3 0 C3.66 1.98 4.32 3.96 5 6 C7.10232344 3.1315587 7.10232344 3.1315587 8 0 C8.99 0 9.98 0 11 0 C11 4.29 11 8.58 11 13 C10.34 13 9.68 13 9 13 C8.67 11.02 8.34 9.04 8 7 C7.34 8.65 6.68 10.3 6 12 C4 11 4 11 3 8 C2.67 9.65 2.34 11.3 2 13 C1.34 13 0.68 13 0 13 C0 8.71 0 4.42 0 0 Z " fill="#CBEAFC" transform="translate(40,119)"/>
<path d="M0 0 C1.32 0 2.64 0 4 0 C4.33 1.32 4.66 2.64 5 4 C5.99 3.67 6.98 3.34 8 3 C7.979375 3.804375 7.95875 4.60875 7.9375 5.4375 C7.70366379 7.93354885 7.70366379 7.93354885 9 9 C9 6.03 9 3.06 9 0 C9.33 0 9.66 0 10 0 C10 3.63 10 7.26 10 11 C8.02 11.99 8.02 11.99 6 13 C6 11.68 6 10.36 6 9 C5.34 9 4.68 9 4 9 C4 9.66 4 10.32 4 11 C2.68 11 1.36 11 0 11 C0 9.35 0 7.7 0 6 C0.99 5.67 1.98 5.34 3 5 C2.01 5 1.02 5 0 5 C0 3.35 0 1.7 0 0 Z " fill="#3A5D93" transform="translate(228,120)"/>
<path d="M0 0 C2.31 0 4.62 0 7 0 C7.79953138 3.28696233 8.09658936 4.71023192 7 8 C7.87914688 10.6569191 7.87914688 10.6569191 9 13 C8.01 13 7.02 13 6 13 C5.71125 12.360625 5.4225 11.72125 5.125 11.0625 C4.17176549 8.84793921 4.17176549 8.84793921 2 8 C2 9.65 2 11.3 2 13 C1.34 13 0.68 13 0 13 C0 8.71 0 4.42 0 0 Z " fill="#C0DCF2" transform="translate(28,119)"/>
<path d="M0 0 C2.33294775 -0.04241723 4.66702567 -0.04092937 7 0 C8 1 8 1 8.0625 3.375 C8.041875 4.24125 8.02125 5.1075 8 6 C8 8.62113708 8.31292445 10.50935112 9 13 C8.01 12.67 7.02 12.34 6 12 C5.67 11.01 5.34 10.02 5 9 C4.34 8.67 3.68 8.34 3 8 C3 9.65 3 11.3 3 13 C2.01 12.67 1.02 12.34 0 12 C0 8.04 0 4.08 0 0 Z " fill="#A0BDD8" transform="translate(193,119)"/>
<path d="M0 0 C1.32 0 2.64 0 4 0 C3.67 1.65 3.34 3.3 3 5 C3.99 5 4.98 5 6 5 C6 3.35 6 1.7 6 0 C6.99 0 7.98 0 9 0 C9 3.63 9 7.26 9 11 C8.01 11 7.02 11 6 11 C6 9.35 6 7.7 6 6 C5.01 6 4.02 6 3 6 C3 7.98 3 9.96 3 12 C2.01 11.67 1.02 11.34 0 11 C0 7.37 0 3.74 0 0 Z " fill="#88ADCC" transform="translate(165,144)"/>
<path d="M0 0 C4.75 1.875 4.75 1.875 7 3 C14.22876697 3.4031608 21.17587475 3.59966676 28 1 C28 1.66 28 2.32 28 3 C26.35 3.33 24.7 3.66 23 4 C23 4.66 23 5.32 23 6 C19.61952582 7.01006939 16.45852944 7.19764268 12.9375 7.25 C11.37322266 7.28867188 11.37322266 7.28867188 9.77734375 7.328125 C6.60992835 6.95391559 6.01759093 6.32752207 4 4 C1.37429296 3.74930087 1.37429296 3.74930087 -1 4 C-0.67 2.68 -0.34 1.36 0 0 Z " fill="#435F73" transform="translate(49,81)"/>
<path d="M0 0 C0.99 0.33 1.98 0.66 3 1 C3 5.29 3 9.58 3 14 C1.02 14.99 1.02 14.99 -1 16 C-2.29376578 13.41246844 -2.16832397 11.45041015 -2.1875 8.5625 C-2.20167969 7.59441406 -2.21585937 6.62632813 -2.23046875 5.62890625 C-2 3 -2 3 0 0 Z M-5 16 C-1 17 -1 17 -1 17 Z " fill="#365991" transform="translate(321,117)"/>
<path d="M0 0 C13.18448637 2.77568134 13.18448637 2.77568134 17 7 C17 7.66 17 8.32 17 9 C4.89131816 7.36252701 4.89131816 7.36252701 0 3 C0 2.01 0 1.02 0 0 Z " fill="#BE8C73" transform="translate(20,52)"/>
<path d="M0 0 C0 3.96 0 7.92 0 12 C-1.65 12 -3.3 12 -5 12 C-6.42258812 8.17679443 -7.24042276 5.08718695 -7 1 C-4 0 -4 0 0 0 Z " fill="#F4FBFB" transform="translate(364,19)"/>
<path d="M0 0 C0.99 0.495 0.99 0.495 2 1 C2.1546875 2.175625 2.1546875 2.175625 2.3125 3.375 C2.76300667 6.10384096 2.76300667 6.10384096 4.875 7.625 C9.43622057 9.63193705 14.17054838 10.80743839 19 12 C17.35 10.02 15.7 8.04 14 6 C15.65 6.33 17.3 6.66 19 7 C19.33 9.31 19.66 11.62 20 14 C11.42857143 14.14285714 11.42857143 14.14285714 8 13 C8 12.34 8 11.68 8 11 C6.68 11 5.36 11 4 11 C4 10.01 4 9.02 4 8 C3.01 7.67 2.02 7.34 1 7 C0.67 4.69 0.34 2.38 0 0 Z " fill="#455987" transform="translate(18,49)"/>
<path d="M0 0 C0.66 0.33 1.32 0.66 2 1 C2.51290964 6.38555127 1.15412669 8.70688312 -2 13 C-3.3805933 15.30876245 -4.68542726 17.65254868 -6 20 C-6.33 20 -6.66 20 -7 20 C-7.56965309 14.68323785 -7.42039894 12.01348983 -4.0625 7.75 C-3.51722656 7.12609375 -2.97195312 6.5021875 -2.41015625 5.859375 C-0.91198863 3.88395177 -0.4229702 2.42003201 0 0 Z " fill="#B58B75" transform="translate(82,20)"/>
<path d="M0 0 C1.32 0.33 2.64 0.66 4 1 C4.33 2.98 4.66 4.96 5 7 C5.66 7 6.32 7 7 7 C7.144375 6.21625 7.28875 5.4325 7.4375 4.625 C8 2 8 2 9 0 C9.99 0.33 10.98 0.66 12 1 C12 4.96 12 8.92 12 13 C11.01 12.67 10.02 12.34 9 12 C9 9.69 9 7.38 9 5 C8.01 7.31 7.02 9.62 6 12 C4 9 4 9 3 6 C2.67 8.31 2.34 10.62 2 13 C1.34 12.67 0.68 12.34 0 12 C0 8.04 0 4.08 0 0 Z " fill="#D0ECFA" transform="translate(210,119)"/>
<path d="M0 0 C0.33 1.32 0.66 2.64 1 4 C1.66 4 2.32 4 3 4 C3 4.99 3 5.98 3 7 C2.01 7 1.02 7 0 7 C0.33 8.32 0.66 9.64 1 11 C-1.66666667 12.33333333 -4.33333333 13.66666667 -7 15 C-7 14.34 -7 13.68 -7 13 C-9.97 12.505 -9.97 12.505 -13 12 C-11 10 -11 10 -7.5625 8.625 C-4.07587364 7.03460903 -2.8301459 6.25359271 -1 3 C-0.67 2.01 -0.34 1.02 0 0 Z " fill="#41558A" transform="translate(109,49)"/>
<path d="M0 0 C0.33 0.99 0.66 1.98 1 3 C-4.04982453 7.91334278 -9.33893336 9.87841472 -16 12 C-14.37340254 7.51409221 -13.34560574 6.12657302 -9 4 C-6.01594164 2.62813424 -3.01804421 1.29532617 0 0 Z " fill="#BC9171" transform="translate(107,51)"/>
<path d="M0 0 C2.07026061 6.21078184 3.71086764 14.09605105 0.98828125 20.30859375 C0.66214844 20.86675781 0.33601563 21.42492187 0 22 C-0.33 22 -0.66 22 -1 22 C-2.63059689 15.54499249 -3.6633543 9.55951817 -2 3 C-1.34 2.01 -0.68 1.02 0 0 Z " fill="#D8916B" transform="translate(63,16)"/>
<path d="M0 0 C0 1.33333333 0 2.66666667 0 4 C3.63 4 7.26 4 11 4 C11.33 3.34 11.66 2.68 12 2 C13.32 2.66 14.64 3.32 16 4 C16 4.99 16 5.98 16 7 C8.74 7 1.48 7 -6 7 C-6 6.01 -6 5.02 -6 4 C-3.5625 2.375 -3.5625 2.375 -1 1 C-0.67 0.67 -0.34 0.34 0 0 Z " fill="#CFE2F4" transform="translate(196,78)"/>
<path d="M0 0 C0.45890625 0.40992188 0.9178125 0.81984375 1.390625 1.2421875 C2.00421875 1.78101563 2.6178125 2.31984375 3.25 2.875 C3.85328125 3.40867188 4.4565625 3.94234375 5.078125 4.4921875 C6.9391915 6.06498718 6.9391915 6.06498718 9.109375 7.0078125 C11 8 11 8 13 11 C12.625 13.1875 12.625 13.1875 12 15 C7.21342269 12.26481297 3.08905766 9.63358649 0 5 C-0.125 2.3125 -0.125 2.3125 0 0 Z " fill="#B48B70" transform="translate(27,33)"/>
<path d="M0 0 C0.804375 1.051875 0.804375 1.051875 1.625 2.125 C3.45587866 4.3413268 5.12537883 6.0021112 7.25 7.875 C9.92121872 10.45225625 9.9871578 10.86729725 10.375 14.875 C10.25125 15.90625 10.1275 16.9375 10 18 C0.04645892 8.32294618 0.04645892 8.32294618 -0.0625 2.875 C-0.041875 1.92625 -0.02125 0.9775 0 0 Z " fill="#C18D6B" transform="translate(41,21)"/>
<path d="M0 0 C0.99 0 1.98 0 3 0 C4.32 2.64 5.64 5.28 7 8 C7 5.36 7 2.72 7 0 C7.66 0 8.32 0 9 0 C9 4.29 9 8.58 9 13 C8.34 13 7.68 13 7 13 C5.68 10.36 4.36 7.72 3 5 C2.67 7.64 2.34 10.28 2 13 C1.34 13 0.68 13 0 13 C0 8.71 0 4.42 0 0 Z " fill="#CDE9FB" transform="translate(67,119)"/>
<path d="M0 0 C3.375 4.5 3.375 4.5 3.2487793 8.58496094 C3.22853195 9.48559265 3.20828461 10.38622437 3.18742371 11.31414795 C3.15006607 12.27782288 3.11270844 13.2414978 3.07421875 14.234375 C3.04777786 15.22753723 3.02133698 16.22069946 2.99409485 17.24395752 C2.90638778 20.41325363 2.7972175 23.58139694 2.6875 26.75 C2.62423551 28.89969839 2.56236965 31.04943843 2.50195312 33.19921875 C2.35085622 38.46673655 2.18213682 43.73346907 2 49 C1.67 49 1.34 49 1 49 C0.67 32.83 0.34 16.66 0 0 Z " fill="#2E5487" transform="translate(244,27)"/>
<path d="M0 0 C0.33 1.32 0.66 2.64 1 4 C-3.19145421 7.57807067 -7.48487824 10.83941477 -12 14 C-12 11.375 -12 11.375 -11 8 C-8.55128693 5.66109469 -5.8388475 3.83365247 -3 2 C-2.01 1.34 -1.02 0.68 0 0 Z " fill="#B48D79" transform="translate(99,34)"/>
<path d="M0 0 C0.99 0.33 1.98 0.66 3 1 C3.94921875 3.72265625 3.94921875 3.72265625 4.6875 7.0625 C5.06455078 8.71958984 5.06455078 8.71958984 5.44921875 10.41015625 C5.63097656 11.26480469 5.81273437 12.11945313 6 13 C5.01 13 4.02 13 3 13 C3 11.68 3 10.36 3 9 C1.01508358 9.26676204 1.01508358 9.26676204 -1 10 C-1.33 10.99 -1.66 11.98 -2 13 C-2.66 13 -3.32 13 -4 13 C-3.52343588 11.20763933 -3.04366502 9.41613103 -2.5625 7.625 C-2.29566406 6.62726563 -2.02882813 5.62953125 -1.75390625 4.6015625 C-1 2 -1 2 0 0 Z " fill="#ADC7E1" transform="translate(271,119)"/>
<path d="M0 0 C0.66 0 1.32 0 2 0 C3.60116168 4.80348505 3.6117046 10.1648862 2 15 C0.68 15.33 -0.64 15.66 -2 16 C-2 15.01 -2 14.02 -2 13 C-4.97 13 -7.94 13 -11 13 C-11 12.67 -11 12.34 -11 12 C-10.04287109 11.92652344 -10.04287109 11.92652344 -9.06640625 11.8515625 C-7.82697266 11.73941406 -7.82697266 11.73941406 -6.5625 11.625 C-5.73878906 11.55539063 -4.91507812 11.48578125 -4.06640625 11.4140625 C-3.38449219 11.27742188 -2.70257813 11.14078125 -2 11 C-0.85185003 8.70370006 -0.69230191 6.92301914 -0.4375 4.375 C-0.35371094 3.55773438 -0.26992187 2.74046875 -0.18359375 1.8984375 C-0.12300781 1.27195313 -0.06242187 0.64546875 0 0 Z " fill="#F5C951" transform="translate(82,57)"/>
<path d="M0 0 C0.66 1.32 1.32 2.64 2 4 C1.01 4.495 1.01 4.495 0 5 C0.33 7.31 0.66 9.62 1 12 C0.34 12 -0.32 12 -1 12 C-1 12.66 -1 13.32 -1 14 C-2.98 14 -4.96 14 -7 14 C-6.67 13.34 -6.34 12.68 -6 12 C-5.34 12.33 -4.68 12.66 -4 13 C-4 9.04 -4 5.08 -4 1 C-2.68 0.67 -1.36 0.34 0 0 Z " fill="#3D649B" transform="translate(141,119)"/>
<path d="M0 0 C1.7607347 2.64110204 3.00960644 5.03305734 4.25 7.9375 C4.62640625 8.79214844 5.0028125 9.64679687 5.390625 10.52734375 C6 13 6 13 5.109375 15.31640625 C4.74328125 15.87199219 4.3771875 16.42757812 4 17 C4 16.01 4 15.02 4 14 C3.34 14 2.68 14 2 14 C2 12.35 2 10.7 2 9 C1.34 9 0.68 9 0 9 C0 11.97 0 14.94 0 18 C-0.33 18 -0.66 18 -1 18 C-1.02684312 15.18743719 -1.04676188 12.37512759 -1.0625 9.5625 C-1.07087891 8.76005859 -1.07925781 7.95761719 -1.08789062 7.13085938 C-1.0965143 5.08704779 -1.0522815 3.04316098 -1 1 C-0.67 0.67 -0.34 0.34 0 0 Z " fill="#365E92" transform="translate(247,34)"/>
<path d="M0 0 C1.32 0 2.64 0 4 0 C4 0.66 4 1.32 4 2 C5.32 2.66 6.64 3.32 8 4 C7.38125 4.165 6.7625 4.33 6.125 4.5 C2.72243051 6.90181375 2.77387974 10.00162134 2 14 C1.34 14 0.68 14 0 14 C0 10.7 0 7.4 0 4 C-1.98 4 -3.96 4 -6 4 C-6 3.67 -6 3.34 -6 3 C-4.02 3 -2.04 3 0 3 C0 2.01 0 1.02 0 0 Z " fill="#2A548E" transform="translate(178,114)"/>
<path d="M0 0 C2.625 0.375 2.625 0.375 5 1 C5 1.99 5 2.98 5 4 C4.34 4 3.68 4 3 4 C3 3.34 3 2.68 3 2 C2.01 2 1.02 2 0 2 C0 3.32 0 4.64 0 6 C0.639375 6.226875 1.27875 6.45375 1.9375 6.6875 C4 8 4 8 4.75 10.625 C4.8325 11.40875 4.915 12.1925 5 13 C2 15 2 15 -0.6875 14.625 C-1.450625 14.41875 -2.21375 14.2125 -3 14 C-3 13.01 -3 12.02 -3 11 C-2.34 11 -1.68 11 -1 11 C-1 11.66 -1 12.32 -1 13 C0.32 13 1.64 13 3 13 C3 11.68 3 10.36 3 9 C2.360625 8.773125 1.72125 8.54625 1.0625 8.3125 C-1 7 -1 7 -1.875 4.5 C-1.91625 3.675 -1.9575 2.85 -2 2 C-1.34 1.34 -0.68 0.68 0 0 Z " fill="#B4D5F2" transform="translate(82,118)"/>
<path d="M0 0 C2.64 0 5.28 0 8 0 C8 0.99 8 1.98 8 3 C7.34 3 6.68 3 6 3 C6 2.34 6 1.68 6 1 C4.68 1 3.36 1 2 1 C2 2.65 2 4.3 2 6 C2.99 6 3.98 6 5 6 C5.33 5.34 5.66 4.68 6 4 C5.67 5.32 5.34 6.64 5 8 C4.01 7.67 3.02 7.34 2 7 C2 8.65 2 10.3 2 12 C3.32 12 4.64 12 6 12 C6 11.34 6 10.68 6 10 C6.66 10 7.32 10 8 10 C8 10.99 8 11.98 8 13 C5.36 13 2.72 13 0 13 C0 8.71 0 4.42 0 0 Z " fill="#BBD7EF" transform="translate(226,119)"/>
<path d="M0 0 C0.66 0.33 1.32 0.66 2 1 C1.67257813 1.51046875 1.34515625 2.0209375 1.0078125 2.546875 C-0.35648384 5.86772037 -0.1912273 8.67372568 -0.125 12.25 C-0.10695313 13.51328125 -0.08890625 14.7765625 -0.0703125 16.078125 C-0.04710937 17.04234375 -0.02390625 18.0065625 0 19 C-0.99 18.01 -1.98 17.02 -3 16 C-3.66 16.33 -4.32 16.66 -5 17 C-6.15837626 12.94568308 -5.83691257 10.78187881 -4 7 C-3.34 7 -2.68 7 -2 7 C-1.855625 6.030625 -1.71125 5.06125 -1.5625 4.0625 C-1 1 -1 1 0 0 Z M-7 17 C-5 18 -5 18 -5 18 Z " fill="#3A5593" transform="translate(61,17)"/>
<path d="M0 0 C2 3 2 3 3 6 C3.99 4.02 4.98 2.04 6 0 C6.33 0 6.66 0 7 0 C7 2.64 7 5.28 7 8 C7.99 7.67 8.98 7.34 10 7 C10 7.66 10 8.32 10 9 C1.57142857 10.28571429 1.57142857 10.28571429 -3 9 C-2.67 8.34 -2.34 7.68 -2 7 C-1.34 7.33 -0.68 7.66 0 8 C0 5.36 0 2.72 0 0 Z " fill="#406298" transform="translate(42,124)"/>
<path d="M0 0 C0.7425 0.2475 1.485 0.495 2.25 0.75 C2.25 1.74 2.25 2.73 2.25 3.75 C1.59 3.75 0.93 3.75 0.25 3.75 C0.25 3.09 0.25 2.43 0.25 1.75 C-1.07 1.75 -2.39 1.75 -3.75 1.75 C-3.75 5.38 -3.75 9.01 -3.75 12.75 C-2.43 12.75 -1.11 12.75 0.25 12.75 C0.25 12.09 0.25 11.43 0.25 10.75 C0.91 10.75 1.57 10.75 2.25 10.75 C1.92 12.07 1.59 13.39 1.25 14.75 C-1.0625 15 -1.0625 15 -3.75 14.75 C-6.48482251 12.39239439 -6.73758539 10.84931686 -7.1875 7.25 C-6.75 3.75 -6.75 3.75 -5.0625 1.25 C-2.75 -0.25 -2.75 -0.25 0 0 Z " fill="#A6CAE7" transform="translate(262.75,118.25)"/>
<path d="M0 0 C-0.33 0.99 -0.66 1.98 -1 3 C-1 2.34 -1 1.68 -1 1 C-2.32 1 -3.64 1 -5 1 C-3.63016497 4.16115776 -3.0109362 4.9927092 0 7 C0.3125 9.5 0.3125 9.5 0 12 C-0.66 12.66 -1.32 13.32 -2 14 C-4.625 13.625 -4.625 13.625 -7 13 C-6.67 12.01 -6.34 11.02 -6 10 C-4.68 10.66 -3.36 11.32 -2 12 C-2.39803561 9.11424181 -2.79009069 8.17810487 -5.0625 6.25 C-5.701875 5.8375 -6.34125 5.425 -7 5 C-6.625 2.5625 -6.625 2.5625 -6 0 C-3.50907189 -1.24546405 -2.58919267 -0.7767578 0 0 Z " fill="#ABCDEB" transform="translate(24,119)"/>
<path d="M0 0 C0.33 0 0.66 0 1 0 C1.33 3.3 1.66 6.6 2 10 C2.33 9.01 2.66 8.02 3 7 C3.99 7 4.98 7 6 7 C6.33 9.64 6.66 12.28 7 15 C4.03 14.67 1.06 14.34 -2 14 C-1.67 13.34 -1.34 12.68 -1 12 C-0.77141886 9.9625237 -0.58975722 7.91959697 -0.4375 5.875 C-0.35371094 4.77929688 -0.26992187 3.68359375 -0.18359375 2.5546875 C-0.12300781 1.71164063 -0.06242187 0.86859375 0 0 Z " fill="#30588D" transform="translate(67,25)"/>
<path d="M0 0 C0.33 1.32 0.66 2.64 1 4 C0.01 4 -0.98 4 -2 4 C-2.33 5.32 -2.66 6.64 -3 8 C-3.66 7.67 -4.32 7.34 -5 7 C-5 8.32 -5 9.64 -5 11 C-5.66 11 -6.32 11 -7 11 C-7 7.7 -7 4.4 -7 1 C-3 0 -3 0 0 0 Z " fill="#83A9D0" transform="translate(186,144)"/>
<path d="M0 0 C2.625 0.375 2.625 0.375 5 1 C4.67 1.99 4.34 2.98 4 4 C2.68 3.34 1.36 2.68 0 2 C0 3.32 0 4.64 0 6 C0.639375 6.226875 1.27875 6.45375 1.9375 6.6875 C4 8 4 8 4.875 10.5 C4.91625 11.325 4.9575 12.15 5 13 C4.34 13.66 3.68 14.32 3 15 C0.375 14.625 0.375 14.625 -2 14 C-1.67 13.01 -1.34 12.02 -1 11 C-1 11.66 -1 12.32 -1 13 C0.32 13 1.64 13 3 13 C3 11.68 3 10.36 3 9 C2.360625 8.773125 1.72125 8.54625 1.0625 8.3125 C-1 7 -1 7 -1.875 4.5 C-1.91625 3.675 -1.9575 2.85 -2 2 C-1.34 1.34 -0.68 0.68 0 0 Z " fill="#AFD7F0" transform="translate(157,118)"/>
<path d="M0 0 C0.99 0 1.98 0 3 0 C3 0.99 3 1.98 3 3 C4.32 3 5.64 3 7 3 C7.66 3 8.32 3 9 3 C9.33 2.01 9.66 1.02 10 0 C10 2.64 10 5.28 10 8 C9.01 8 8.02 8 7 8 C6.67 8.99 6.34 9.98 6 11 C5.62875 10.1028125 5.62875 10.1028125 5.25 9.1875 C4.1279694 6.86575942 4.1279694 6.86575942 1.875 5.5 C1.25625 5.005 0.6375 4.51 0 4 C0 2.68 0 1.36 0 0 Z " fill="#2B538B" transform="translate(82,120)"/>
<path d="M0 0 C2 3.75 2 3.75 2 6 C2.99 6.33 3.98 6.66 5 7 C5 9.31 5 11.62 5 14 C4.34 12.68 3.68 11.36 3 10 C2.34 10.66 1.68 11.32 1 12 C0.34 11.34 -0.32 10.68 -1 10 C-1.99 10.33 -2.98 10.66 -4 11 C-3.52269162 9.5410574 -3.04308958 8.08286504 -2.5625 6.625 C-2.29566406 5.81289063 -2.02882813 5.00078125 -1.75390625 4.1640625 C-1 2 -1 2 0 0 Z " fill="#DCEDF6" transform="translate(286,20)"/>
<path d="M0 0 C0.66 0 1.32 0 2 0 C2 3.63 2 7.26 2 11 C2.66 11 3.32 11 4 11 C4 7.7 4 4.4 4 1 C4.33 1 4.66 1 5 1 C5.02696365 2.79158489 5.04637917 4.58328473 5.0625 6.375 C5.07410156 7.37273437 5.08570313 8.37046875 5.09765625 9.3984375 C5 12 5 12 4 14 C5.32 14 6.64 14 8 14 C8 14.66 8 15.32 8 16 C5.125 16.125 5.125 16.125 2 16 C1.34 15.34 0.68 14.68 0 14 C0.99 14 1.98 14 3 14 C3 13.34 3 12.68 3 12 C2.01 11.67 1.02 11.34 0 11 C-0.95308021 7.29357698 -0.92648564 4.70594256 0 1 C0 0.67 0 0.34 0 0 Z " fill="#29518A" transform="translate(35,119)"/>
<path d="M0 0 C2.64 0 5.28 0 8 0 C7.67 0.99 7.34 1.98 7 3 C4.525 2.01 4.525 2.01 2 1 C2.33 2.32 2.66 3.64 3 5 C3.99 5 4.98 5 6 5 C5.67 5.99 5.34 6.98 5 8 C4.01 7.67 3.02 7.34 2 7 C2 8.65 2 10.3 2 12 C3.98 11.34 5.96 10.68 8 10 C8 11.32 8 12.64 8 14 C5.36 14 2.72 14 0 14 C0 9.38 0 4.76 0 0 Z " fill="#B6D3F0" transform="translate(144,119)"/>
<path d="M0 0 C3 1 3 1 4.6875 4.0625 C5.120625 5.031875 5.55375 6.00125 6 7 C6.33 4.69 6.66 2.38 7 0 C7.33 0 7.66 0 8 0 C8 4.29 8 8.58 8 13 C3.5 8.5 3.5 8.5 2 5 C1.67 7.64 1.34 10.28 1 13 C0.67 13 0.34 13 0 13 C0 8.71 0 4.42 0 0 Z " fill="#C6E6F7" transform="translate(335,119)"/>
<path d="M0 0 C1.98 0.99 1.98 0.99 4 2 C4.99 1.34 5.98 0.68 7 0 C7.33 1.32 7.66 2.64 8 4 C11.63 4.33 15.26 4.66 19 5 C16.50994323 7.49005677 15.62529268 7.29703766 12.1875 7.3125 C7.99294109 7.22170868 5.25851394 6.85119969 2 4 C0.6875 1.8125 0.6875 1.8125 0 0 Z " fill="#3E6497" transform="translate(137,74)"/>
<path d="M0 0 C1.65 0.33 3.3 0.66 5 1 C4.67 1.99 4.34 2.98 4 4 C4 3.34 4 2.68 4 2 C2.68 2.33 1.36 2.66 0 3 C0 5.97 0 8.94 0 12 C1.65 11.67 3.3 11.34 5 11 C4.67 12.32 4.34 13.64 4 15 C1.0625 14.625 1.0625 14.625 -2 14 C-3.58873246 10.82253509 -3.41026221 7.45987798 -3 4 C-1.5 1.5 -1.5 1.5 0 0 Z " fill="#ACD2F0" transform="translate(308,118)"/>
<path d="M0 0 C0.66 0 1.32 0 2 0 C2 3.63 2 7.26 2 11 C0.35 11.33 -1.3 11.66 -3 12 C-4.4783226 9.04335481 -4.06032783 6.25770263 -4 3 C-3.01 3.33 -2.02 3.66 -1 4 C-0.67 4.99 -0.34 5.98 0 7 C0 4.69 0 2.38 0 0 Z " fill="#2F5690" transform="translate(109,120)"/>
<path d="M0 0 C0.99 0.33 1.98 0.66 3 1 C2.67 4.63 2.34 8.26 2 12 C3.32 12 4.64 12 6 12 C6 11.01 6 10.02 6 9 C6.66 9 7.32 9 8 9 C8 10.32 8 11.64 8 13 C6 14 6 14 -1 14 C-0.67 9.38 -0.34 4.76 0 0 Z " fill="#AAC4E1" transform="translate(280,119)"/>
<path d="M0 0 C4.95 0 9.9 0 15 0 C14.67 1.32 14.34 2.64 14 4 C12.04082341 3.9131252 10.08258129 3.80495488 8.125 3.6875 C6.48917969 3.60048828 6.48917969 3.60048828 4.8203125 3.51171875 C3.88960937 3.34285156 2.95890625 3.17398437 2 3 C1.34 2.01 0.68 1.02 0 0 Z " fill="#F5FDFE" transform="translate(148,17)"/>
<path d="M0 0 C2.31 0 4.62 0 7 0 C6.67 0.66 6.34 1.32 6 2 C4.68 1.67 3.36 1.34 2 1 C2 2.65 2 4.3 2 6 C3.32 5.34 4.64 4.68 6 4 C5.67 5.32 5.34 6.64 5 8 C4.01 7.67 3.02 7.34 2 7 C2 8.65 2 10.3 2 12 C3.65 11.67 5.3 11.34 7 11 C7 11.66 7 12.32 7 13 C4.69 13 2.38 13 0 13 C0 8.71 0 4.42 0 0 Z " fill="#BAE2FB" transform="translate(359,119)"/>
<path d="M0 0 C0.99 0 1.98 0 3 0 C3.66 0.99 4.32 1.98 5 3 C5.33 2.01 5.66 1.02 6 0 C6.66 0 7.32 0 8 0 C8 3.3 8 6.6 8 10 C7.34 10 6.68 10 6 10 C4.02 6.535 4.02 6.535 2 3 C2 5.31 2 7.62 2 10 C1.34 10 0.68 10 0 10 C0 6.7 0 3.4 0 0 Z " fill="#8EB6DD" transform="translate(203,145)"/>
<path d="M0 0 C0.66 0 1.32 0 2 0 C2 0.66 2 1.32 2 2 C2.99 2 3.98 2 5 2 C5.10824843 3.6026782 5.18570645 5.20745748 5.25 6.8125 C5.29640625 7.70582031 5.3428125 8.59914063 5.390625 9.51953125 C5 12 5 12 3.109375 13.82421875 C1 15 1 15 -1 15 C-0.67 14.13375 -0.34 13.2675 0 12.375 C1.33810064 7.85891034 1.4905219 4.47156571 0 0 Z " fill="#2E578F" transform="translate(188,119)"/>
<path d="M0 0 C3 1.8125 3 1.8125 6 4 C6 4.99 6 5.98 6 7 C-0.93 7 -7.86 7 -15 7 C-15 6.67 -15 6.34 -15 6 C-10.38 5.67 -5.76 5.34 -1 5 C-0.67 3.35 -0.34 1.7 0 0 Z " fill="#C6DFF4" transform="translate(299,78)"/>
<path d="M0 0 C0 2.31 0 4.62 0 7 C-1.98 7.99 -1.98 7.99 -4 9 C-3.34 8.01 -2.68 7.02 -2 6 C-2 5.01 -2 4.02 -2 3 C-3.62672685 4.12250156 -5.25132582 5.24808733 -6.875 6.375 C-7.77992187 7.00148438 -8.68484375 7.62796875 -9.6171875 8.2734375 C-12.03494125 9.9298095 -12.03494125 9.9298095 -14 12 C-13.4409112 8.75728494 -12.5867822 7.06942576 -10 5 C-9.34 5 -8.68 5 -8 5 C-8 4.34 -8 3.68 -8 3 C-7.01 3 -6.02 3 -5 3 C-5 2.34 -5 1.68 -5 1 C-2 0 -2 0 0 0 Z " fill="#535A78" transform="translate(101,32)"/>
<path d="M0 0 C2 4 2 4 2.0625 7.0625 C1 10 1 10 -2.25 11.875 C-5.46765376 12.84029613 -7.69582028 13.30037997 -11 13 C-11.33 11.68 -11.66 10.36 -12 9 C-9 8 -9 8 -6 9 C-4.00038436 9.03920815 -1.99950636 9.04443347 0 9 C0 6.03 0 3.06 0 0 Z " fill="#3E68AC" transform="translate(212,123)"/>
<path d="M0 0 C0.66 0 1.32 0 2 0 C2.05391993 1.79133978 2.09275571 3.58313899 2.125 5.375 C2.14820313 6.37273437 2.17140625 7.37046875 2.1953125 8.3984375 C2 11 2 11 0 13 C-3.125 13.125 -3.125 13.125 -6 13 C-6.33 12.01 -6.66 11.02 -7 10 C-5.02 9.67 -3.04 9.34 -1 9 C-0.67 6.03 -0.34 3.06 0 0 Z " fill="#365E93" transform="translate(209,120)"/>
<path d="M0 0 C3.44216672 2.6598561 3.99504674 5.90288286 5 10 C1.71303767 10.79953138 0.28976808 11.09658936 -3 10 C-3 9.34 -3 8.68 -3 8 C-2.01 8 -1.02 8 0 8 C0 5.36 0 2.72 0 0 Z " fill="#2C5790" transform="translate(337,125)"/>
<path d="M0 0 C2.475 0.99 2.475 0.99 5 2 C5 2.66 5 3.32 5 4 C6.32 4 7.64 4 9 4 C9.66 3.34 10.32 2.68 11 2 C11.33 3.32 11.66 4.64 12 6 C11.34 6 10.68 6 10 6 C10.33 8.97 10.66 11.94 11 15 C8.98518772 12.61885822 7.97006279 10.90020929 7.0625 7.875 C6.30486641 4.89717929 6.30486641 4.89717929 4 3.8125 C3.34 3.544375 2.68 3.27625 2 3 C1.34 2.01 0.68 1.02 0 0 Z " fill="#4F636F" transform="translate(76,43)"/>
<path d="M0 0 C5.94 0 11.88 0 18 0 C17.67 0.99 17.34 1.98 17 3 C15.67696283 3.3721042 14.34262065 3.70630173 13 4 C12.67 4.66 12.34 5.32 12 6 C11.67 4.35 11.34 2.7 11 1 C9.741875 1.144375 8.48375 1.28875 7.1875 1.4375 C6.12595703 1.55931641 6.12595703 1.55931641 5.04296875 1.68359375 C2.80603607 1.97170735 2.80603607 1.97170735 0 3 C0 2.01 0 1.02 0 0 Z " fill="#E3F2FC" transform="translate(287,17)"/>
<path d="M0 0 C0.33 1.32 0.66 2.64 1 4 C0.360625 4.433125 -0.27875 4.86625 -0.9375 5.3125 C-3.26746003 6.91239177 -3.26746003 6.91239177 -4 10 C-9.28 10 -14.56 10 -20 10 C-20 9.67 -20 9.34 -20 9 C-19.14277344 9.020625 -18.28554687 9.04125 -17.40234375 9.0625 C-10.54915029 9.07286308 -10.54915029 9.07286308 -4.578125 6.15234375 C-2.88730471 4.17156874 -1.38175543 2.20578413 0 0 Z " fill="#32578A" transform="translate(110,69)"/>
<path d="M0 0 C1.125 3.75 1.125 3.75 0 6 C0.3191623 8.22624593 0.3191623 8.22624593 0.9375 10.625 C1.13214844 11.44226562 1.32679687 12.25953125 1.52734375 13.1015625 C1.68332031 13.72804688 1.83929688 14.35453125 2 15 C0.02 13.68 -1.96 12.36 -4 11 C-3.56179109 6.44262737 -3.14958831 3.42346555 0 0 Z " fill="#335893" transform="translate(80,32)"/>
<path d="M0 0 C0.99 0 1.98 0 3 0 C3.33 4.29 3.66 8.58 4 13 C4.66 13 5.32 13 6 13 C6.33 12.34 6.66 11.68 7 11 C7.33 11.99 7.66 12.98 8 14 C5.07175348 14.97608217 3.04386724 15.08226668 0 15 C0.20625 14.236875 0.4125 13.47375 0.625 12.6875 C1.33391203 9.78114056 1.33391203 9.78114056 -1 7 C-0.625 3.3125 -0.625 3.3125 0 0 Z " fill="#5076A6" transform="translate(341,118)"/>
<path d="M0 0 C3.3 0.33 6.6 0.66 10 1 C9.67 3.97 9.34 6.94 9 10 C8.34 10 7.68 10 7 10 C6.34 7.36 5.68 4.72 5 2 C3.35 1.67 1.7 1.34 0 1 C0 0.67 0 0.34 0 0 Z " fill="#29588C" transform="translate(208,116)"/>
<path d="M0 0 C0.99 0 1.98 0 3 0 C2.25 6.75 2.25 6.75 0 9 C-1.02304948 10.65261839 -2.02616054 12.31791365 -3 14 C-3.66 13.67 -4.32 13.34 -5 13 C-3.35 8.71 -1.7 4.42 0 0 Z " fill="#3E6093" transform="translate(278,54)"/>
<path d="M0 0 C0.33 0 0.66 0 1 0 C1.0270043 1.45823212 1.04639787 2.91660675 1.0625 4.375 C1.07410156 5.18710938 1.08570313 5.99921875 1.09765625 6.8359375 C1 9 1 9 0 11 C1.98 10.67 3.96 10.34 6 10 C5.01 11.485 5.01 11.485 4 13 C1.36 12.34 -1.28 11.68 -4 11 C-3.52269162 9.5410574 -3.04308958 8.08286504 -2.5625 6.625 C-2.29566406 5.81289062 -2.02882812 5.00078125 -1.75390625 4.1640625 C-1 2 -1 2 0 0 Z " fill="#3B6699" transform="translate(219,122)"/>
<path d="M0 0 C0.33 0 0.66 0 1 0 C1 3.63 1 7.26 1 11 C-0.32 11.33 -1.64 11.66 -3 12 C-4.28436734 13.9837767 -4.28436734 13.9837767 -5 16 C-6.32 15.34 -7.64 14.68 -9 14 C-8 13 -7 12 -6 11 C-5.505 10.443125 -5.01 9.88625 -4.5 9.3125 C-3 8 -3 8 0 8 C0 5.36 0 2.72 0 0 Z " fill="#39629B" transform="translate(92,120)"/>
<path d="M0 0 C1.65 0 3.3 0 5 0 C5 2.31 5 4.62 5 7 C4.34 7 3.68 7 3 7 C2.67 7.66 2.34 8.32 2 9 C0 7 0 7 -0.125 3.375 C-0.08375 2.26125 -0.0425 1.1475 0 0 Z " fill="#32529C" transform="translate(61,49)"/>
<path d="M0 0 C1.98 0.66 3.96 1.32 6 2 C5.67 2.66 5.34 3.32 5 4 C4.67 4 4.34 4 4 4 C4 6.64 4 9.28 4 12 C1.27352315 9.64531545 0.01243658 7.4591583 -1 4 C-0.625 1.6875 -0.625 1.6875 0 0 Z " fill="#4D70A6" transform="translate(71,116)"/>
<path d="M0 0 C0.33 0 0.66 0 1 0 C1 3.63 1 7.26 1 11 C-0.98 11.99 -0.98 11.99 -3 13 C-3.33 10.03 -3.66 7.06 -4 4 C-3.01 3.67 -2.02 3.34 -1 3 C-1.020625 3.804375 -1.04125 4.60875 -1.0625 5.4375 C-1.29633621 7.93354885 -1.29633621 7.93354885 0 9 C0 6.03 0 3.06 0 0 Z " fill="#3A689C" transform="translate(237,120)"/>
<path d="M0 0 C0.66 0.33 1.32 0.66 2 1 C-0.90471278 4.37672861 -3.08127032 4.58878877 -7.37109375 4.94921875 C-11.94957037 5.03765886 -16.45979799 4.55161333 -21 4 C-21 3.67 -21 3.34 -21 3 C-19.98679688 2.95101562 -18.97359375 2.90203125 -17.9296875 2.8515625 C-16.57810089 2.77647436 -15.22653962 2.70092919 -13.875 2.625 C-13.20984375 2.5940625 -12.5446875 2.563125 -11.859375 2.53125 C-7.5809166 2.27957598 -4.0337563 1.37650437 0 0 Z " fill="#4B6B9A" transform="translate(163,82)"/>
<path d="M0 0 C0.66 0 1.32 0 2 0 C2.99 3.3 3.98 6.6 5 10 C4.34 10 3.68 10 3 10 C3 9.01 3 8.02 3 7 C1.68 7 0.36 7 -1 7 C-1 7.99 -1 8.98 -1 10 C-1.66 9.67 -2.32 9.34 -3 9 C-2.01 6.03 -1.02 3.06 0 0 Z " fill="#98B8DF" transform="translate(218,145)"/>
<path d="M0 0 C4.51478398 0.53115106 7.34666857 2.36620292 11 5 C10.01 5.33 9.02 5.66 8 6 C7.01 5.34 6.02 4.68 5 4 C4.67 4.99 4.34 5.98 4 7 C3.67 6.34 3.34 5.68 3 5 C2.01 4.67 1.02 4.34 0 4 C0 2.68 0 1.36 0 0 Z " fill="#42689D" transform="translate(146,120)"/>
<path d="M0 0 C0.99 0.33 1.98 0.66 3 1 C3 4.63 3 8.26 3 12 C2.67 12 2.34 12 2 12 C1.67 10.35 1.34 8.7 1 7 C0.67 8.65 0.34 10.3 0 12 C-0.33 12 -0.66 12 -1 12 C-1.02687279 10.18757948 -1.04633715 8.37504767 -1.0625 6.5625 C-1.07410156 5.55316406 -1.08570313 4.54382813 -1.09765625 3.50390625 C-1 1 -1 1 0 0 Z " fill="#244F85" transform="translate(64,119)"/>
<path d="M0 0 C1.27230469 0.00902344 2.54460937 0.01804687 3.85546875 0.02734375 C5.31919922 0.04474609 5.31919922 0.04474609 6.8125 0.0625 C6.8125 0.3925 6.8125 0.7225 6.8125 1.0625 C1.3675 1.5575 1.3675 1.5575 -4.1875 2.0625 C-1.8775 2.7225 0.4325 3.3825 2.8125 4.0625 C2.8125 4.3925 2.8125 4.7225 2.8125 5.0625 C-0.1575 5.0625 -3.1275 5.0625 -6.1875 5.0625 C-6.1875 4.4025 -6.1875 3.7425 -6.1875 3.0625 C-7.5075 2.4025 -8.8275 1.7425 -10.1875 1.0625 C-6.62704823 -0.12431726 -3.74941663 -0.03439832 0 0 Z " fill="#C8DCF3" transform="translate(153.1875,15.9375)"/>
<path d="M0 0 C0.99 0.33 1.98 0.66 3 1 C2.34 1 1.68 1 1 1 C1 4.63 1 8.26 1 12 C0.01 12.33 -0.98 12.66 -2 13 C-3.35384615 5.73846154 -3.35384615 5.73846154 -1.5625 2 C-1.046875 1.34 -0.53125 0.68 0 0 Z " fill="#3E67A7" transform="translate(334,118)"/>
<path d="M0 0 C1.231394 2.46278801 1.07159196 4.2795055 1 7 C-1.64 7.33 -4.28 7.66 -7 8 C-5.98823563 4.59679258 -5.35156418 3.24274669 -2.375 1.1875 C-1.59125 0.795625 -0.8075 0.40375 0 0 Z " fill="#E4F2F9" transform="translate(159,77)"/>
<path d="M0 0 C0.33 0.66 0.66 1.32 1 2 C-0.2065625 3.2684375 -0.2065625 3.2684375 -1.4375 4.5625 C-4.21628662 7.8515158 -4.74117776 10.68629604 -5 15 C-5.33 15 -5.66 15 -6 15 C-6.92017937 5.11659193 -6.92017937 5.11659193 -4.6640625 2.37890625 C-3 1.3125 -3 1.3125 0 0 Z " fill="#EFF9FC" transform="translate(332,23)"/>
<path d="M0 0 C0.99 0.33 1.98 0.66 3 1 C3 4.3 3 7.6 3 11 C2.01 11.33 1.02 11.66 0 12 C0 8.04 0 4.08 0 0 Z " fill="#30538F" transform="translate(344,120)"/>
<path d="M0 0 C0.66 0 1.32 0 2 0 C1.85930804 2.12534659 1.71229079 4.25027529 1.5625 6.375 C1.48128906 7.55835937 1.40007812 8.74171875 1.31640625 9.9609375 C1 13 1 13 0 15 C-0.99 15 -1.98 15 -3 15 C-2.690625 14.195625 -2.38125 13.39125 -2.0625 12.5625 C-0.81434483 8.37750913 -0.3662304 4.33693899 0 0 Z " fill="#345E8F" transform="translate(171,64)"/>
<path d="M0 0 C1.32 0.66 2.64 1.32 4 2 C4 2.99 4 3.98 4 5 C5.32 4.67 6.64 4.34 8 4 C8 4.66 8 5.32 8 6 C4.18243176 7.37432457 0.92744671 6.67975039 -3 6 C-2.67 5.34 -2.34 4.68 -2 4 C-1.34 4.33 -0.68 4.66 0 5 C0 3.35 0 1.7 0 0 Z " fill="#4068A2" transform="translate(30,127)"/>
<path d="M0 0 C2.0625 0.4375 2.0625 0.4375 4 1 C2.68 1.33 1.36 1.66 0 2 C0.33 2.66 0.66 3.32 1 4 C1.07033769 5.87379605 1.0843022 7.75001102 1.0625 9.625 C1.05347656 10.62789062 1.04445313 11.63078125 1.03515625 12.6640625 C1.02355469 13.43492187 1.01195312 14.20578125 1 15 C-0.32 15 -1.64 15 -3 15 C-2.67 13.68 -2.34 12.36 -2 11 C-1.34 11.33 -0.68 11.66 0 12 C-0.08378906 11.21753906 -0.16757812 10.43507813 -0.25390625 9.62890625 C-0.35574219 8.61699219 -0.45757812 7.60507813 -0.5625 6.5625 C-0.66691406 5.55316406 -0.77132813 4.54382813 -0.87890625 3.50390625 C-0.91886719 2.67761719 -0.95882813 1.85132812 -1 1 C-0.67 0.67 -0.34 0.34 0 0 Z " fill="#29528A" transform="translate(279,116)"/>
<path d="M0 0 C4.95 0.99 4.95 0.99 10 2 C10 2.33 10 2.66 10 3 C8.35 3.33 6.7 3.66 5 4 C6.65 4.33 8.3 4.66 10 5 C10 5.66 10 6.32 10 7 C5.85463326 6.5289356 3.0080208 6.0080208 0 3 C0 2.01 0 1.02 0 0 Z " fill="#B18C7A" transform="translate(20,52)"/>
<path d="M0 0 C0.66 0 1.32 0 2 0 C2.36629408 4.27343092 1.40814077 6.48812804 -1 10 C-2.32 9.67 -3.64 9.34 -5 9 C-4.34 8.67 -3.68 8.34 -3 8 C-3 6.35 -3 4.7 -3 3 C-2.01 3 -1.02 3 0 3 C0 2.01 0 1.02 0 0 Z " fill="#4B71A6" transform="translate(175,123)"/>
<path d="M0 0 C3.96 0 7.92 0 12 0 C12 0.33 12 0.66 12 1 C9.03 1 6.06 1 3 1 C3.66 1.33 4.32 1.66 5 2 C5 2.99 5 3.98 5 5 C3 6.6875 3 6.6875 1 8 C1 7.01 1 6.02 1 5 C0.34 4.67 -0.32 4.34 -1 4 C-0.34 4 0.32 4 1 4 C0.67 2.68 0.34 1.36 0 0 Z " fill="#476DA5" transform="translate(86,118)"/>
<path d="M0 0 C0.33 0 0.66 0 1 0 C1 2.31 1 4.62 1 7 C1.66 7.33 2.32 7.66 3 8 C0.6875 10.0625 0.6875 10.0625 -2 12 C-2.99 11.67 -3.98 11.34 -5 11 C-4.54625 10.484375 -4.0925 9.96875 -3.625 9.4375 C-1.61799617 6.42699426 -0.87268191 3.49072763 0 0 Z " fill="#4E6066" transform="translate(86,66)"/>
<path d="M0 0 C0.6875 1.8125 0.6875 1.8125 1 4 C-0.125 5.75 -0.125 5.75 -2 7 C-4.6875 7.1875 -4.6875 7.1875 -7 7 C-5.54744301 3.17053157 -3.57104439 1.87949705 0 0 Z " fill="#C28C6D" transform="translate(99,34)"/>
<path d="M0 0 C9.67328365 -0.86027226 9.67328365 -0.86027226 13.625 2.3125 C16 5 16 5 16 8 C15.34 8 14.68 8 14 8 C13.67 7.01 13.34 6.02 13 5 C8.66821752 2.79164031 4.85745385 1.59237242 0 1 C0 0.67 0 0.34 0 0 Z " fill="#2C5186" transform="translate(342,21)"/>
<path d="M0 0 C2.52588702 2.36292656 3.88820837 3.66462511 5 7 C2 9 2 9 -2 9 C-1.67 8.34 -1.34 7.68 -1 7 C-0.67 7 -0.34 7 0 7 C0 4.69 0 2.38 0 0 Z " fill="#3B649E" transform="translate(204,147)"/>
<path d="M0 0 C0 0.33 0 0.66 0 1 C-1.11375 1.12375 -2.2275 1.2475 -3.375 1.375 C-7.03103677 1.6465813 -7.03103677 1.6465813 -9 4 C-9 3.01 -9 2.02 -9 1 C-12.3 1 -15.6 1 -19 1 C-19 0.67 -19 0.34 -19 0 C-12.46837378 -1.10914408 -6.56492112 -0.78441153 0 0 Z " fill="#5375AE" transform="translate(151,118)"/>
<path d="M0 0 C0.33 0 0.66 0 1 0 C1 3.96 1 7.92 1 12 C0.34 11.01 -0.32 10.02 -1 9 C-1.33 9.66 -1.66 10.32 -2 11 C-2.66 11 -3.32 11 -4 11 C-3.52269162 9.5410574 -3.04308958 8.08286504 -2.5625 6.625 C-2.29566406 5.81289063 -2.02882813 5.00078125 -1.75390625 4.1640625 C-1 2 -1 2 0 0 Z " fill="#476491" transform="translate(289,28)"/>
<path d="M0 0 C1.32 0 2.64 0 4 0 C4 1.32 4 2.64 4 4 C4.99 4.33 5.98 4.66 7 5 C5.68 5 4.36 5 3 5 C3 4.34 3 3.68 3 3 C2.34 3 1.68 3 1 3 C1 3.66 1 4.32 1 5 C-0.65 5 -2.3 5 -4 5 C-3.67 4.34 -3.34 3.68 -3 3 C-2.34 3.33 -1.68 3.66 -1 4 C-0.67 2.68 -0.34 1.36 0 0 Z " fill="#4670A9" transform="translate(270,128)"/>
<path d="M0 0 C3.26954202 0.56371414 4.82575883 1.49962266 7 4 C6.01 4.99 5.02 5.98 4 7 C2 5.75 2 5.75 0 4 C0 2.68 0 1.36 0 0 Z " fill="#335A94" transform="translate(157,120)"/>
<path d="M0 0 C0.99 0.33 1.98 0.66 3 1 C3 5.1274515 2.54466387 8.915021 2 13 C1.34 13 0.68 13 0 13 C0 8.71 0 4.42 0 0 Z " fill="#A9C6E5" transform="translate(40,119)"/>
<path d="M0 0 C2 2 2 2 2.1171875 4.0234375 C1.45716924 10.43200185 1.45716924 10.43200185 -1.0625 13.5625 C-1.701875 14.036875 -2.34125 14.51125 -3 15 C-3.33 14.01 -3.66 13.02 -4 12 C-3.01 12 -2.02 12 -1 12 C-0.67 8.04 -0.34 4.08 0 0 Z " fill="#4D6A92" transform="translate(355,64)"/>
<path d="M0 0 C2.76223278 2.76223278 2.57856291 5.20706617 3 9 C3.99 8.67 4.98 8.34 6 8 C6.33 7.34 6.66 6.68 7 6 C6.125 9.875 6.125 9.875 5 11 C3.35 11 1.7 11 0 11 C0 7.37 0 3.74 0 0 Z " fill="#3D537B" transform="translate(60,28)"/>
<path d="M0 0 C0.66 1.32 1.32 2.64 2 4 C1.01 4 0.02 4 -1 4 C-1.33 6.31 -1.66 8.62 -2 11 C-2.99 11.33 -3.98 11.66 -5 12 C-4.74476126 10.37247769 -4.47025506 8.74796804 -4.1875 7.125 C-4.03667969 6.22007813 -3.88585937 5.31515625 -3.73046875 4.3828125 C-3 2 -3 2 0 0 Z " fill="#FAFDFB" transform="translate(285,29)"/>
<path d="M0 0 C0.99 0.495 0.99 0.495 2 1 C2.99 0.67 3.98 0.34 5 0 C5 1.98 5 3.96 5 6 C4.01 6 3.02 6 2 6 C1.34 6.99 0.68 7.98 0 9 C0 6.03 0 3.06 0 0 Z " fill="#265495" transform="translate(198,146)"/>
<path d="M0 0 C1.65 0.33 3.3 0.66 5 1 C4.071875 1.3403125 4.071875 1.3403125 3.125 1.6875 C0.38589791 3.37929835 -0.05024472 4.99244161 -1 8 C-1.99 7.34 -2.98 6.68 -4 6 C-3.67 4.68 -3.34 3.36 -3 2 C-2.01 2 -1.02 2 0 2 C0 1.34 0 0.68 0 0 Z " fill="#29568E" transform="translate(156,116)"/>
<path d="M0 0 C0.66 0 1.32 0 2 0 C2.33 2.97 2.66 5.94 3 9 C2.01 9.33 1.02 9.66 0 10 C0 6.7 0 3.4 0 0 Z " fill="#F6CA41" transform="translate(82,57)"/>
<path d="M0 0 C0.66 0.33 1.32 0.66 2 1 C1.42655063 3.86724686 1.1385485 4.8614515 -1 7 C-1.99 7 -2.98 7 -4 7 C-4 5.68 -4 4.36 -4 3 C-2 1.25 -2 1.25 0 0 Z " fill="#2C54A9" transform="translate(58,32)"/>
<path d="M0 0 C1.10868317 3.32604951 1.54177532 6.53058454 2 10 C1.34 10 0.68 10 0 10 C0 9.34 0 8.68 0 8 C-0.66 8 -1.32 8 -2 8 C-2.33 9.32 -2.66 10.64 -3 12 C-2.88541307 10.56163249 -2.75790884 9.12429034 -2.625 7.6875 C-2.55539063 6.88699219 -2.48578125 6.08648437 -2.4140625 5.26171875 C-2 3 -2 3 0 0 Z " fill="#B08879" transform="translate(63,16)"/>
<path d="M0 0 C2 3 2 3 2 6 C1.34 5.855625 0.68 5.71125 0 5.5625 C-3.65599551 4.87700084 -7.30622195 4.43824485 -11 4 C-11 3.67 -11 3.34 -11 3 C-7.37 3 -3.74 3 0 3 C0 2.01 0 1.02 0 0 Z " fill="#2E578E" transform="translate(60,56)"/>
<path d="M0 0 C0.66 0.33 1.32 0.66 2 1 C-1.48720616 5.3590077 -4.72760915 5.94552183 -10 7 C-10 6.34 -10 5.68 -10 5 C-9.36191406 4.72285156 -8.72382812 4.44570313 -8.06640625 4.16015625 C-7.24011719 3.79792969 -6.41382812 3.43570313 -5.5625 3.0625 C-4.73878906 2.70285156 -3.91507812 2.34320313 -3.06640625 1.97265625 C-1.05589883 1.16877677 -1.05589883 1.16877677 0 0 Z " fill="#4D5775" transform="translate(106,49)"/>
<path d="M0 0 C1.65 0 3.3 0 5 0 C5 0.66 5 1.32 5 2 C5.5775 2.28875 6.155 2.5775 6.75 2.875 C9.875 4.4375 9.875 4.4375 13 6 C12.01 6.66 11.02 7.32 10 8 C8.70684939 7.04367001 7.41553147 6.08486149 6.125 5.125 C5.40570313 4.59132813 4.68640625 4.05765625 3.9453125 3.5078125 C2 2 2 2 0 0 Z " fill="#3B6190" transform="translate(351,47)"/>
<path d="M0 0 C0.66 0 1.32 0 2 0 C2.33 3.63 2.66 7.26 3 11 C1.68 10.67 0.36 10.34 -1 10 C-1 9.34 -1 8.68 -1 8 C-0.34 8 0.32 8 1 8 C0.67 7.34 0.34 6.68 0 6 C-0.039992 4.00039988 -0.04346799 1.99952758 0 0 Z " fill="#415876" transform="translate(73,32)"/>
<path d="M0 0 C3 3 3 3 3.07421875 5.26171875 C2.94660156 6.06222656 2.81898437 6.86273438 2.6875 7.6875 C2.50767578 8.89986328 2.50767578 8.89986328 2.32421875 10.13671875 C2.21722656 10.75160156 2.11023438 11.36648437 2 12 C1.34 12 0.68 12 0 12 C0 8.04 0 4.08 0 0 Z " fill="#9EC4E5" transform="translate(67,120)"/>
<path d="M0 0 C1.32 0 2.64 0 4 0 C5.125 2.3125 5.125 2.3125 6 5 C5.01 6.485 5.01 6.485 4 8 C3.67 6.68 3.34 5.36 3 4 C2.01 4.33 1.02 4.66 0 5 C0 3.35 0 1.7 0 0 Z " fill="#30588A" transform="translate(361,120)"/>
<path d="M0 0 C1.32 0 2.64 0 4 0 C3.67 2.64 3.34 5.28 3 8 C2.34 8 1.68 8 1 8 C-0.35439668 5.29120665 -0.06501451 2.99066732 0 0 Z " fill="#2C5899" transform="translate(183,120)"/>
<path d="M0 0 C0 2.97 0 5.94 0 9 C-0.99 9.33 -1.98 9.66 -3 10 C-3 7.03 -3 4.06 -3 1 C-1 0 -1 0 0 0 Z " fill="#2F5AA1" transform="translate(354,120)"/>
<path d="M0 0 C0 2.97 0 5.94 0 9 C-0.33 8.01 -0.66 7.02 -1 6 C-1.99 6 -2.98 6 -4 6 C-4 4.35 -4 2.7 -4 1 C-1 0 -1 0 0 0 Z " fill="#2E558F" transform="translate(120,122)"/>
<path d="M0 0 C0.66 0.33 1.32 0.66 2 1 C1.67 1.33 1.34 1.66 1 2 C4.3 2.33 7.6 2.66 11 3 C11 3.33 11 3.66 11 4 C6.05 4.33 1.1 4.66 -4 5 C-2.68 3.35 -1.36 1.7 0 0 Z " fill="#9F827A" transform="translate(89,73)"/>
<path d="M0 0 C0.66 0 1.32 0 2 0 C1.34 1.65 0.68 3.3 0 5 C-1.98 5 -3.96 5 -6 5 C-6.33 3.68 -6.66 2.36 -7 1 C-4.69 1.66 -2.38 2.32 0 3 C0 2.01 0 1.02 0 0 Z " fill="#D5EAFA" transform="translate(269,72)"/>
<path d="M0 0 C3.875 4.75 3.875 4.75 5 7 C4.34 7 3.68 7 3 7 C3.33 8.32 3.66 9.64 4 11 C2.29159719 9.36587557 1.06546953 8.13093906 0 6 C-0.039992 4.00039988 -0.04346799 1.99952758 0 0 Z " fill="#B49280" transform="translate(41,21)"/>
<path d="M0 0 C0.99 0.495 0.99 0.495 2 1 C3.231394 4.69418201 2.64432764 7.2056261 2 11 C1.34 11 0.68 11 0 11 C0 7.37 0 3.74 0 0 Z " fill="#6392BE" transform="translate(190,144)"/>
<path d="M0 0 C0.33 0 0.66 0 1 0 C1.33 2.64 1.66 5.28 2 8 C-0.31 8 -2.62 8 -5 8 C-4.67 7.34 -4.34 6.68 -4 6 C-3.34 6 -2.68 6 -2 6 C-1.34 4.02 -0.68 2.04 0 0 Z " fill="#4669A9" transform="translate(65,125)"/>
<path d="M0 0 C2.31 0 4.62 0 7 0 C5.68 0.33 4.36 0.66 3 1 C3 2.65 3 4.3 3 6 C2.01 6 1.02 6 0 6 C0 4.02 0 2.04 0 0 Z " fill="#27538B" transform="translate(313,117)"/>
<path d="M0 0 C0.12375 0.639375 0.2475 1.27875 0.375 1.9375 C0.684375 2.9584375 0.684375 2.9584375 1 4 C1.66 4.33 2.32 4.66 3 5 C0.25 5.25 0.25 5.25 -3 5 C-5.375 3 -5.375 3 -7 1 C-4.69 1.33 -2.38 1.66 0 2 C0 1.34 0 0.68 0 0 Z " fill="#E9CA60" transform="translate(55,78)"/>
<path d="M0 0 C2.38672669 2.96283313 4.7353371 5.94270509 7 9 C3.88626628 7.50079488 0.87771795 5.91847864 -2 4 C-2 3.34 -2 2.68 -2 2 C-1.34 2 -0.68 2 0 2 C0 1.34 0 0.68 0 0 Z " fill="#4E5C63" transform="translate(42,72)"/>
<path d="M0 0 C0.99 0.33 1.98 0.66 3 1 C2.01 2.485 2.01 2.485 1 4 C1.30840599 6.15274948 1.30840599 6.15274948 2 8 C0.68 7.67 -0.64 7.34 -2 7 C-1.125 1.125 -1.125 1.125 0 0 Z " fill="#3D5987" transform="translate(18,67)"/>
<path d="M0 0 C0.99 0.33 1.98 0.66 3 1 C5.22574335 1.22451458 7.45581519 1.40782878 9.6875 1.5625 C10.86699219 1.64628906 12.04648437 1.73007813 13.26171875 1.81640625 C14.61716797 1.90728516 14.61716797 1.90728516 16 2 C16 2.33 16 2.66 16 3 C12.04 3 8.08 3 4 3 C3.67 3.66 3.34 4.32 3 5 C1.5 3.625 1.5 3.625 0 2 C0 1.34 0 0.68 0 0 Z " fill="#948385" transform="translate(18,69)"/>
<path d="M0 0 C2.475 0.495 2.475 0.495 5 1 C5 1.66 5 2.32 5 3 C6.32 3.33 7.64 3.66 9 4 C9.33 5.32 9.66 6.64 10 8 C9.62875 7.566875 9.2575 7.13375 8.875 6.6875 C6.94321308 4.79847568 6.94321308 4.79847568 3.875 3.4375 C1 2 1 2 0 0 Z " fill="#4F5672" transform="translate(30,36)"/>
<path d="M0 0 C1.32 0.66 2.64 1.32 4 2 C4 3.32 4 4.64 4 6 C2.68 5.67 1.36 5.34 0 5 C-0.5625 3.0625 -0.5625 3.0625 -1 1 C-0.67 0.67 -0.34 0.34 0 0 Z " fill="#335895" transform="translate(18,125)"/>
<path d="M0 0 C0.66 0.33 1.32 0.66 2 1 C0.68 2.32 -0.64 3.64 -2 5 C-2.33 4.34 -2.66 3.68 -3 3 C-5.64 3 -8.28 3 -11 3 C-11 2.67 -11 2.34 -11 2 C-10.06027344 1.90912109 -10.06027344 1.90912109 -9.1015625 1.81640625 C-7.87566406 1.69072266 -7.87566406 1.69072266 -6.625 1.5625 C-5.81289062 1.48128906 -5.00078125 1.40007812 -4.1640625 1.31640625 C-1.95727195 1.10909886 -1.95727195 1.10909886 0 0 Z " fill="#C29075" transform="translate(107,70)"/>
<path d="M0 0 C2.9425963 0.30652045 5.34542308 0.67271154 8 2 C8 2.66 8 3.32 8 4 C4.7 3.34 1.4 2.68 -2 2 C-1.34 1.34 -0.68 0.68 0 0 Z " fill="#4A577A" transform="translate(24,51)"/>
<path d="M0 0 C1.32 0 2.64 0 4 0 C4.66 2.97 5.32 5.94 6 9 C4.68 8.67 3.36 8.34 2 8 C2.33 5.69 2.66 3.38 3 1 C2.01 1.33 1.02 1.66 0 2 C0 1.34 0 0.68 0 0 Z " fill="#2C5A8D" transform="translate(98,31)"/>
<path d="M0 0 C0.99 0.33 1.98 0.66 3 1 C3.6875 3.0625 3.6875 3.0625 4 5 C1.69 5.33 -0.62 5.66 -3 6 C-2.01 5.67 -1.02 5.34 0 5 C0 3.35 0 1.7 0 0 Z " fill="#446A98" transform="translate(196,127)"/>
<path d="M0 0 C1.32 0.33 2.64 0.66 4 1 C4 2.32 4 3.64 4 5 C2.68 5 1.36 5 0 5 C0 4.34 0 3.68 0 3 C-0.66 2.67 -1.32 2.34 -2 2 C-1.34 2 -0.68 2 0 2 C0 1.34 0 0.68 0 0 Z " fill="#325790" transform="translate(81,126)"/>
<path d="M0 0 C0.99 0 1.98 0 3 0 C3 0.99 3 1.98 3 3 C3.66 3 4.32 3 5 3 C4.67 4.32 4.34 5.64 4 7 C2 5.75 2 5.75 0 4 C0 2.68 0 1.36 0 0 Z " fill="#2F5A95" transform="translate(82,120)"/>
<path d="M0 0 C1.32 0 2.64 0 4 0 C4 0.66 4 1.32 4 2 C4.66 2.33 5.32 2.66 6 3 C5.01 3 4.02 3 3 3 C3 3.66 3 4.32 3 5 C2.01 5 1.02 5 0 5 C0 3.35 0 1.7 0 0 Z " fill="#41619D" transform="translate(172,120)"/>
<path d="M0 0 C0.66 0.33 1.32 0.66 2 1 C0.515 6.445 0.515 6.445 -1 12 C-1.33 12 -1.66 12 -2 12 C-2 9.69 -2 7.38 -2 5 C-1.34 5 -0.68 5 0 5 C-0.2784375 4.0409375 -0.2784375 4.0409375 -0.5625 3.0625 C-0.7790625 2.0415625 -0.7790625 2.0415625 -1 1 C-0.67 0.67 -0.34 0.34 0 0 Z " fill="#335991" transform="translate(269,118)"/>
<path d="M0 0 C3.4375 1.3125 3.4375 1.3125 7 3 C7.33 3.99 7.66 4.98 8 6 C7.01 6 6.02 6 5 6 C4.34 5.34 3.68 4.68 3 4 C2.34 4 1.68 4 1 4 C0.67 2.68 0.34 1.36 0 0 Z " fill="#475279" transform="translate(31,43)"/>
<path d="M0 0 C2.3773161 2.3773161 2.67028521 3.70285207 3 7 C2.34 7.66 1.68 8.32 1 9 C1 8.01 1 7.02 1 6 C0.34 6 -0.32 6 -1 6 C-1.042721 4.33388095 -1.04063832 2.66617115 -1 1 C-0.67 0.67 -0.34 0.34 0 0 Z " fill="#46699D" transform="translate(250,42)"/>
<path d="M0 0 C0.99 0 1.98 0 3 0 C3 0.66 3 1.32 3 2 C3.66 2.33 4.32 2.66 5 3 C4 4 4 4 0.9375 4.0625 C-0.5165625 4.0315625 -0.5165625 4.0315625 -2 4 C-1 1 -1 1 0 0 Z " fill="#335EA1" transform="translate(303,130)"/>
<path d="M0 0 C0.33 0 0.66 0 1 0 C1 4.29 1 8.58 1 13 C0.01 12.34 -0.98 11.68 -2 11 C-1.34 7.37 -0.68 3.74 0 0 Z " fill="#D6F0FC" transform="translate(342,119)"/>
<path d="M0 0 C0.33 1.32 0.66 2.64 1 4 C-0.8125 5.5625 -0.8125 5.5625 -3 7 C-3.99 6.67 -4.98 6.34 -6 6 C-4 4 -2 2 0 0 Z " fill="#415A76" transform="translate(110,69)"/>
<path d="M0 0 C0.93065133 2.60582371 1.14917407 3.64198224 0.0625 6.25 C-0.4634375 7.11625 -0.4634375 7.11625 -1 8 C-1.66 8 -2.32 8 -3 8 C-2.25 2.25 -2.25 2.25 0 0 Z " fill="#4A577D" transform="translate(80,32)"/>
<path d="M0 0 C0.66 0 1.32 0 2 0 C1.67 1.98 1.34 3.96 1 6 C-0.32 6 -1.64 6 -3 6 C-3 5.01 -3 4.02 -3 3 C-2.34 3 -1.68 3 -1 3 C-0.67 2.01 -0.34 1.02 0 0 Z " fill="#27538A" transform="translate(184,148)"/>
<path d="M0 0 C0.99 0.33 1.98 0.66 3 1 C3 3.97 3 6.94 3 10 C2.34 9.67 1.68 9.34 1 9 C1 7.68 1 6.36 1 5 C0.34 5 -0.32 5 -1 5 C-0.67 3.35 -0.34 1.7 0 0 Z " fill="#214F84" transform="translate(234,119)"/>
<path d="M0 0 C0.66 0.33 1.32 0.66 2 1 C0.02 5.455 0.02 5.455 -2 10 C-2.33 10 -2.66 10 -3 10 C-3 8.35 -3 6.7 -3 5 C-2.34 5 -1.68 5 -1 5 C-0.67 3.35 -0.34 1.7 0 0 Z " fill="#AECDEB" transform="translate(218,121)"/>
<path d="M0 0 C1.32 0.33 2.64 0.66 4 1 C3.67 2.32 3.34 3.64 3 5 C2.01 5 1.02 5 0 5 C0 3.35 0 1.7 0 0 Z " fill="#365782" transform="translate(30,120)"/>
<path d="M0 0 C2.625 0.375 2.625 0.375 5 1 C5 1.99 5 2.98 5 4 C4.34 4 3.68 4 3 4 C3 3.34 3 2.68 3 2 C2.01 2 1.02 2 0 2 C-0.33 2.99 -0.66 3.98 -1 5 C-1.33 4.01 -1.66 3.02 -2 2 C-1.34 1.34 -0.68 0.68 0 0 Z " fill="#9CBAE7" transform="translate(82,118)"/>
<path d="M0 0 C2.88437779 1.29299694 4.87219421 2.65941363 7 5 C6.01 5.33 5.02 5.66 4 6 C2.62437146 4.71034824 1.29233607 3.37310707 0 2 C0 1.34 0 0.68 0 0 Z " fill="#395F89" transform="translate(135,46)"/>
<path d="M0 0 C0.66 0 1.32 0 2 0 C2 0.66 2 1.32 2 2 C2.61875 2.28875 3.2375 2.5775 3.875 2.875 C6 4 6 4 8 6 C6.68 6 5.36 6 4 6 C0 1.66666667 0 1.66666667 0 0 Z " fill="#D0E3F6" transform="translate(327,41)"/>
<path d="M0 0 C3 3 3 3 4 6 C3.0625 8.1875 3.0625 8.1875 2 10 C1.67 10 1.34 10 1 10 C0.67 6.7 0.34 3.4 0 0 Z " fill="#9C8284" transform="translate(61,28)"/>
<path d="M0 0 C2 2 2 2 2 5 C1.34 5 0.68 5 0 5 C-0.33 6.65 -0.66 8.3 -1 10 C-1.66 9.34 -2.32 8.68 -3 8 C-2.01 5.36 -1.02 2.72 0 0 Z " fill="#A3C8E6" transform="translate(48,119)"/>
<path d="M0 0 C1.32 0.33 2.64 0.66 4 1 C3.67 2.98 3.34 4.96 3 7 C0.64046906 4.64046906 0.50858587 3.22104383 0 0 Z " fill="#375B89" transform="translate(43,120)"/>
<path d="M0 0 C1.32 0 2.64 0 4 0 C3.67 0.66 3.34 1.32 3 2 C2.34 1.67 1.68 1.34 1 1 C0.67 2.32 0.34 3.64 0 5 C-1.32 5 -2.64 5 -4 5 C-3 3 -3 3 0 2 C0 1.34 0 0.68 0 0 Z " fill="#4C71A7" transform="translate(119,118)"/>
<path d="M0 0 C0.66 1.32 1.32 2.64 2 4 C1.01 5.32 0.02 6.64 -1 8 C-2.32 7.67 -3.64 7.34 -5 7 C-4.0409375 6.1028125 -4.0409375 6.1028125 -3.0625 5.1875 C-0.79689611 3.09189663 -0.79689611 3.09189663 0 0 Z " fill="#E0EEF9" transform="translate(356,72)"/>
<path d="M0 0 C0.66 0 1.32 0 2 0 C2 1.65 2 3.3 2 5 C0.68 5 -0.64 5 -2 5 C-1.125 1.125 -1.125 1.125 0 0 Z " fill="#2D56AB" transform="translate(102,46)"/>
</svg>
